G75*
%MOIN*%
%OFA0B0*%
%FSLAX24Y24*%
%IPPOS*%
%LPD*%
%AMOC8*
5,1,8,0,0,1.08239X$1,22.5*
%
%ADD10C,0.0010*%
%ADD11C,0.0000*%
%ADD12R,0.0740X0.0740*%
%ADD13C,0.0740*%
%ADD14C,0.0350*%
%ADD15C,0.0160*%
%ADD16C,0.0130*%
D10*
X000225Y001225D02*
X000225Y012225D01*
X000227Y012285D01*
X000232Y012346D01*
X000241Y012405D01*
X000254Y012464D01*
X000270Y012523D01*
X000290Y012580D01*
X000313Y012635D01*
X000340Y012690D01*
X000369Y012742D01*
X000402Y012793D01*
X000438Y012842D01*
X000476Y012888D01*
X000518Y012932D01*
X000562Y012974D01*
X000608Y013012D01*
X000657Y013048D01*
X000708Y013081D01*
X000760Y013110D01*
X000815Y013137D01*
X000870Y013160D01*
X000927Y013180D01*
X000986Y013196D01*
X001045Y013209D01*
X001104Y013218D01*
X001165Y013223D01*
X001225Y013225D01*
X012225Y013225D01*
X012285Y013223D01*
X012346Y013218D01*
X012405Y013209D01*
X012464Y013196D01*
X012523Y013180D01*
X012580Y013160D01*
X012635Y013137D01*
X012690Y013110D01*
X012742Y013081D01*
X012793Y013048D01*
X012842Y013012D01*
X012888Y012974D01*
X012932Y012932D01*
X012974Y012888D01*
X013012Y012842D01*
X013048Y012793D01*
X013081Y012742D01*
X013110Y012690D01*
X013137Y012635D01*
X013160Y012580D01*
X013180Y012523D01*
X013196Y012464D01*
X013209Y012405D01*
X013218Y012346D01*
X013223Y012285D01*
X013225Y012225D01*
X013225Y001225D01*
X010225Y002475D02*
X003225Y002475D01*
X003160Y002466D01*
X003095Y002453D01*
X003032Y002436D01*
X002969Y002416D01*
X002908Y002392D01*
X002848Y002364D01*
X002790Y002334D01*
X002733Y002299D01*
X002679Y002262D01*
X002627Y002221D01*
X002578Y002178D01*
X002531Y002132D01*
X002487Y002083D01*
X002446Y002031D01*
X002408Y001977D01*
X002373Y001922D01*
X002341Y001864D01*
X002313Y001804D01*
X002288Y001743D01*
X002267Y001681D01*
X002250Y001617D01*
X002236Y001553D01*
X002226Y001488D01*
X002220Y001422D01*
X002218Y001356D01*
X002220Y001291D01*
X002225Y001225D01*
X001225Y000225D02*
X001165Y000227D01*
X001104Y000232D01*
X001045Y000241D01*
X000986Y000254D01*
X000927Y000270D01*
X000870Y000290D01*
X000815Y000313D01*
X000760Y000340D01*
X000708Y000369D01*
X000657Y000402D01*
X000608Y000438D01*
X000562Y000476D01*
X000518Y000518D01*
X000476Y000562D01*
X000438Y000608D01*
X000402Y000657D01*
X000369Y000708D01*
X000340Y000760D01*
X000313Y000815D01*
X000290Y000870D01*
X000270Y000927D01*
X000254Y000986D01*
X000241Y001045D01*
X000232Y001104D01*
X000227Y001165D01*
X000225Y001225D01*
D11*
X000575Y001225D02*
X000577Y001275D01*
X000583Y001325D01*
X000593Y001375D01*
X000606Y001423D01*
X000623Y001471D01*
X000644Y001517D01*
X000668Y001561D01*
X000696Y001603D01*
X000727Y001643D01*
X000761Y001680D01*
X000798Y001715D01*
X000837Y001746D01*
X000878Y001775D01*
X000922Y001800D01*
X000968Y001822D01*
X001015Y001840D01*
X001063Y001854D01*
X001112Y001865D01*
X001162Y001872D01*
X001212Y001875D01*
X001263Y001874D01*
X001313Y001869D01*
X001363Y001860D01*
X001411Y001848D01*
X001459Y001831D01*
X001505Y001811D01*
X001550Y001788D01*
X001593Y001761D01*
X001633Y001731D01*
X001671Y001698D01*
X001706Y001662D01*
X001739Y001623D01*
X001768Y001582D01*
X001794Y001539D01*
X001817Y001494D01*
X001836Y001447D01*
X001851Y001399D01*
X001863Y001350D01*
X001871Y001300D01*
X001875Y001250D01*
X001875Y001200D01*
X001871Y001150D01*
X001863Y001100D01*
X001851Y001051D01*
X001836Y001003D01*
X001817Y000956D01*
X001794Y000911D01*
X001768Y000868D01*
X001739Y000827D01*
X001706Y000788D01*
X001671Y000752D01*
X001633Y000719D01*
X001593Y000689D01*
X001550Y000662D01*
X001505Y000639D01*
X001459Y000619D01*
X001411Y000602D01*
X001363Y000590D01*
X001313Y000581D01*
X001263Y000576D01*
X001212Y000575D01*
X001162Y000578D01*
X001112Y000585D01*
X001063Y000596D01*
X001015Y000610D01*
X000968Y000628D01*
X000922Y000650D01*
X000878Y000675D01*
X000837Y000704D01*
X000798Y000735D01*
X000761Y000770D01*
X000727Y000807D01*
X000696Y000847D01*
X000668Y000889D01*
X000644Y000933D01*
X000623Y000979D01*
X000606Y001027D01*
X000593Y001075D01*
X000583Y001125D01*
X000577Y001175D01*
X000575Y001225D01*
X001225Y000225D02*
X001285Y000227D01*
X001346Y000232D01*
X001405Y000241D01*
X001464Y000254D01*
X001523Y000270D01*
X001580Y000290D01*
X001635Y000313D01*
X001690Y000340D01*
X001742Y000369D01*
X001793Y000402D01*
X001842Y000438D01*
X001888Y000476D01*
X001932Y000518D01*
X001974Y000562D01*
X002012Y000608D01*
X002048Y000657D01*
X002081Y000708D01*
X002110Y000760D01*
X002137Y000815D01*
X002160Y000870D01*
X002180Y000927D01*
X002196Y000986D01*
X002209Y001045D01*
X002218Y001104D01*
X002223Y001165D01*
X002225Y001225D01*
X003496Y003279D02*
X003498Y003297D01*
X003504Y003313D01*
X003513Y003328D01*
X003526Y003341D01*
X003541Y003350D01*
X003557Y003356D01*
X003575Y003358D01*
X003593Y003356D01*
X003609Y003350D01*
X003624Y003341D01*
X003637Y003328D01*
X003646Y003313D01*
X003652Y003297D01*
X003654Y003279D01*
X003652Y003261D01*
X003646Y003245D01*
X003637Y003230D01*
X003624Y003217D01*
X003609Y003208D01*
X003593Y003202D01*
X003575Y003200D01*
X003557Y003202D01*
X003541Y003208D01*
X003526Y003217D01*
X003513Y003230D01*
X003504Y003245D01*
X003498Y003261D01*
X003496Y003279D01*
X009796Y003279D02*
X009798Y003297D01*
X009804Y003313D01*
X009813Y003328D01*
X009826Y003341D01*
X009841Y003350D01*
X009857Y003356D01*
X009875Y003358D01*
X009893Y003356D01*
X009909Y003350D01*
X009924Y003341D01*
X009937Y003328D01*
X009946Y003313D01*
X009952Y003297D01*
X009954Y003279D01*
X009952Y003261D01*
X009946Y003245D01*
X009937Y003230D01*
X009924Y003217D01*
X009909Y003208D01*
X009893Y003202D01*
X009875Y003200D01*
X009857Y003202D01*
X009841Y003208D01*
X009826Y003217D01*
X009813Y003230D01*
X009804Y003245D01*
X009798Y003261D01*
X009796Y003279D01*
X010225Y002475D02*
X010290Y002466D01*
X010355Y002453D01*
X010418Y002436D01*
X010481Y002416D01*
X010542Y002392D01*
X010602Y002364D01*
X010660Y002334D01*
X010717Y002299D01*
X010771Y002262D01*
X010823Y002221D01*
X010872Y002178D01*
X010919Y002132D01*
X010963Y002083D01*
X011004Y002031D01*
X011042Y001977D01*
X011077Y001922D01*
X011109Y001864D01*
X011137Y001804D01*
X011162Y001743D01*
X011183Y001681D01*
X011200Y001617D01*
X011214Y001553D01*
X011224Y001488D01*
X011230Y001422D01*
X011232Y001356D01*
X011230Y001291D01*
X011225Y001225D01*
X011575Y001225D02*
X011577Y001275D01*
X011583Y001325D01*
X011593Y001375D01*
X011606Y001423D01*
X011623Y001471D01*
X011644Y001517D01*
X011668Y001561D01*
X011696Y001603D01*
X011727Y001643D01*
X011761Y001680D01*
X011798Y001715D01*
X011837Y001746D01*
X011878Y001775D01*
X011922Y001800D01*
X011968Y001822D01*
X012015Y001840D01*
X012063Y001854D01*
X012112Y001865D01*
X012162Y001872D01*
X012212Y001875D01*
X012263Y001874D01*
X012313Y001869D01*
X012363Y001860D01*
X012411Y001848D01*
X012459Y001831D01*
X012505Y001811D01*
X012550Y001788D01*
X012593Y001761D01*
X012633Y001731D01*
X012671Y001698D01*
X012706Y001662D01*
X012739Y001623D01*
X012768Y001582D01*
X012794Y001539D01*
X012817Y001494D01*
X012836Y001447D01*
X012851Y001399D01*
X012863Y001350D01*
X012871Y001300D01*
X012875Y001250D01*
X012875Y001200D01*
X012871Y001150D01*
X012863Y001100D01*
X012851Y001051D01*
X012836Y001003D01*
X012817Y000956D01*
X012794Y000911D01*
X012768Y000868D01*
X012739Y000827D01*
X012706Y000788D01*
X012671Y000752D01*
X012633Y000719D01*
X012593Y000689D01*
X012550Y000662D01*
X012505Y000639D01*
X012459Y000619D01*
X012411Y000602D01*
X012363Y000590D01*
X012313Y000581D01*
X012263Y000576D01*
X012212Y000575D01*
X012162Y000578D01*
X012112Y000585D01*
X012063Y000596D01*
X012015Y000610D01*
X011968Y000628D01*
X011922Y000650D01*
X011878Y000675D01*
X011837Y000704D01*
X011798Y000735D01*
X011761Y000770D01*
X011727Y000807D01*
X011696Y000847D01*
X011668Y000889D01*
X011644Y000933D01*
X011623Y000979D01*
X011606Y001027D01*
X011593Y001075D01*
X011583Y001125D01*
X011577Y001175D01*
X011575Y001225D01*
X011225Y001225D02*
X011227Y001165D01*
X011232Y001104D01*
X011241Y001045D01*
X011254Y000986D01*
X011270Y000927D01*
X011290Y000870D01*
X011313Y000815D01*
X011340Y000760D01*
X011369Y000708D01*
X011402Y000657D01*
X011438Y000608D01*
X011476Y000562D01*
X011518Y000518D01*
X011562Y000476D01*
X011608Y000438D01*
X011657Y000402D01*
X011708Y000369D01*
X011760Y000340D01*
X011815Y000313D01*
X011870Y000290D01*
X011927Y000270D01*
X011986Y000254D01*
X012045Y000241D01*
X012104Y000232D01*
X012165Y000227D01*
X012225Y000225D01*
X012285Y000227D01*
X012346Y000232D01*
X012405Y000241D01*
X012464Y000254D01*
X012523Y000270D01*
X012580Y000290D01*
X012635Y000313D01*
X012690Y000340D01*
X012742Y000369D01*
X012793Y000402D01*
X012842Y000438D01*
X012888Y000476D01*
X012932Y000518D01*
X012974Y000562D01*
X013012Y000608D01*
X013048Y000657D01*
X013081Y000708D01*
X013110Y000760D01*
X013137Y000815D01*
X013160Y000870D01*
X013180Y000927D01*
X013196Y000986D01*
X013209Y001045D01*
X013218Y001104D01*
X013223Y001165D01*
X013225Y001225D01*
X011575Y012225D02*
X011577Y012275D01*
X011583Y012325D01*
X011593Y012375D01*
X011606Y012423D01*
X011623Y012471D01*
X011644Y012517D01*
X011668Y012561D01*
X011696Y012603D01*
X011727Y012643D01*
X011761Y012680D01*
X011798Y012715D01*
X011837Y012746D01*
X011878Y012775D01*
X011922Y012800D01*
X011968Y012822D01*
X012015Y012840D01*
X012063Y012854D01*
X012112Y012865D01*
X012162Y012872D01*
X012212Y012875D01*
X012263Y012874D01*
X012313Y012869D01*
X012363Y012860D01*
X012411Y012848D01*
X012459Y012831D01*
X012505Y012811D01*
X012550Y012788D01*
X012593Y012761D01*
X012633Y012731D01*
X012671Y012698D01*
X012706Y012662D01*
X012739Y012623D01*
X012768Y012582D01*
X012794Y012539D01*
X012817Y012494D01*
X012836Y012447D01*
X012851Y012399D01*
X012863Y012350D01*
X012871Y012300D01*
X012875Y012250D01*
X012875Y012200D01*
X012871Y012150D01*
X012863Y012100D01*
X012851Y012051D01*
X012836Y012003D01*
X012817Y011956D01*
X012794Y011911D01*
X012768Y011868D01*
X012739Y011827D01*
X012706Y011788D01*
X012671Y011752D01*
X012633Y011719D01*
X012593Y011689D01*
X012550Y011662D01*
X012505Y011639D01*
X012459Y011619D01*
X012411Y011602D01*
X012363Y011590D01*
X012313Y011581D01*
X012263Y011576D01*
X012212Y011575D01*
X012162Y011578D01*
X012112Y011585D01*
X012063Y011596D01*
X012015Y011610D01*
X011968Y011628D01*
X011922Y011650D01*
X011878Y011675D01*
X011837Y011704D01*
X011798Y011735D01*
X011761Y011770D01*
X011727Y011807D01*
X011696Y011847D01*
X011668Y011889D01*
X011644Y011933D01*
X011623Y011979D01*
X011606Y012027D01*
X011593Y012075D01*
X011583Y012125D01*
X011577Y012175D01*
X011575Y012225D01*
X000575Y012225D02*
X000577Y012275D01*
X000583Y012325D01*
X000593Y012375D01*
X000606Y012423D01*
X000623Y012471D01*
X000644Y012517D01*
X000668Y012561D01*
X000696Y012603D01*
X000727Y012643D01*
X000761Y012680D01*
X000798Y012715D01*
X000837Y012746D01*
X000878Y012775D01*
X000922Y012800D01*
X000968Y012822D01*
X001015Y012840D01*
X001063Y012854D01*
X001112Y012865D01*
X001162Y012872D01*
X001212Y012875D01*
X001263Y012874D01*
X001313Y012869D01*
X001363Y012860D01*
X001411Y012848D01*
X001459Y012831D01*
X001505Y012811D01*
X001550Y012788D01*
X001593Y012761D01*
X001633Y012731D01*
X001671Y012698D01*
X001706Y012662D01*
X001739Y012623D01*
X001768Y012582D01*
X001794Y012539D01*
X001817Y012494D01*
X001836Y012447D01*
X001851Y012399D01*
X001863Y012350D01*
X001871Y012300D01*
X001875Y012250D01*
X001875Y012200D01*
X001871Y012150D01*
X001863Y012100D01*
X001851Y012051D01*
X001836Y012003D01*
X001817Y011956D01*
X001794Y011911D01*
X001768Y011868D01*
X001739Y011827D01*
X001706Y011788D01*
X001671Y011752D01*
X001633Y011719D01*
X001593Y011689D01*
X001550Y011662D01*
X001505Y011639D01*
X001459Y011619D01*
X001411Y011602D01*
X001363Y011590D01*
X001313Y011581D01*
X001263Y011576D01*
X001212Y011575D01*
X001162Y011578D01*
X001112Y011585D01*
X001063Y011596D01*
X001015Y011610D01*
X000968Y011628D01*
X000922Y011650D01*
X000878Y011675D01*
X000837Y011704D01*
X000798Y011735D01*
X000761Y011770D01*
X000727Y011807D01*
X000696Y011847D01*
X000668Y011889D01*
X000644Y011933D01*
X000623Y011979D01*
X000606Y012027D01*
X000593Y012075D01*
X000583Y012125D01*
X000577Y012175D01*
X000575Y012225D01*
D12*
X008225Y011725D03*
X000725Y003225D03*
D13*
X000725Y004225D03*
X000725Y005225D03*
X000725Y006225D03*
X000725Y007225D03*
X000725Y008225D03*
X000725Y009225D03*
X000725Y010225D03*
X005225Y011725D03*
X005225Y012725D03*
X006225Y012725D03*
X006225Y011725D03*
X007225Y011725D03*
X007225Y012725D03*
X008225Y012725D03*
D14*
X007025Y009875D03*
X006275Y008225D03*
X004875Y008025D03*
X003125Y007525D03*
X006915Y005715D03*
X007345Y005795D03*
X008425Y007525D03*
X009425Y008275D03*
X008975Y008825D03*
X011325Y010025D03*
D15*
X009425Y008275D02*
X009425Y005995D01*
X009225Y005795D01*
X007345Y005795D01*
X006915Y005715D02*
X006915Y006045D01*
X007045Y006175D01*
X008875Y006175D01*
X008975Y006275D01*
X008975Y008825D01*
X008225Y008425D02*
X008225Y010375D01*
X008875Y011025D01*
X008875Y012575D01*
X008725Y012725D01*
X008225Y012725D01*
X008225Y011725D02*
X008225Y010825D01*
X007975Y010575D01*
X007975Y008825D01*
X007775Y008625D01*
X005475Y008625D01*
X004875Y008025D01*
X006275Y008225D02*
X008025Y008225D01*
X008225Y008425D01*
X008425Y007525D02*
X003125Y007525D01*
X002475Y008225D01*
X000725Y008225D01*
D16*
X000916Y008725D02*
X001028Y008679D01*
X001179Y008528D01*
X001203Y008470D01*
X002431Y008470D01*
X002435Y008472D01*
X002480Y008470D01*
X002524Y008470D01*
X002528Y008468D01*
X002533Y008468D01*
X002573Y008450D01*
X002614Y008433D01*
X002617Y008429D01*
X002621Y008427D01*
X002651Y008395D01*
X002683Y008364D01*
X002684Y008359D01*
X003144Y007865D01*
X003193Y007865D01*
X003318Y007813D01*
X003361Y007770D01*
X004649Y007770D01*
X004587Y007832D01*
X004535Y007957D01*
X004535Y008093D01*
X004587Y008218D01*
X004682Y008313D01*
X004807Y008365D01*
X004869Y008365D01*
X005267Y008764D01*
X005336Y008833D01*
X005426Y008870D01*
X007674Y008870D01*
X007730Y008926D01*
X007730Y010624D01*
X007767Y010714D01*
X007980Y010926D01*
X007980Y011190D01*
X007787Y011190D01*
X007690Y011287D01*
X007690Y011450D01*
X007679Y011422D01*
X007528Y011271D01*
X007331Y011190D01*
X007119Y011190D01*
X006922Y011271D01*
X006771Y011422D01*
X006725Y011534D01*
X006679Y011422D01*
X006528Y011271D01*
X006331Y011190D01*
X006119Y011190D01*
X005922Y011271D01*
X005771Y011422D01*
X005725Y011534D01*
X005679Y011422D01*
X005528Y011271D01*
X005331Y011190D01*
X005119Y011190D01*
X004922Y011271D01*
X004771Y011422D01*
X004690Y011619D01*
X004690Y011831D01*
X004771Y012028D01*
X004922Y012179D01*
X005033Y012225D01*
X005020Y012229D01*
X004945Y012267D01*
X004876Y012317D01*
X004817Y012376D01*
X004767Y012445D01*
X004729Y012520D01*
X004703Y012600D01*
X004690Y012683D01*
X004690Y012690D01*
X005190Y012690D01*
X005190Y012760D01*
X004690Y012760D01*
X004690Y012767D01*
X004703Y012850D01*
X004729Y012930D01*
X004767Y013005D01*
X004803Y013055D01*
X001678Y013055D01*
X001700Y013047D01*
X001700Y013047D01*
X001952Y012835D01*
X001952Y012835D01*
X002117Y012550D01*
X002117Y012550D01*
X002174Y012225D01*
X002174Y012225D01*
X002117Y011900D01*
X002117Y011900D01*
X001952Y011615D01*
X001952Y011615D01*
X001952Y011615D01*
X001700Y011403D01*
X001700Y011403D01*
X001390Y011290D01*
X001060Y011290D01*
X000750Y011403D01*
X000750Y011403D01*
X000498Y011615D01*
X000498Y011615D01*
X000395Y011793D01*
X000395Y010647D01*
X000445Y010683D01*
X000520Y010721D01*
X000600Y010747D01*
X000683Y010760D01*
X000690Y010760D01*
X000690Y010260D01*
X000760Y010260D01*
X000760Y010760D01*
X000767Y010760D01*
X000850Y010747D01*
X000930Y010721D01*
X001005Y010683D01*
X001074Y010633D01*
X001133Y010574D01*
X001183Y010505D01*
X007730Y010505D01*
X007730Y010377D02*
X001238Y010377D01*
X001247Y010350D02*
X001221Y010430D01*
X001183Y010505D01*
X001247Y010350D02*
X001260Y010267D01*
X001260Y010260D01*
X000760Y010260D01*
X000760Y010190D01*
X001260Y010190D01*
X001260Y010183D01*
X001247Y010100D01*
X001221Y010020D01*
X001183Y009945D01*
X001133Y009876D01*
X001074Y009817D01*
X001005Y009767D01*
X000930Y009729D01*
X000917Y009725D01*
X001028Y009679D01*
X001179Y009528D01*
X001260Y009331D01*
X001260Y009119D01*
X001179Y008922D01*
X001028Y008771D01*
X000916Y008725D01*
X000962Y008706D02*
X005210Y008706D01*
X005081Y008578D02*
X001129Y008578D01*
X001091Y008835D02*
X005341Y008835D01*
X004953Y008449D02*
X002574Y008449D01*
X002721Y008321D02*
X004700Y008321D01*
X004576Y008192D02*
X002840Y008192D01*
X002959Y008064D02*
X004535Y008064D01*
X004544Y007935D02*
X003079Y007935D01*
X003324Y007807D02*
X004613Y007807D01*
X005101Y007770D02*
X005163Y007832D01*
X005215Y007957D01*
X005215Y008019D01*
X005576Y008380D01*
X005971Y008380D01*
X005935Y008293D01*
X005935Y008157D01*
X005987Y008032D01*
X006082Y007937D01*
X006207Y007885D01*
X006343Y007885D01*
X006468Y007937D01*
X006511Y007980D01*
X008074Y007980D01*
X008164Y008017D01*
X008364Y008217D01*
X008433Y008286D01*
X008470Y008376D01*
X008470Y010274D01*
X009014Y010817D01*
X009083Y010886D01*
X009120Y010976D01*
X009120Y012624D01*
X009083Y012714D01*
X008933Y012864D01*
X008864Y012933D01*
X008774Y012970D01*
X008703Y012970D01*
X008679Y013028D01*
X008652Y013055D01*
X011772Y013055D01*
X011750Y013047D01*
X011498Y012835D01*
X011333Y012550D01*
X011333Y012550D01*
X011276Y012225D01*
X011333Y011900D01*
X011498Y011615D01*
X011498Y011615D01*
X011750Y011403D01*
X012060Y011290D01*
X012390Y011290D01*
X012700Y011403D01*
X012952Y011615D01*
X013055Y011793D01*
X013055Y001657D01*
X012952Y001835D01*
X012952Y001835D01*
X012700Y002047D01*
X012700Y002047D01*
X012390Y002160D01*
X012060Y002160D01*
X011750Y002047D01*
X011498Y001835D01*
X011370Y001614D01*
X011329Y001813D01*
X011329Y001813D01*
X011125Y002170D01*
X011125Y002170D01*
X010822Y002447D01*
X010822Y002447D01*
X010447Y002616D01*
X010309Y002632D01*
X010295Y002645D01*
X010189Y002645D01*
X010175Y002647D01*
X010173Y002645D01*
X003285Y002645D01*
X003276Y002652D01*
X003216Y002645D01*
X003155Y002645D01*
X003147Y002637D01*
X003001Y002621D01*
X002626Y002451D01*
X002321Y002173D01*
X002117Y001815D01*
X002076Y001620D01*
X001952Y001835D01*
X001952Y001835D01*
X001700Y002047D01*
X001700Y002047D01*
X001390Y002160D01*
X001060Y002160D01*
X000750Y002047D01*
X000498Y001835D01*
X000395Y001657D01*
X000395Y002690D01*
X001163Y002690D01*
X001260Y002787D01*
X001260Y003663D01*
X001163Y003760D01*
X001000Y003760D01*
X001028Y003771D01*
X001179Y003922D01*
X001260Y004119D01*
X001260Y004331D01*
X001179Y004528D01*
X001028Y004679D01*
X000916Y004725D01*
X001028Y004771D01*
X001179Y004922D01*
X001260Y005119D01*
X001260Y005331D01*
X001179Y005528D01*
X001028Y005679D01*
X000916Y005725D01*
X001028Y005771D01*
X001179Y005922D01*
X001260Y006119D01*
X001260Y006331D01*
X001179Y006528D01*
X001028Y006679D01*
X000916Y006725D01*
X001028Y006771D01*
X001179Y006922D01*
X001260Y007119D01*
X001260Y007331D01*
X001179Y007528D01*
X001028Y007679D01*
X000916Y007725D01*
X001028Y007771D01*
X001179Y007922D01*
X001203Y007980D01*
X002368Y007980D01*
X002785Y007531D01*
X002785Y007457D01*
X002837Y007332D01*
X002932Y007237D01*
X003057Y007185D01*
X003193Y007185D01*
X003318Y007237D01*
X003361Y007280D01*
X008189Y007280D01*
X008232Y007237D01*
X008357Y007185D01*
X008493Y007185D01*
X008618Y007237D01*
X008713Y007332D01*
X008730Y007373D01*
X008730Y006420D01*
X006996Y006420D01*
X006906Y006383D01*
X006837Y006314D01*
X006707Y006184D01*
X006670Y006094D01*
X006670Y005951D01*
X006627Y005908D01*
X006575Y005783D01*
X006575Y005647D01*
X006627Y005522D01*
X006722Y005427D01*
X006847Y005375D01*
X006983Y005375D01*
X007108Y005427D01*
X007177Y005496D01*
X007277Y005455D01*
X007413Y005455D01*
X007538Y005507D01*
X007581Y005550D01*
X009274Y005550D01*
X009364Y005587D01*
X009564Y005787D01*
X009633Y005856D01*
X009670Y005946D01*
X009670Y008039D01*
X009713Y008082D01*
X009765Y008207D01*
X009765Y008343D01*
X009713Y008468D01*
X009618Y008563D01*
X009493Y008615D01*
X009357Y008615D01*
X009232Y008563D01*
X009220Y008551D01*
X009220Y008589D01*
X009263Y008632D01*
X009315Y008757D01*
X009315Y008893D01*
X009263Y009018D01*
X009168Y009113D01*
X009043Y009165D01*
X008907Y009165D01*
X008782Y009113D01*
X008687Y009018D01*
X008635Y008893D01*
X008635Y008757D01*
X008687Y008632D01*
X008730Y008589D01*
X008730Y007677D01*
X008713Y007718D01*
X008618Y007813D01*
X008493Y007865D01*
X008357Y007865D01*
X008232Y007813D01*
X008189Y007770D01*
X005101Y007770D01*
X005137Y007807D02*
X008226Y007807D01*
X008210Y008064D02*
X008730Y008064D01*
X008730Y008192D02*
X008338Y008192D01*
X008447Y008321D02*
X008730Y008321D01*
X008730Y008449D02*
X008470Y008449D01*
X008470Y008578D02*
X008730Y008578D01*
X008656Y008706D02*
X008470Y008706D01*
X008470Y008835D02*
X008635Y008835D01*
X008664Y008963D02*
X008470Y008963D01*
X008470Y009092D02*
X008761Y009092D01*
X008470Y009220D02*
X013055Y009220D01*
X013055Y009092D02*
X009189Y009092D01*
X009286Y008963D02*
X013055Y008963D01*
X013055Y008835D02*
X009315Y008835D01*
X009294Y008706D02*
X013055Y008706D01*
X013055Y008578D02*
X009583Y008578D01*
X009721Y008449D02*
X013055Y008449D01*
X013055Y008321D02*
X009765Y008321D01*
X009759Y008192D02*
X013055Y008192D01*
X013055Y008064D02*
X009694Y008064D01*
X009670Y007935D02*
X013055Y007935D01*
X013055Y007807D02*
X009670Y007807D01*
X009670Y007678D02*
X013055Y007678D01*
X013055Y007550D02*
X009670Y007550D01*
X009670Y007421D02*
X013055Y007421D01*
X013055Y007293D02*
X009670Y007293D01*
X009670Y007164D02*
X013055Y007164D01*
X013055Y007036D02*
X009670Y007036D01*
X009670Y006907D02*
X013055Y006907D01*
X013055Y006779D02*
X009670Y006779D01*
X009670Y006650D02*
X013055Y006650D01*
X013055Y006522D02*
X009670Y006522D01*
X009670Y006393D02*
X013055Y006393D01*
X013055Y006265D02*
X009670Y006265D01*
X009670Y006136D02*
X013055Y006136D01*
X013055Y006008D02*
X009670Y006008D01*
X009642Y005879D02*
X013055Y005879D01*
X013055Y005751D02*
X009527Y005751D01*
X009398Y005622D02*
X013055Y005622D01*
X013055Y005494D02*
X007506Y005494D01*
X007184Y005494D02*
X007174Y005494D01*
X006656Y005494D02*
X001193Y005494D01*
X001246Y005365D02*
X013055Y005365D01*
X013055Y005237D02*
X001260Y005237D01*
X001256Y005108D02*
X013055Y005108D01*
X013055Y004980D02*
X001202Y004980D01*
X001108Y004851D02*
X013055Y004851D01*
X013055Y004723D02*
X000922Y004723D01*
X001113Y004594D02*
X013055Y004594D01*
X013055Y004466D02*
X001204Y004466D01*
X001258Y004337D02*
X013055Y004337D01*
X013055Y004209D02*
X001260Y004209D01*
X001244Y004080D02*
X013055Y004080D01*
X013055Y003952D02*
X001191Y003952D01*
X001080Y003823D02*
X013055Y003823D01*
X013055Y003695D02*
X001229Y003695D01*
X001260Y003566D02*
X013055Y003566D01*
X013055Y003438D02*
X010061Y003438D01*
X010081Y003417D02*
X010013Y003486D01*
X009923Y003523D01*
X009826Y003523D01*
X009737Y003486D01*
X009668Y003417D01*
X009631Y003328D01*
X009631Y003231D01*
X009668Y003141D01*
X009737Y003073D01*
X009826Y003036D01*
X009923Y003036D01*
X010013Y003073D01*
X010081Y003141D01*
X010118Y003231D01*
X010118Y003328D01*
X010081Y003417D01*
X010118Y003309D02*
X013055Y003309D01*
X013055Y003181D02*
X010097Y003181D01*
X009963Y003052D02*
X013055Y003052D01*
X013055Y002924D02*
X001260Y002924D01*
X001260Y003052D02*
X003487Y003052D01*
X003527Y003036D02*
X003437Y003073D01*
X003369Y003141D01*
X003332Y003231D01*
X003332Y003328D01*
X003369Y003417D01*
X003437Y003486D01*
X003527Y003523D01*
X003624Y003523D01*
X003713Y003486D01*
X003782Y003417D01*
X003819Y003328D01*
X003819Y003231D01*
X003782Y003141D01*
X003713Y003073D01*
X003624Y003036D01*
X003527Y003036D01*
X003664Y003052D02*
X009786Y003052D01*
X009652Y003181D02*
X003798Y003181D01*
X003819Y003309D02*
X009631Y003309D01*
X009688Y003438D02*
X003762Y003438D01*
X003389Y003438D02*
X001260Y003438D01*
X001260Y003309D02*
X003332Y003309D01*
X003353Y003181D02*
X001260Y003181D01*
X001260Y002795D02*
X013055Y002795D01*
X013055Y002667D02*
X000395Y002667D01*
X000395Y002538D02*
X002817Y002538D01*
X002580Y002410D02*
X000395Y002410D01*
X000395Y002281D02*
X002439Y002281D01*
X002321Y002173D02*
X002321Y002173D01*
X002309Y002153D02*
X001410Y002153D01*
X001060Y002160D02*
X001060Y002160D01*
X001040Y002153D02*
X000395Y002153D01*
X000395Y002024D02*
X000723Y002024D01*
X000569Y001896D02*
X000395Y001896D01*
X000498Y001835D02*
X000498Y001835D01*
X000458Y001767D02*
X000395Y001767D01*
X001727Y002024D02*
X002236Y002024D01*
X002162Y001896D02*
X001881Y001896D01*
X001992Y001767D02*
X002107Y001767D01*
X002080Y001639D02*
X002066Y001639D01*
X003001Y002621D02*
X003001Y002621D01*
X001085Y005622D02*
X006586Y005622D01*
X006575Y005751D02*
X000978Y005751D01*
X001136Y005879D02*
X006615Y005879D01*
X006670Y006008D02*
X001214Y006008D01*
X001260Y006136D02*
X006688Y006136D01*
X006788Y006265D02*
X001260Y006265D01*
X001234Y006393D02*
X006931Y006393D01*
X006463Y007935D02*
X008730Y007935D01*
X008730Y007807D02*
X008624Y007807D01*
X008730Y007678D02*
X008730Y007678D01*
X008730Y007293D02*
X008673Y007293D01*
X008730Y007164D02*
X001260Y007164D01*
X001260Y007293D02*
X002877Y007293D01*
X002800Y007421D02*
X001223Y007421D01*
X001157Y007550D02*
X002768Y007550D01*
X002649Y007678D02*
X001029Y007678D01*
X001063Y007807D02*
X002529Y007807D01*
X002410Y007935D02*
X001184Y007935D01*
X001226Y007036D02*
X008730Y007036D01*
X008730Y006907D02*
X001164Y006907D01*
X001035Y006779D02*
X008730Y006779D01*
X008730Y006650D02*
X001057Y006650D01*
X001181Y006522D02*
X008730Y006522D01*
X009220Y008578D02*
X009267Y008578D01*
X008470Y009349D02*
X013055Y009349D01*
X013055Y009477D02*
X008470Y009477D01*
X008470Y009606D02*
X013055Y009606D01*
X013055Y009734D02*
X008470Y009734D01*
X008470Y009863D02*
X013055Y009863D01*
X013055Y009991D02*
X008470Y009991D01*
X008470Y010120D02*
X013055Y010120D01*
X013055Y010248D02*
X008470Y010248D01*
X008573Y010377D02*
X013055Y010377D01*
X013055Y010505D02*
X008702Y010505D01*
X008830Y010634D02*
X013055Y010634D01*
X013055Y010762D02*
X008959Y010762D01*
X009084Y010891D02*
X013055Y010891D01*
X013055Y011019D02*
X009120Y011019D01*
X009120Y011148D02*
X013055Y011148D01*
X013055Y011276D02*
X009120Y011276D01*
X009120Y011405D02*
X011748Y011405D01*
X011750Y011403D02*
X011750Y011403D01*
X011595Y011533D02*
X009120Y011533D01*
X009120Y011662D02*
X011471Y011662D01*
X011396Y011790D02*
X009120Y011790D01*
X009120Y011919D02*
X011330Y011919D01*
X011333Y011900D02*
X011333Y011900D01*
X011307Y012047D02*
X009120Y012047D01*
X009120Y012176D02*
X011284Y012176D01*
X011276Y012225D02*
X011276Y012225D01*
X011290Y012304D02*
X009120Y012304D01*
X009120Y012433D02*
X011312Y012433D01*
X011339Y012561D02*
X009120Y012561D01*
X009093Y012690D02*
X011414Y012690D01*
X011488Y012818D02*
X008978Y012818D01*
X008830Y012947D02*
X011630Y012947D01*
X011750Y013047D02*
X011750Y013047D01*
X011498Y012835D02*
X011498Y012835D01*
X011498Y012835D01*
X012700Y011403D02*
X012700Y011403D01*
X012702Y011405D02*
X013055Y011405D01*
X013055Y011533D02*
X012855Y011533D01*
X012952Y011615D02*
X012952Y011615D01*
X012979Y011662D02*
X013055Y011662D01*
X013054Y011790D02*
X013055Y011790D01*
X007980Y011148D02*
X000395Y011148D01*
X000395Y011276D02*
X004917Y011276D01*
X004789Y011405D02*
X001702Y011405D01*
X001855Y011533D02*
X004725Y011533D01*
X004690Y011662D02*
X001979Y011662D01*
X002054Y011790D02*
X004690Y011790D01*
X004726Y011919D02*
X002120Y011919D01*
X002143Y012047D02*
X004790Y012047D01*
X004919Y012176D02*
X002166Y012176D01*
X002160Y012304D02*
X004894Y012304D01*
X004776Y012433D02*
X002138Y012433D01*
X002111Y012561D02*
X004716Y012561D01*
X004690Y012690D02*
X002036Y012690D01*
X001962Y012818D02*
X004698Y012818D01*
X004737Y012947D02*
X001820Y012947D01*
X000471Y011662D02*
X000395Y011662D01*
X000395Y011790D02*
X000396Y011790D01*
X000395Y011533D02*
X000595Y011533D01*
X000748Y011405D02*
X000395Y011405D01*
X000395Y011019D02*
X007980Y011019D01*
X007944Y010891D02*
X000395Y010891D01*
X000395Y010762D02*
X007816Y010762D01*
X007734Y010634D02*
X001073Y010634D01*
X000760Y010634D02*
X000690Y010634D01*
X000690Y010505D02*
X000760Y010505D01*
X000760Y010377D02*
X000690Y010377D01*
X000760Y010248D02*
X007730Y010248D01*
X007730Y010120D02*
X001250Y010120D01*
X001206Y009991D02*
X007730Y009991D01*
X007730Y009863D02*
X001119Y009863D01*
X000940Y009734D02*
X007730Y009734D01*
X007730Y009606D02*
X001101Y009606D01*
X001200Y009477D02*
X007730Y009477D01*
X007730Y009349D02*
X001253Y009349D01*
X001260Y009220D02*
X007730Y009220D01*
X007730Y009092D02*
X001249Y009092D01*
X001196Y008963D02*
X007730Y008963D01*
X006087Y007935D02*
X005206Y007935D01*
X005260Y008064D02*
X005974Y008064D01*
X005935Y008192D02*
X005388Y008192D01*
X005517Y008321D02*
X005947Y008321D01*
X005917Y011276D02*
X005533Y011276D01*
X005661Y011405D02*
X005789Y011405D01*
X005725Y011533D02*
X005725Y011533D01*
X006533Y011276D02*
X006917Y011276D01*
X006789Y011405D02*
X006661Y011405D01*
X006725Y011533D02*
X006725Y011533D01*
X007533Y011276D02*
X007701Y011276D01*
X007690Y011405D02*
X007661Y011405D01*
X010447Y002616D02*
X010447Y002616D01*
X010620Y002538D02*
X013055Y002538D01*
X013055Y002410D02*
X010863Y002410D01*
X011004Y002281D02*
X013055Y002281D01*
X013055Y002153D02*
X012410Y002153D01*
X012040Y002153D02*
X011135Y002153D01*
X011209Y002024D02*
X011723Y002024D01*
X011750Y002047D02*
X011750Y002047D01*
X011569Y001896D02*
X011282Y001896D01*
X011338Y001767D02*
X011458Y001767D01*
X011498Y001835D02*
X011498Y001835D01*
X011498Y001835D01*
X011384Y001639D02*
X011365Y001639D01*
X012727Y002024D02*
X013055Y002024D01*
X013055Y001896D02*
X012881Y001896D01*
X012992Y001767D02*
X013055Y001767D01*
M02*
