%
M48
M72
T01C0.0150
T02C0.0157
T03C0.0400
T04C0.1300
%
T01
X6915Y5715
X7345Y5795
X8425Y7525
X9425Y8275
X8975Y8825
X7025Y9875
X6275Y8225
X4875Y8025
X3125Y7525
X11325Y10025
T02
X9875Y3279
X3575Y3279
T03
X725Y3225
X725Y4225
X725Y5225
X725Y6225
X725Y7225
X725Y8225
X725Y9225
X725Y10225
X5225Y11725
X5225Y12725
X6225Y12725
X6225Y11725
X7225Y11725
X7225Y12725
X8225Y12725
X8225Y11725
T04
X1225Y1225
X1225Y12225
X12225Y12225
X12225Y1225
M30
