G75*
%MOIN*%
%OFA0B0*%
%FSLAX24Y24*%
%IPPOS*%
%LPD*%
%AMOC8*
5,1,8,0,0,1.08239X$1,22.5*
%
%ADD10C,0.0040*%
%ADD11C,0.0050*%
%ADD12C,0.0030*%
%ADD13R,0.0300X0.0100*%
%ADD14R,0.0300X0.0180*%
%ADD15C,0.0220*%
%ADD16C,0.0080*%
%ADD17R,0.0100X0.0300*%
%ADD18R,0.0337X0.0000*%
%ADD19R,0.0337X0.0000*%
%ADD20R,0.0344X0.0001*%
%ADD21R,0.0348X0.0000*%
%ADD22R,0.0347X0.0000*%
%ADD23R,0.0350X0.0000*%
%ADD24R,0.0350X0.0000*%
%ADD25R,0.0352X0.0001*%
%ADD26R,0.0355X0.0000*%
%ADD27R,0.0354X0.0000*%
%ADD28R,0.0356X0.0001*%
%ADD29R,0.0359X0.0000*%
%ADD30R,0.0360X0.0000*%
%ADD31R,0.0361X0.0001*%
%ADD32R,0.0363X0.0000*%
%ADD33R,0.0362X0.0000*%
%ADD34R,0.0365X0.0001*%
%ADD35R,0.0364X0.0001*%
%ADD36R,0.0365X0.0000*%
%ADD37R,0.0366X0.0000*%
%ADD38R,0.0366X0.0000*%
%ADD39R,0.0367X0.0001*%
%ADD40R,0.0369X0.0000*%
%ADD41R,0.0370X0.0001*%
%ADD42R,0.0369X0.0001*%
%ADD43R,0.0370X0.0000*%
%ADD44R,0.0371X0.0000*%
%ADD45R,0.0371X0.0000*%
%ADD46R,0.0372X0.0001*%
%ADD47R,0.0372X0.0001*%
%ADD48R,0.0373X0.0000*%
%ADD49R,0.0373X0.0000*%
%ADD50R,0.0374X0.0001*%
%ADD51R,0.0374X0.0001*%
%ADD52R,0.0375X0.0000*%
%ADD53R,0.0374X0.0000*%
%ADD54R,0.0375X0.0000*%
%ADD55R,0.0375X0.0000*%
%ADD56R,0.0375X0.0001*%
%ADD57R,0.0376X0.0001*%
%ADD58R,0.0376X0.0000*%
%ADD59R,0.0377X0.0001*%
%ADD60R,0.0376X0.0001*%
%ADD61R,0.0377X0.0000*%
%ADD62R,0.0378X0.0000*%
%ADD63R,0.0378X0.0000*%
%ADD64R,0.0379X0.0001*%
%ADD65R,0.0379X0.0000*%
%ADD66R,0.0379X0.0000*%
%ADD67R,0.0380X0.0001*%
%ADD68R,0.0379X0.0001*%
%ADD69R,0.0380X0.0000*%
%ADD70R,0.0379X0.0000*%
%ADD71R,0.0380X0.0000*%
%ADD72R,0.0380X0.0000*%
%ADD73R,0.0380X0.0001*%
%ADD74R,0.0381X0.0001*%
%ADD75R,0.0381X0.0000*%
%ADD76R,0.0381X0.0001*%
%ADD77R,0.0381X0.0001*%
%ADD78R,0.0381X0.0000*%
%ADD79R,0.0382X0.0001*%
%ADD80R,0.0381X0.0001*%
%ADD81R,0.0382X0.0000*%
%ADD82R,0.0382X0.0000*%
%ADD83R,0.0382X0.0001*%
%ADD84R,0.0382X0.0000*%
%ADD85R,0.0383X0.0000*%
%ADD86R,0.0383X0.0001*%
%ADD87R,0.0383X0.0001*%
%ADD88R,0.0383X0.0000*%
%ADD89R,0.0382X0.0001*%
%ADD90R,0.0379X0.0001*%
%ADD91R,0.0381X0.0000*%
%ADD92R,0.0378X0.0001*%
%ADD93R,0.0377X0.0000*%
%ADD94R,0.0376X0.0000*%
%ADD95R,0.0374X0.0000*%
%ADD96R,0.0377X0.0001*%
%ADD97R,0.0372X0.0000*%
%ADD98R,0.0371X0.0001*%
%ADD99R,0.0376X0.0001*%
%ADD100R,0.0371X0.0000*%
%ADD101R,0.0376X0.0000*%
%ADD102R,0.0370X0.0000*%
%ADD103R,0.0369X0.0001*%
%ADD104R,0.0374X0.0001*%
%ADD105R,0.0368X0.0000*%
%ADD106R,0.0374X0.0000*%
%ADD107R,0.0367X0.0001*%
%ADD108R,0.0373X0.0001*%
%ADD109R,0.0366X0.0000*%
%ADD110R,0.0372X0.0000*%
%ADD111R,0.0365X0.0000*%
%ADD112R,0.0371X0.0000*%
%ADD113R,0.0364X0.0001*%
%ADD114R,0.0371X0.0001*%
%ADD115R,0.0362X0.0000*%
%ADD116R,0.0369X0.0000*%
%ADD117R,0.0360X0.0001*%
%ADD118R,0.0369X0.0001*%
%ADD119R,0.0359X0.0000*%
%ADD120R,0.0367X0.0000*%
%ADD121R,0.0357X0.0000*%
%ADD122R,0.0355X0.0001*%
%ADD123R,0.0365X0.0001*%
%ADD124R,0.0354X0.0000*%
%ADD125R,0.0364X0.0000*%
%ADD126R,0.0351X0.0001*%
%ADD127R,0.0363X0.0001*%
%ADD128R,0.0348X0.0000*%
%ADD129R,0.0361X0.0000*%
%ADD130R,0.0345X0.0000*%
%ADD131R,0.0340X0.0001*%
%ADD132R,0.0359X0.0001*%
%ADD133R,0.0258X0.0000*%
%ADD134R,0.0356X0.0000*%
%ADD135R,0.0257X0.0001*%
%ADD136R,0.0354X0.0001*%
%ADD137R,0.0257X0.0000*%
%ADD138R,0.0352X0.0000*%
%ADD139R,0.0347X0.0001*%
%ADD140R,0.0257X0.0000*%
%ADD141R,0.0344X0.0000*%
%ADD142R,0.0257X0.0001*%
%ADD143R,0.0338X0.0001*%
%ADD144R,0.0239X0.0000*%
%ADD145R,0.0256X0.0000*%
%ADD146R,0.0256X0.0001*%
%ADD147R,0.0239X0.0001*%
%ADD148R,0.0239X0.0001*%
%ADD149R,0.0256X0.0000*%
%ADD150R,0.0239X0.0000*%
%ADD151R,0.0256X0.0001*%
%ADD152R,0.0255X0.0000*%
%ADD153R,0.0238X0.0000*%
%ADD154R,0.0255X0.0001*%
%ADD155R,0.0238X0.0001*%
%ADD156R,0.0255X0.0000*%
%ADD157R,0.0255X0.0001*%
%ADD158R,0.0238X0.0001*%
%ADD159R,0.0238X0.0000*%
%ADD160R,0.0255X0.0000*%
%ADD161R,0.0238X0.0000*%
%ADD162R,0.0255X0.0001*%
%ADD163R,0.0238X0.0001*%
%ADD164R,0.0254X0.0000*%
%ADD165R,0.0254X0.0001*%
%ADD166R,0.0237X0.0000*%
%ADD167R,0.0254X0.0001*%
%ADD168R,0.0237X0.0001*%
%ADD169R,0.0254X0.0000*%
%ADD170R,0.0253X0.0000*%
%ADD171R,0.0236X0.0000*%
%ADD172R,0.0253X0.0001*%
%ADD173R,0.0236X0.0001*%
%ADD174R,0.0253X0.0000*%
%ADD175R,0.0253X0.0001*%
%ADD176R,0.0236X0.0001*%
%ADD177R,0.0236X0.0000*%
%ADD178R,0.0252X0.0001*%
%ADD179R,0.0252X0.0000*%
%ADD180R,0.0235X0.0000*%
%ADD181R,0.0235X0.0001*%
%ADD182R,0.0251X0.0000*%
%ADD183R,0.0251X0.0001*%
%ADD184R,0.0235X0.0001*%
%ADD185R,0.0235X0.0000*%
%ADD186R,0.0251X0.0001*%
%ADD187R,0.0251X0.0000*%
%ADD188R,0.0234X0.0000*%
%ADD189R,0.0250X0.0001*%
%ADD190R,0.0234X0.0001*%
%ADD191R,0.0250X0.0000*%
%ADD192R,0.0250X0.0000*%
%ADD193R,0.0234X0.0000*%
%ADD194R,0.0250X0.0001*%
%ADD195R,0.0234X0.0001*%
%ADD196R,0.0250X0.0001*%
%ADD197R,0.0250X0.0000*%
%ADD198R,0.0233X0.0000*%
%ADD199R,0.0249X0.0001*%
%ADD200R,0.0233X0.0001*%
%ADD201R,0.0249X0.0000*%
%ADD202R,0.0233X0.0001*%
%ADD203R,0.0233X0.0000*%
%ADD204R,0.0249X0.0000*%
%ADD205R,0.0249X0.0001*%
%ADD206R,0.0233X0.0000*%
%ADD207R,0.0248X0.0001*%
%ADD208R,0.0233X0.0001*%
%ADD209R,0.0248X0.0000*%
%ADD210R,0.0248X0.0001*%
%ADD211R,0.0232X0.0001*%
%ADD212R,0.0248X0.0000*%
%ADD213R,0.0232X0.0000*%
%ADD214R,0.0247X0.0000*%
%ADD215R,0.0231X0.0000*%
%ADD216R,0.0247X0.0001*%
%ADD217R,0.0231X0.0001*%
%ADD218R,0.0246X0.0001*%
%ADD219R,0.0246X0.0000*%
%ADD220R,0.0231X0.0000*%
%ADD221R,0.0231X0.0001*%
%ADD222R,0.0246X0.0000*%
%ADD223R,0.0246X0.0001*%
%ADD224R,0.0230X0.0000*%
%ADD225R,0.0245X0.0000*%
%ADD226R,0.0245X0.0001*%
%ADD227R,0.0230X0.0001*%
%ADD228R,0.0245X0.0001*%
%ADD229R,0.0230X0.0001*%
%ADD230R,0.0245X0.0000*%
%ADD231R,0.0230X0.0000*%
%ADD232R,0.0245X0.0000*%
%ADD233R,0.0229X0.0000*%
%ADD234R,0.0245X0.0001*%
%ADD235R,0.0229X0.0001*%
%ADD236R,0.0244X0.0000*%
%ADD237R,0.0244X0.0001*%
%ADD238R,0.0229X0.0001*%
%ADD239R,0.0229X0.0000*%
%ADD240R,0.0244X0.0000*%
%ADD241R,0.0228X0.0000*%
%ADD242R,0.0244X0.0001*%
%ADD243R,0.0228X0.0001*%
%ADD244R,0.0243X0.0000*%
%ADD245R,0.0243X0.0001*%
%ADD246R,0.0243X0.0000*%
%ADD247R,0.0228X0.0000*%
%ADD248R,0.0243X0.0001*%
%ADD249R,0.0228X0.0001*%
%ADD250R,0.0242X0.0000*%
%ADD251R,0.0227X0.0000*%
%ADD252R,0.0242X0.0001*%
%ADD253R,0.0227X0.0001*%
%ADD254R,0.0241X0.0000*%
%ADD255R,0.0241X0.0001*%
%ADD256R,0.0227X0.0001*%
%ADD257R,0.0227X0.0000*%
%ADD258R,0.0241X0.0001*%
%ADD259R,0.0241X0.0000*%
%ADD260R,0.0226X0.0000*%
%ADD261R,0.0226X0.0001*%
%ADD262R,0.0240X0.0000*%
%ADD263R,0.0240X0.0001*%
%ADD264R,0.0226X0.0001*%
%ADD265R,0.0240X0.0000*%
%ADD266R,0.0226X0.0000*%
%ADD267R,0.0240X0.0001*%
%ADD268R,0.0225X0.0000*%
%ADD269R,0.0240X0.0001*%
%ADD270R,0.0225X0.0001*%
%ADD271R,0.0240X0.0000*%
%ADD272R,0.0225X0.0000*%
%ADD273R,0.0225X0.0001*%
%ADD274R,0.0239X0.0001*%
%ADD275R,0.0239X0.0000*%
%ADD276R,0.0224X0.0000*%
%ADD277R,0.0224X0.0001*%
%ADD278R,0.0224X0.0001*%
%ADD279R,0.0224X0.0000*%
%ADD280R,0.0223X0.0000*%
%ADD281R,0.0237X0.0001*%
%ADD282R,0.0223X0.0001*%
%ADD283R,0.0237X0.0000*%
%ADD284R,0.0223X0.0001*%
%ADD285R,0.0223X0.0000*%
%ADD286R,0.0236X0.0000*%
%ADD287R,0.0222X0.0000*%
%ADD288R,0.0236X0.0001*%
%ADD289R,0.0222X0.0001*%
%ADD290R,0.0222X0.0000*%
%ADD291R,0.0222X0.0001*%
%ADD292R,0.0221X0.0000*%
%ADD293R,0.0235X0.0000*%
%ADD294R,0.0235X0.0001*%
%ADD295R,0.0221X0.0001*%
%ADD296R,0.0221X0.0001*%
%ADD297R,0.0221X0.0000*%
%ADD298R,0.0234X0.0000*%
%ADD299R,0.0220X0.0000*%
%ADD300R,0.0234X0.0001*%
%ADD301R,0.0220X0.0001*%
%ADD302R,0.0220X0.0001*%
%ADD303R,0.0220X0.0000*%
%ADD304R,0.0219X0.0000*%
%ADD305R,0.0219X0.0001*%
%ADD306R,0.0232X0.0000*%
%ADD307R,0.0232X0.0001*%
%ADD308R,0.0219X0.0000*%
%ADD309R,0.0219X0.0001*%
%ADD310R,0.0231X0.0000*%
%ADD311R,0.0218X0.0000*%
%ADD312R,0.0231X0.0001*%
%ADD313R,0.0218X0.0001*%
%ADD314R,0.0218X0.0001*%
%ADD315R,0.0218X0.0000*%
%ADD316R,0.0217X0.0000*%
%ADD317R,0.0217X0.0001*%
%ADD318R,0.0230X0.0000*%
%ADD319R,0.0230X0.0001*%
%ADD320R,0.0217X0.0001*%
%ADD321R,0.0217X0.0000*%
%ADD322R,0.0216X0.0000*%
%ADD323R,0.0229X0.0001*%
%ADD324R,0.0216X0.0001*%
%ADD325R,0.0229X0.0000*%
%ADD326R,0.0216X0.0000*%
%ADD327R,0.0216X0.0001*%
%ADD328R,0.0215X0.0000*%
%ADD329R,0.0227X0.0001*%
%ADD330R,0.0215X0.0001*%
%ADD331R,0.0227X0.0000*%
%ADD332R,0.0215X0.0001*%
%ADD333R,0.0215X0.0000*%
%ADD334R,0.0214X0.0000*%
%ADD335R,0.0226X0.0001*%
%ADD336R,0.0214X0.0001*%
%ADD337R,0.0226X0.0000*%
%ADD338R,0.0214X0.0001*%
%ADD339R,0.0214X0.0000*%
%ADD340R,0.0213X0.0000*%
%ADD341R,0.0213X0.0001*%
%ADD342R,0.0225X0.0001*%
%ADD343R,0.0225X0.0000*%
%ADD344R,0.0213X0.0000*%
%ADD345R,0.0213X0.0001*%
%ADD346R,0.0213X0.0000*%
%ADD347R,0.0224X0.0000*%
%ADD348R,0.0224X0.0001*%
%ADD349R,0.0213X0.0001*%
%ADD350R,0.0212X0.0001*%
%ADD351R,0.0212X0.0000*%
%ADD352R,0.0211X0.0000*%
%ADD353R,0.0211X0.0001*%
%ADD354R,0.0222X0.0000*%
%ADD355R,0.0222X0.0001*%
%ADD356R,0.0211X0.0001*%
%ADD357R,0.0211X0.0000*%
%ADD358R,0.0210X0.0000*%
%ADD359R,0.0210X0.0001*%
%ADD360R,0.0221X0.0000*%
%ADD361R,0.0221X0.0001*%
%ADD362R,0.0210X0.0000*%
%ADD363R,0.0210X0.0001*%
%ADD364R,0.0209X0.0000*%
%ADD365R,0.0209X0.0001*%
%ADD366R,0.0220X0.0000*%
%ADD367R,0.0220X0.0001*%
%ADD368R,0.0209X0.0001*%
%ADD369R,0.0209X0.0000*%
%ADD370R,0.0208X0.0000*%
%ADD371R,0.0208X0.0001*%
%ADD372R,0.0219X0.0000*%
%ADD373R,0.0219X0.0001*%
%ADD374R,0.0208X0.0001*%
%ADD375R,0.0208X0.0000*%
%ADD376R,0.0208X0.0000*%
%ADD377R,0.0208X0.0001*%
%ADD378R,0.0217X0.0000*%
%ADD379R,0.0207X0.0000*%
%ADD380R,0.0217X0.0001*%
%ADD381R,0.0207X0.0001*%
%ADD382R,0.0206X0.0000*%
%ADD383R,0.0216X0.0001*%
%ADD384R,0.0206X0.0001*%
%ADD385R,0.0216X0.0000*%
%ADD386R,0.0206X0.0001*%
%ADD387R,0.0206X0.0000*%
%ADD388R,0.0205X0.0000*%
%ADD389R,0.0205X0.0001*%
%ADD390R,0.0215X0.0001*%
%ADD391R,0.0205X0.0001*%
%ADD392R,0.0215X0.0000*%
%ADD393R,0.0205X0.0000*%
%ADD394R,0.0204X0.0000*%
%ADD395R,0.0204X0.0001*%
%ADD396R,0.0214X0.0001*%
%ADD397R,0.0214X0.0000*%
%ADD398R,0.0204X0.0000*%
%ADD399R,0.0204X0.0001*%
%ADD400R,0.0203X0.0000*%
%ADD401R,0.0203X0.0001*%
%ADD402R,0.0212X0.0001*%
%ADD403R,0.0203X0.0001*%
%ADD404R,0.0212X0.0000*%
%ADD405R,0.0203X0.0000*%
%ADD406R,0.0203X0.0000*%
%ADD407R,0.0203X0.0001*%
%ADD408R,0.0211X0.0000*%
%ADD409R,0.0211X0.0001*%
%ADD410R,0.0202X0.0001*%
%ADD411R,0.0202X0.0000*%
%ADD412R,0.0201X0.0000*%
%ADD413R,0.0201X0.0001*%
%ADD414R,0.0210X0.0000*%
%ADD415R,0.0201X0.0000*%
%ADD416R,0.0210X0.0001*%
%ADD417R,0.0201X0.0001*%
%ADD418R,0.0200X0.0000*%
%ADD419R,0.0200X0.0001*%
%ADD420R,0.0209X0.0000*%
%ADD421R,0.0209X0.0001*%
%ADD422R,0.0200X0.0001*%
%ADD423R,0.0200X0.0000*%
%ADD424R,0.0199X0.0000*%
%ADD425R,0.0199X0.0001*%
%ADD426R,0.0199X0.0001*%
%ADD427R,0.0207X0.0000*%
%ADD428R,0.0199X0.0000*%
%ADD429R,0.0207X0.0001*%
%ADD430R,0.0198X0.0000*%
%ADD431R,0.0198X0.0001*%
%ADD432R,0.0206X0.0000*%
%ADD433R,0.0198X0.0000*%
%ADD434R,0.0206X0.0001*%
%ADD435R,0.0198X0.0001*%
%ADD436R,0.0198X0.0000*%
%ADD437R,0.0198X0.0001*%
%ADD438R,0.0197X0.0001*%
%ADD439R,0.0205X0.0000*%
%ADD440R,0.0197X0.0000*%
%ADD441R,0.0205X0.0001*%
%ADD442R,0.0196X0.0000*%
%ADD443R,0.0196X0.0001*%
%ADD444R,0.0204X0.0001*%
%ADD445R,0.0196X0.0001*%
%ADD446R,0.0204X0.0000*%
%ADD447R,0.0196X0.0000*%
%ADD448R,0.0195X0.0000*%
%ADD449R,0.0195X0.0001*%
%ADD450R,0.0195X0.0000*%
%ADD451R,0.0202X0.0001*%
%ADD452R,0.0195X0.0001*%
%ADD453R,0.0202X0.0000*%
%ADD454R,0.0194X0.0000*%
%ADD455R,0.0194X0.0001*%
%ADD456R,0.0201X0.0001*%
%ADD457R,0.0194X0.0001*%
%ADD458R,0.0201X0.0000*%
%ADD459R,0.0194X0.0000*%
%ADD460R,0.0193X0.0000*%
%ADD461R,0.0193X0.0001*%
%ADD462R,0.0193X0.0001*%
%ADD463R,0.0193X0.0000*%
%ADD464R,0.0200X0.0001*%
%ADD465R,0.0200X0.0000*%
%ADD466R,0.0193X0.0000*%
%ADD467R,0.0193X0.0001*%
%ADD468R,0.0199X0.0000*%
%ADD469R,0.0192X0.0000*%
%ADD470R,0.0199X0.0001*%
%ADD471R,0.0192X0.0001*%
%ADD472R,0.0191X0.0000*%
%ADD473R,0.0191X0.0001*%
%ADD474R,0.0191X0.0001*%
%ADD475R,0.0191X0.0000*%
%ADD476R,0.0197X0.0000*%
%ADD477R,0.0197X0.0001*%
%ADD478R,0.0190X0.0000*%
%ADD479R,0.0190X0.0001*%
%ADD480R,0.0190X0.0001*%
%ADD481R,0.0196X0.0000*%
%ADD482R,0.0190X0.0000*%
%ADD483R,0.0196X0.0001*%
%ADD484R,0.0189X0.0000*%
%ADD485R,0.0189X0.0001*%
%ADD486R,0.0189X0.0000*%
%ADD487R,0.0189X0.0001*%
%ADD488R,0.0195X0.0000*%
%ADD489R,0.0195X0.0001*%
%ADD490R,0.0188X0.0000*%
%ADD491R,0.0188X0.0001*%
%ADD492R,0.0188X0.0001*%
%ADD493R,0.0194X0.0000*%
%ADD494R,0.0188X0.0000*%
%ADD495R,0.0194X0.0001*%
%ADD496R,0.0187X0.0000*%
%ADD497R,0.0187X0.0001*%
%ADD498R,0.0187X0.0001*%
%ADD499R,0.0187X0.0000*%
%ADD500R,0.0192X0.0000*%
%ADD501R,0.0186X0.0000*%
%ADD502R,0.0192X0.0001*%
%ADD503R,0.0186X0.0001*%
%ADD504R,0.0186X0.0000*%
%ADD505R,0.0191X0.0001*%
%ADD506R,0.0186X0.0001*%
%ADD507R,0.0191X0.0000*%
%ADD508R,0.0185X0.0000*%
%ADD509R,0.0185X0.0001*%
%ADD510R,0.0185X0.0001*%
%ADD511R,0.0185X0.0000*%
%ADD512R,0.0190X0.0001*%
%ADD513R,0.0190X0.0000*%
%ADD514R,0.0184X0.0000*%
%ADD515R,0.0184X0.0001*%
%ADD516R,0.0184X0.0001*%
%ADD517R,0.0184X0.0000*%
%ADD518R,0.0189X0.0001*%
%ADD519R,0.0189X0.0000*%
%ADD520R,0.0183X0.0000*%
%ADD521R,0.0183X0.0001*%
%ADD522R,0.0183X0.0000*%
%ADD523R,0.0183X0.0001*%
%ADD524R,0.0187X0.0001*%
%ADD525R,0.0187X0.0000*%
%ADD526R,0.0182X0.0000*%
%ADD527R,0.0182X0.0001*%
%ADD528R,0.0182X0.0001*%
%ADD529R,0.0182X0.0000*%
%ADD530R,0.0186X0.0000*%
%ADD531R,0.0186X0.0001*%
%ADD532R,0.0181X0.0000*%
%ADD533R,0.0181X0.0001*%
%ADD534R,0.0181X0.0001*%
%ADD535R,0.0181X0.0000*%
%ADD536R,0.0185X0.0000*%
%ADD537R,0.0180X0.0000*%
%ADD538R,0.0185X0.0001*%
%ADD539R,0.0180X0.0001*%
%ADD540R,0.0180X0.0000*%
%ADD541R,0.0180X0.0001*%
%ADD542R,0.0184X0.0000*%
%ADD543R,0.0184X0.0001*%
%ADD544R,0.0179X0.0000*%
%ADD545R,0.0179X0.0001*%
%ADD546R,0.0179X0.0001*%
%ADD547R,0.0179X0.0000*%
%ADD548R,0.0182X0.0000*%
%ADD549R,0.0178X0.0000*%
%ADD550R,0.0182X0.0001*%
%ADD551R,0.0178X0.0001*%
%ADD552R,0.0178X0.0001*%
%ADD553R,0.0178X0.0000*%
%ADD554R,0.0181X0.0000*%
%ADD555R,0.0177X0.0000*%
%ADD556R,0.0181X0.0001*%
%ADD557R,0.0177X0.0001*%
%ADD558R,0.0177X0.0000*%
%ADD559R,0.0177X0.0001*%
%ADD560R,0.0180X0.0000*%
%ADD561R,0.0176X0.0000*%
%ADD562R,0.0180X0.0001*%
%ADD563R,0.0176X0.0001*%
%ADD564R,0.0176X0.0001*%
%ADD565R,0.0176X0.0000*%
%ADD566R,0.0179X0.0001*%
%ADD567R,0.0179X0.0000*%
%ADD568R,0.0175X0.0000*%
%ADD569R,0.0175X0.0001*%
%ADD570R,0.0175X0.0001*%
%ADD571R,0.0175X0.0000*%
%ADD572R,0.0174X0.0000*%
%ADD573R,0.0177X0.0001*%
%ADD574R,0.0174X0.0001*%
%ADD575R,0.0177X0.0000*%
%ADD576R,0.0174X0.0000*%
%ADD577R,0.0174X0.0001*%
%ADD578R,0.0176X0.0001*%
%ADD579R,0.0176X0.0000*%
%ADD580R,0.0173X0.0000*%
%ADD581R,0.0173X0.0001*%
%ADD582R,0.0173X0.0001*%
%ADD583R,0.0173X0.0000*%
%ADD584R,0.0173X0.0000*%
%ADD585R,0.0175X0.0001*%
%ADD586R,0.0173X0.0001*%
%ADD587R,0.0175X0.0000*%
%ADD588R,0.0172X0.0001*%
%ADD589R,0.0172X0.0000*%
%ADD590R,0.0174X0.0000*%
%ADD591R,0.0171X0.0000*%
%ADD592R,0.0174X0.0001*%
%ADD593R,0.0171X0.0001*%
%ADD594R,0.0171X0.0000*%
%ADD595R,0.0171X0.0001*%
%ADD596R,0.0170X0.0000*%
%ADD597R,0.0172X0.0000*%
%ADD598R,0.0172X0.0001*%
%ADD599R,0.0170X0.0001*%
%ADD600R,0.0170X0.0001*%
%ADD601R,0.0170X0.0000*%
%ADD602R,0.0171X0.0000*%
%ADD603R,0.0169X0.0000*%
%ADD604R,0.0171X0.0001*%
%ADD605R,0.0169X0.0001*%
%ADD606R,0.0169X0.0001*%
%ADD607R,0.0169X0.0000*%
%ADD608R,0.0168X0.0000*%
%ADD609R,0.0168X0.0001*%
%ADD610R,0.0170X0.0000*%
%ADD611R,0.0170X0.0001*%
%ADD612R,0.0168X0.0000*%
%ADD613R,0.0168X0.0001*%
%ADD614R,0.0169X0.0000*%
%ADD615R,0.0168X0.0000*%
%ADD616R,0.0169X0.0001*%
%ADD617R,0.0168X0.0001*%
%ADD618R,0.0167X0.0001*%
%ADD619R,0.0167X0.0000*%
%ADD620R,0.0166X0.0000*%
%ADD621R,0.0166X0.0001*%
%ADD622R,0.0167X0.0000*%
%ADD623R,0.0167X0.0001*%
%ADD624R,0.0166X0.0001*%
%ADD625R,0.0166X0.0000*%
%ADD626R,0.0165X0.0000*%
%ADD627R,0.0166X0.0001*%
%ADD628R,0.0165X0.0001*%
%ADD629R,0.0166X0.0000*%
%ADD630R,0.0165X0.0000*%
%ADD631R,0.0165X0.0001*%
%ADD632R,0.0164X0.0000*%
%ADD633R,0.0165X0.0001*%
%ADD634R,0.0164X0.0001*%
%ADD635R,0.0165X0.0000*%
%ADD636R,0.0164X0.0001*%
%ADD637R,0.0164X0.0000*%
%ADD638R,0.0163X0.0000*%
%ADD639R,0.0164X0.0001*%
%ADD640R,0.0163X0.0001*%
%ADD641R,0.0164X0.0000*%
%ADD642R,0.0163X0.0001*%
%ADD643R,0.0163X0.0000*%
%ADD644R,0.0163X0.0000*%
%ADD645R,0.0163X0.0001*%
%ADD646R,0.0162X0.0001*%
%ADD647R,0.0162X0.0000*%
%ADD648R,0.0162X0.0000*%
%ADD649R,0.0161X0.0001*%
%ADD650R,0.0162X0.0001*%
%ADD651R,0.0161X0.0000*%
%ADD652R,0.0161X0.0000*%
%ADD653R,0.0161X0.0001*%
%ADD654R,0.0160X0.0001*%
%ADD655R,0.0161X0.0001*%
%ADD656R,0.0160X0.0000*%
%ADD657R,0.0161X0.0000*%
%ADD658R,0.0160X0.0000*%
%ADD659R,0.0160X0.0001*%
%ADD660R,0.0160X0.0000*%
%ADD661R,0.0160X0.0001*%
%ADD662R,0.0159X0.0001*%
%ADD663R,0.0159X0.0000*%
%ADD664R,0.0159X0.0000*%
%ADD665R,0.0159X0.0001*%
%ADD666R,0.0159X0.0000*%
%ADD667R,0.0159X0.0001*%
%ADD668R,0.0158X0.0000*%
%ADD669R,0.0158X0.0001*%
%ADD670R,0.0158X0.0000*%
%ADD671R,0.0158X0.0000*%
%ADD672R,0.0158X0.0001*%
%ADD673R,0.0158X0.0001*%
%ADD674R,0.0157X0.0000*%
%ADD675R,0.0157X0.0001*%
%ADD676R,0.0156X0.0000*%
%ADD677R,0.0156X0.0001*%
%ADD678R,0.0156X0.0000*%
%ADD679R,0.0156X0.0001*%
%ADD680R,0.0157X0.0001*%
%ADD681R,0.0155X0.0000*%
%ADD682R,0.0157X0.0000*%
%ADD683R,0.0155X0.0001*%
%ADD684R,0.0155X0.0001*%
%ADD685R,0.0155X0.0000*%
%ADD686R,0.0155X0.0000*%
%ADD687R,0.0156X0.0000*%
%ADD688R,0.0155X0.0001*%
%ADD689R,0.0156X0.0001*%
%ADD690R,0.0154X0.0000*%
%ADD691R,0.0154X0.0001*%
%ADD692R,0.0154X0.0001*%
%ADD693R,0.0154X0.0000*%
%ADD694R,0.0153X0.0000*%
%ADD695R,0.0153X0.0001*%
%ADD696R,0.0154X0.0000*%
%ADD697R,0.0153X0.0001*%
%ADD698R,0.0154X0.0001*%
%ADD699R,0.0153X0.0000*%
%ADD700R,0.0152X0.0001*%
%ADD701R,0.0152X0.0000*%
%ADD702R,0.0151X0.0000*%
%ADD703R,0.0153X0.0000*%
%ADD704R,0.0151X0.0001*%
%ADD705R,0.0153X0.0001*%
%ADD706R,0.0151X0.0001*%
%ADD707R,0.0151X0.0000*%
%ADD708R,0.0150X0.0001*%
%ADD709R,0.0150X0.0000*%
%ADD710R,0.0150X0.0000*%
%ADD711R,0.0150X0.0001*%
%ADD712R,0.0150X0.0001*%
%ADD713R,0.0152X0.0001*%
%ADD714R,0.0150X0.0000*%
%ADD715R,0.0152X0.0000*%
%ADD716R,0.0149X0.0000*%
%ADD717R,0.0149X0.0001*%
%ADD718R,0.0149X0.0000*%
%ADD719R,0.0149X0.0001*%
%ADD720R,0.0151X0.0001*%
%ADD721R,0.0151X0.0000*%
%ADD722R,0.0148X0.0001*%
%ADD723R,0.0148X0.0000*%
%ADD724R,0.0260X0.0000*%
%ADD725R,0.0259X0.0000*%
%ADD726R,0.0260X0.0001*%
%ADD727R,0.0259X0.0001*%
%ADD728R,0.0868X0.0000*%
%ADD729R,0.0868X0.0001*%
%ADD730R,0.0321X0.0000*%
%ADD731R,0.0305X0.0000*%
%ADD732R,0.0321X0.0001*%
%ADD733R,0.0305X0.0001*%
%ADD734R,0.0867X0.0000*%
%ADD735R,0.0867X0.0001*%
%ADD736R,0.0867X0.0000*%
%ADD737R,0.0867X0.0001*%
%ADD738R,0.0866X0.0000*%
%ADD739R,0.0866X0.0000*%
%ADD740R,0.0866X0.0001*%
%ADD741R,0.0866X0.0000*%
%ADD742R,0.0866X0.0001*%
%ADD743R,0.0865X0.0000*%
%ADD744R,0.0865X0.0001*%
%ADD745R,0.0864X0.0001*%
%ADD746R,0.0864X0.0000*%
%ADD747R,0.0864X0.0001*%
%ADD748R,0.0864X0.0000*%
%ADD749R,0.0864X0.0001*%
%ADD750R,0.0864X0.0000*%
%ADD751R,0.0863X0.0001*%
%ADD752R,0.0863X0.0000*%
%ADD753R,0.0862X0.0001*%
%ADD754R,0.0862X0.0000*%
%ADD755R,0.0862X0.0001*%
%ADD756R,0.0862X0.0000*%
%ADD757R,0.0861X0.0001*%
%ADD758R,0.0861X0.0000*%
%ADD759R,0.0861X0.0001*%
%ADD760R,0.0860X0.0001*%
%ADD761R,0.0860X0.0000*%
%ADD762R,0.0859X0.0000*%
%ADD763R,0.0859X0.0001*%
%ADD764R,0.0858X0.0000*%
%ADD765R,0.0858X0.0001*%
%ADD766R,0.0857X0.0001*%
%ADD767R,0.0857X0.0000*%
%ADD768R,0.0856X0.0000*%
%ADD769R,0.0856X0.0001*%
%ADD770R,0.0855X0.0000*%
%ADD771R,0.0855X0.0001*%
%ADD772R,0.0855X0.0000*%
%ADD773R,0.0855X0.0001*%
%ADD774R,0.0854X0.0000*%
%ADD775R,0.0854X0.0001*%
%ADD776R,0.0853X0.0000*%
%ADD777R,0.0853X0.0001*%
%ADD778R,0.0853X0.0000*%
%ADD779R,0.0853X0.0000*%
%ADD780R,0.0852X0.0001*%
%ADD781R,0.0852X0.0000*%
%ADD782R,0.0852X0.0001*%
%ADD783R,0.0851X0.0000*%
%ADD784R,0.0850X0.0001*%
%ADD785R,0.0850X0.0000*%
%ADD786R,0.0850X0.0001*%
%ADD787R,0.0849X0.0000*%
%ADD788R,0.0848X0.0001*%
%ADD789R,0.0848X0.0000*%
%ADD790R,0.0848X0.0001*%
%ADD791R,0.0848X0.0000*%
%ADD792R,0.0847X0.0000*%
%ADD793R,0.0847X0.0001*%
%ADD794R,0.0846X0.0000*%
%ADD795R,0.0846X0.0001*%
%ADD796R,0.0845X0.0000*%
%ADD797R,0.0845X0.0000*%
%ADD798R,0.0845X0.0001*%
%ADD799R,0.0843X0.0000*%
%ADD800R,0.0843X0.0001*%
%ADD801R,0.0841X0.0000*%
%ADD802R,0.0840X0.0000*%
%ADD803R,0.0839X0.0001*%
%ADD804R,0.0838X0.0000*%
%ADD805R,0.0837X0.0001*%
%ADD806R,0.0836X0.0000*%
%ADD807R,0.0835X0.0000*%
%ADD808R,0.0834X0.0001*%
%ADD809R,0.0833X0.0000*%
%ADD810R,0.0832X0.0001*%
%ADD811R,0.0831X0.0000*%
%ADD812R,0.0830X0.0000*%
%ADD813R,0.0829X0.0001*%
%ADD814R,0.0828X0.0000*%
%ADD815R,0.0827X0.0001*%
%ADD816R,0.0826X0.0000*%
%ADD817R,0.0825X0.0000*%
%ADD818R,0.0824X0.0001*%
%ADD819R,0.0823X0.0000*%
%ADD820R,0.0822X0.0001*%
%ADD821R,0.0821X0.0000*%
%ADD822R,0.0820X0.0000*%
%ADD823R,0.0819X0.0001*%
%ADD824R,0.0818X0.0000*%
%ADD825R,0.0817X0.0001*%
%ADD826R,0.0816X0.0000*%
%ADD827R,0.0815X0.0000*%
%ADD828R,0.0814X0.0001*%
%ADD829R,0.0813X0.0000*%
%ADD830R,0.0812X0.0001*%
%ADD831R,0.0811X0.0000*%
%ADD832R,0.0810X0.0000*%
%ADD833R,0.0808X0.0001*%
%ADD834R,0.0808X0.0000*%
%ADD835R,0.0807X0.0001*%
%ADD836R,0.0805X0.0000*%
%ADD837R,0.0805X0.0000*%
%ADD838R,0.0803X0.0001*%
%ADD839R,0.0803X0.0000*%
%ADD840R,0.0802X0.0001*%
%ADD841R,0.0800X0.0000*%
%ADD842R,0.0800X0.0000*%
%ADD843R,0.0798X0.0001*%
%ADD844R,0.0798X0.0000*%
%ADD845R,0.0797X0.0001*%
%ADD846R,0.0795X0.0000*%
%ADD847R,0.0795X0.0000*%
%ADD848R,0.0793X0.0001*%
%ADD849R,0.0793X0.0000*%
%ADD850R,0.0791X0.0001*%
%ADD851R,0.0790X0.0000*%
%ADD852R,0.0789X0.0000*%
%ADD853R,0.0788X0.0001*%
%ADD854R,0.0787X0.0000*%
%ADD855R,0.0786X0.0001*%
%ADD856R,0.0785X0.0000*%
%ADD857R,0.0784X0.0000*%
%ADD858R,0.0783X0.0001*%
%ADD859R,0.0782X0.0000*%
%ADD860R,0.0781X0.0001*%
%ADD861R,0.0780X0.0000*%
%ADD862R,0.0779X0.0000*%
%ADD863R,0.0778X0.0001*%
%ADD864R,0.0777X0.0000*%
%ADD865R,0.0776X0.0001*%
%ADD866R,0.0775X0.0000*%
%ADD867R,0.0774X0.0000*%
%ADD868R,0.0773X0.0001*%
%ADD869R,0.0772X0.0000*%
%ADD870R,0.0771X0.0001*%
%ADD871R,0.0770X0.0000*%
%ADD872R,0.0769X0.0000*%
%ADD873R,0.0768X0.0001*%
%ADD874R,0.0767X0.0000*%
%ADD875R,0.0766X0.0001*%
%ADD876R,0.0765X0.0000*%
%ADD877R,0.0764X0.0000*%
%ADD878R,0.0763X0.0001*%
%ADD879R,0.0762X0.0000*%
%ADD880R,0.0761X0.0001*%
%ADD881R,0.0760X0.0000*%
%ADD882R,0.0758X0.0000*%
%ADD883R,0.0757X0.0001*%
%ADD884R,0.0757X0.0000*%
%ADD885R,0.0755X0.0001*%
%ADD886R,0.0755X0.0000*%
%ADD887R,0.0753X0.0000*%
%ADD888R,0.0752X0.0001*%
%ADD889R,0.0752X0.0000*%
%ADD890R,0.0750X0.0001*%
%ADD891R,0.0750X0.0000*%
%ADD892R,0.0748X0.0000*%
%ADD893R,0.0747X0.0001*%
%ADD894R,0.0747X0.0000*%
%ADD895R,0.0745X0.0001*%
%ADD896R,0.0745X0.0000*%
%ADD897R,0.0743X0.0000*%
%ADD898R,0.0742X0.0001*%
%ADD899R,0.0741X0.0000*%
%ADD900R,0.0740X0.0001*%
%ADD901R,0.0739X0.0000*%
%ADD902R,0.0738X0.0000*%
%ADD903R,0.0737X0.0001*%
%ADD904R,0.0736X0.0000*%
%ADD905R,0.0735X0.0001*%
%ADD906R,0.0734X0.0000*%
%ADD907R,0.0733X0.0000*%
%ADD908R,0.0732X0.0001*%
%ADD909R,0.0731X0.0000*%
%ADD910R,0.0730X0.0001*%
%ADD911R,0.0729X0.0000*%
%ADD912R,0.0728X0.0000*%
%ADD913R,0.0727X0.0001*%
%ADD914R,0.0726X0.0000*%
%ADD915R,0.0725X0.0001*%
%ADD916R,0.0724X0.0000*%
%ADD917R,0.0723X0.0000*%
%ADD918R,0.0722X0.0001*%
%ADD919R,0.0721X0.0000*%
%ADD920R,0.0720X0.0001*%
%ADD921R,0.0719X0.0000*%
%ADD922R,0.0718X0.0000*%
%ADD923R,0.0717X0.0001*%
%ADD924R,0.0716X0.0000*%
%ADD925R,0.0715X0.0001*%
%ADD926R,0.0714X0.0000*%
%ADD927R,0.0713X0.0000*%
%ADD928R,0.0712X0.0001*%
%ADD929R,0.0711X0.0000*%
%ADD930R,0.0710X0.0001*%
%ADD931R,0.0709X0.0000*%
%ADD932R,0.0707X0.0000*%
%ADD933R,0.0707X0.0001*%
%ADD934R,0.0705X0.0000*%
%ADD935R,0.0705X0.0001*%
%ADD936R,0.0703X0.0000*%
%ADD937R,0.0703X0.0000*%
%ADD938R,0.0702X0.0001*%
%ADD939R,0.0700X0.0000*%
%ADD940R,0.0700X0.0001*%
%ADD941R,0.0698X0.0000*%
%ADD942R,0.0698X0.0000*%
%ADD943R,0.0697X0.0001*%
%ADD944R,0.0695X0.0000*%
%ADD945R,0.0695X0.0001*%
%ADD946R,0.0693X0.0000*%
%ADD947R,0.0692X0.0000*%
%ADD948R,0.0691X0.0001*%
%ADD949R,0.0690X0.0000*%
%ADD950R,0.0689X0.0001*%
%ADD951R,0.0688X0.0000*%
%ADD952R,0.0687X0.0000*%
%ADD953R,0.0686X0.0001*%
%ADD954R,0.0685X0.0000*%
%ADD955R,0.0684X0.0001*%
%ADD956R,0.0683X0.0000*%
%ADD957R,0.0682X0.0000*%
%ADD958R,0.0681X0.0001*%
%ADD959R,0.0680X0.0000*%
%ADD960R,0.0679X0.0001*%
%ADD961R,0.0678X0.0000*%
%ADD962R,0.0677X0.0000*%
%ADD963R,0.0676X0.0001*%
%ADD964R,0.0675X0.0000*%
%ADD965R,0.0674X0.0001*%
%ADD966R,0.0673X0.0000*%
%ADD967R,0.0672X0.0000*%
%ADD968R,0.0671X0.0001*%
%ADD969R,0.0670X0.0000*%
%ADD970R,0.0669X0.0001*%
%ADD971R,0.0668X0.0000*%
%ADD972R,0.0667X0.0000*%
%ADD973R,0.0666X0.0001*%
%ADD974R,0.0665X0.0000*%
%ADD975R,0.0664X0.0001*%
%ADD976R,0.0663X0.0000*%
%ADD977R,0.0662X0.0000*%
%ADD978R,0.0661X0.0001*%
%ADD979R,0.0660X0.0000*%
%ADD980R,0.0659X0.0001*%
%ADD981R,0.0658X0.0000*%
%ADD982R,0.0657X0.0000*%
%ADD983R,0.0655X0.0001*%
%ADD984R,0.0655X0.0000*%
%ADD985R,0.0653X0.0001*%
%ADD986R,0.0653X0.0000*%
%ADD987R,0.0652X0.0000*%
%ADD988R,0.0650X0.0001*%
%ADD989R,0.0650X0.0000*%
%ADD990R,0.0648X0.0001*%
%ADD991R,0.0648X0.0000*%
%ADD992R,0.0647X0.0000*%
%ADD993R,0.0645X0.0001*%
%ADD994R,0.0645X0.0000*%
%ADD995R,0.0643X0.0001*%
%ADD996R,0.0642X0.0000*%
%ADD997R,0.0641X0.0000*%
%ADD998R,0.0640X0.0001*%
%ADD999R,0.0639X0.0000*%
%ADD1000R,0.0638X0.0001*%
%ADD1001R,0.0637X0.0000*%
%ADD1002R,0.0636X0.0000*%
%ADD1003R,0.0635X0.0001*%
%ADD1004R,0.0634X0.0000*%
%ADD1005R,0.0633X0.0001*%
%ADD1006R,0.0632X0.0000*%
%ADD1007R,0.0631X0.0000*%
%ADD1008R,0.0630X0.0001*%
%ADD1009R,0.0629X0.0000*%
%ADD1010R,0.0628X0.0001*%
%ADD1011R,0.0627X0.0000*%
%ADD1012R,0.0626X0.0000*%
%ADD1013R,0.0625X0.0001*%
%ADD1014R,0.0624X0.0000*%
%ADD1015R,0.0623X0.0001*%
%ADD1016R,0.0622X0.0000*%
%ADD1017R,0.0621X0.0000*%
%ADD1018R,0.0620X0.0001*%
%ADD1019R,0.0619X0.0000*%
%ADD1020R,0.0618X0.0001*%
%ADD1021R,0.0617X0.0000*%
%ADD1022R,0.0616X0.0000*%
%ADD1023R,0.0615X0.0001*%
%ADD1024R,0.0614X0.0000*%
%ADD1025R,0.0613X0.0001*%
%ADD1026R,0.0612X0.0000*%
%ADD1027R,0.0611X0.0000*%
%ADD1028R,0.0610X0.0001*%
%ADD1029R,0.0609X0.0000*%
%ADD1030R,0.0607X0.0001*%
%ADD1031R,0.0607X0.0000*%
%ADD1032R,0.0605X0.0000*%
%ADD1033R,0.0605X0.0001*%
%ADD1034R,0.0603X0.0000*%
%ADD1035R,0.0602X0.0001*%
%ADD1036R,0.0602X0.0000*%
%ADD1037R,0.0600X0.0000*%
%ADD1038R,0.0600X0.0001*%
%ADD1039R,0.0598X0.0000*%
%ADD1040R,0.0597X0.0001*%
%ADD1041R,0.0597X0.0000*%
%ADD1042R,0.0595X0.0000*%
%ADD1043R,0.0595X0.0001*%
%ADD1044R,0.0593X0.0000*%
%ADD1045R,0.0592X0.0001*%
%ADD1046R,0.0591X0.0000*%
%ADD1047R,0.0590X0.0000*%
%ADD1048R,0.0589X0.0001*%
%ADD1049R,0.0588X0.0000*%
%ADD1050R,0.0587X0.0001*%
%ADD1051R,0.0586X0.0000*%
%ADD1052R,0.0585X0.0000*%
%ADD1053R,0.0584X0.0001*%
%ADD1054R,0.0583X0.0000*%
%ADD1055R,0.0582X0.0001*%
%ADD1056R,0.0581X0.0000*%
%ADD1057R,0.0580X0.0000*%
%ADD1058R,0.0579X0.0001*%
%ADD1059R,0.0578X0.0000*%
%ADD1060R,0.0577X0.0001*%
%ADD1061R,0.0576X0.0000*%
%ADD1062R,0.0575X0.0000*%
%ADD1063R,0.0574X0.0001*%
%ADD1064R,0.0573X0.0000*%
%ADD1065R,0.0571X0.0001*%
%ADD1066R,0.0568X0.0000*%
%ADD1067R,0.0565X0.0000*%
%ADD1068R,0.0563X0.0001*%
%ADD1069R,0.0560X0.0000*%
%ADD1070R,0.0557X0.0001*%
%ADD1071R,0.0554X0.0000*%
%ADD1072R,0.0551X0.0000*%
%ADD1073R,0.0548X0.0001*%
%ADD1074R,0.0545X0.0000*%
%ADD1075R,0.0542X0.0001*%
%ADD1076R,0.0537X0.0000*%
%ADD1077R,0.0533X0.0000*%
%ADD1078R,0.0530X0.0001*%
%ADD1079R,0.0526X0.0000*%
%ADD1080R,0.0522X0.0001*%
%ADD1081R,0.0518X0.0000*%
%ADD1082R,0.0513X0.0000*%
%ADD1083R,0.0508X0.0001*%
%ADD1084R,0.0503X0.0000*%
%ADD1085R,0.0496X0.0001*%
%ADD1086R,0.0489X0.0000*%
%ADD1087R,0.0477X0.0000*%
%ADD1088C,0.0000*%
D10*
X001333Y003045D02*
X001333Y003405D01*
X001573Y003405D02*
X001333Y003045D01*
X001573Y003045D02*
X001573Y003405D01*
X001698Y003405D02*
X001818Y003405D01*
X001758Y003405D02*
X001758Y003045D01*
X001818Y003045D02*
X001698Y003045D01*
X001946Y003105D02*
X001946Y003345D01*
X002007Y003405D01*
X002187Y003405D01*
X002187Y003045D01*
X002007Y003045D01*
X001946Y003105D01*
X002315Y003105D02*
X002375Y003045D01*
X002495Y003045D01*
X002555Y003105D01*
X002495Y003225D02*
X002375Y003225D01*
X002315Y003165D01*
X002315Y003105D01*
X002495Y003225D02*
X002555Y003285D01*
X002555Y003345D01*
X002495Y003405D01*
X002375Y003405D01*
X002315Y003345D01*
X002245Y004045D02*
X002305Y004105D01*
X002245Y004045D02*
X002125Y004045D01*
X002065Y004105D01*
X002065Y004165D01*
X002125Y004225D01*
X002245Y004225D01*
X002305Y004285D01*
X002305Y004345D01*
X002245Y004405D01*
X002125Y004405D01*
X002065Y004345D01*
X001937Y004345D02*
X001937Y004105D01*
X001877Y004045D01*
X001757Y004045D01*
X001696Y004105D01*
X001568Y004045D02*
X001568Y004405D01*
X001696Y004345D02*
X001757Y004405D01*
X001877Y004405D01*
X001937Y004345D01*
X001568Y004165D02*
X001328Y004405D01*
X001508Y004225D02*
X001328Y004045D01*
X001388Y005045D02*
X001328Y005105D01*
X001388Y005045D02*
X001508Y005045D01*
X001568Y005105D01*
X001568Y005345D01*
X001508Y005405D01*
X001388Y005405D01*
X001328Y005345D01*
X001696Y005405D02*
X001937Y005045D01*
X002065Y005105D02*
X002065Y005345D01*
X002125Y005405D01*
X002305Y005405D01*
X002305Y005045D01*
X002125Y005045D01*
X002065Y005105D01*
X001977Y006045D02*
X001857Y006045D01*
X001796Y006105D01*
X001796Y006165D01*
X001857Y006225D01*
X001977Y006225D01*
X002037Y006285D01*
X002037Y006345D01*
X001977Y006405D01*
X001857Y006405D01*
X001796Y006345D01*
X001668Y006405D02*
X001428Y006405D01*
X001548Y006405D02*
X001548Y006045D01*
X001320Y006485D02*
X002425Y006485D01*
X002405Y006405D02*
X002225Y006405D01*
X002165Y006345D01*
X002165Y006225D01*
X002225Y006165D01*
X002405Y006165D01*
X002405Y006045D02*
X002405Y006405D01*
X002285Y006165D02*
X002165Y006045D01*
X002037Y006105D02*
X001977Y006045D01*
X001995Y006995D02*
X001875Y006995D01*
X001815Y007055D01*
X001687Y007055D02*
X001627Y006995D01*
X001507Y006995D01*
X001446Y007055D01*
X001446Y007115D01*
X001507Y007175D01*
X001627Y007175D01*
X001687Y007235D01*
X001687Y007295D01*
X001627Y007355D01*
X001507Y007355D01*
X001446Y007295D01*
X001338Y007435D02*
X002075Y007435D01*
X001995Y007355D02*
X002055Y007295D01*
X002055Y007055D01*
X001995Y006995D01*
X001815Y007295D02*
X001875Y007355D01*
X001995Y007355D01*
X002125Y008045D02*
X002065Y008105D01*
X002065Y008165D01*
X002125Y008225D01*
X002185Y008225D01*
X002125Y008225D02*
X002065Y008285D01*
X002065Y008345D01*
X002125Y008405D01*
X002245Y008405D01*
X002305Y008345D01*
X002305Y008105D02*
X002245Y008045D01*
X002125Y008045D01*
X001937Y008165D02*
X001937Y008405D01*
X001937Y008165D02*
X001817Y008045D01*
X001696Y008165D01*
X001696Y008405D01*
X001568Y008345D02*
X001508Y008405D01*
X001388Y008405D01*
X001328Y008345D01*
X001328Y008285D01*
X001388Y008225D01*
X001328Y008165D01*
X001328Y008105D01*
X001388Y008045D01*
X001508Y008045D01*
X001568Y008105D01*
X001448Y008225D02*
X001388Y008225D01*
X001351Y009045D02*
X001351Y009405D01*
X001591Y009405D02*
X001351Y009045D01*
X001591Y009045D02*
X001591Y009405D01*
X001717Y009405D02*
X001837Y009405D01*
X001777Y009405D02*
X001777Y009045D01*
X001837Y009045D02*
X001717Y009045D01*
X001965Y009165D02*
X001965Y009405D01*
X001965Y009165D02*
X002085Y009045D01*
X002205Y009165D01*
X002205Y009405D01*
X002245Y010045D02*
X002125Y010045D01*
X002065Y010105D01*
X002065Y010225D01*
X002185Y010225D01*
X002305Y010105D02*
X002245Y010045D01*
X002305Y010105D02*
X002305Y010345D01*
X002245Y010405D01*
X002125Y010405D01*
X002065Y010345D01*
X001937Y010405D02*
X001696Y010045D01*
X001696Y010405D01*
X001568Y010405D02*
X001388Y010405D01*
X001328Y010345D01*
X001328Y010105D01*
X001388Y010045D01*
X001568Y010045D01*
X001568Y010405D01*
X001937Y010405D02*
X001937Y010045D01*
X012595Y008655D02*
X012595Y008475D01*
X012655Y008415D01*
X012775Y008415D01*
X012835Y008475D01*
X012835Y008655D01*
X012955Y008655D02*
X012595Y008655D01*
X012715Y008227D02*
X012715Y008107D01*
X012775Y008046D01*
X012955Y008046D01*
X012955Y008227D01*
X012895Y008287D01*
X012835Y008227D01*
X012835Y008046D01*
X012775Y007918D02*
X012715Y007858D01*
X012715Y007678D01*
X012835Y007738D02*
X012835Y007858D01*
X012775Y007918D01*
X012955Y007918D02*
X012955Y007738D01*
X012895Y007678D01*
X012835Y007738D01*
X012895Y007550D02*
X012835Y007490D01*
X012835Y007310D01*
X012775Y007310D02*
X012955Y007310D01*
X012955Y007490D01*
X012895Y007550D01*
X012715Y007490D02*
X012715Y007370D01*
X012775Y007310D01*
X012775Y007182D02*
X012715Y007122D01*
X012715Y006942D01*
X012595Y006942D02*
X012955Y006942D01*
X012955Y007122D01*
X012895Y007182D01*
X012775Y007182D01*
X012775Y006813D02*
X012715Y006753D01*
X012715Y006633D01*
X012775Y006573D01*
X012835Y006573D01*
X012835Y006813D01*
X012895Y006813D02*
X012775Y006813D01*
X012895Y006813D02*
X012955Y006753D01*
X012955Y006633D01*
X012955Y006445D02*
X012715Y006445D01*
X012715Y006265D01*
X012775Y006205D01*
X012955Y006205D01*
X012895Y006077D02*
X012835Y006017D01*
X012835Y005837D01*
X012775Y005837D02*
X012955Y005837D01*
X012955Y006017D01*
X012895Y006077D01*
X012715Y006017D02*
X012715Y005897D01*
X012775Y005837D01*
X012895Y005648D02*
X012955Y005648D01*
X012955Y005588D01*
X012895Y005588D01*
X012895Y005648D01*
X012955Y005588D02*
X013075Y005708D01*
X012895Y005095D02*
X012655Y005095D01*
X012595Y005035D01*
X012595Y004914D01*
X012655Y004854D01*
X012715Y004726D02*
X012595Y004606D01*
X012715Y004486D01*
X012955Y004486D01*
X012775Y004486D02*
X012775Y004726D01*
X012715Y004726D02*
X012955Y004726D01*
X012895Y004854D02*
X012955Y004914D01*
X012955Y005035D01*
X012895Y005095D01*
X012715Y003455D02*
X012955Y003335D01*
X012715Y003215D01*
X012715Y003087D02*
X012595Y002967D01*
X012955Y002967D01*
X012955Y003087D02*
X012955Y002846D01*
X012955Y002718D02*
X012955Y002658D01*
X012895Y002658D01*
X012895Y002718D01*
X012955Y002718D01*
X012895Y002534D02*
X012655Y002534D01*
X012595Y002474D01*
X012595Y002354D01*
X012655Y002294D01*
X012895Y002534D01*
X012955Y002474D01*
X012955Y002354D01*
X012895Y002294D01*
X012655Y002294D01*
D11*
X007799Y007745D02*
X005751Y007745D01*
X005751Y010305D02*
X007799Y010305D01*
X007756Y010600D02*
X007756Y011050D01*
X007596Y011050D02*
X007596Y010600D01*
X007296Y010600D01*
X007136Y010675D02*
X007061Y010600D01*
X006910Y010600D01*
X006835Y010675D01*
X006835Y010825D01*
X006986Y010825D01*
X007136Y010975D02*
X007136Y010675D01*
X007136Y010975D02*
X007061Y011050D01*
X006910Y011050D01*
X006835Y010975D01*
X006675Y010975D02*
X006600Y011050D01*
X006450Y011050D01*
X006375Y010975D01*
X006675Y010675D01*
X006600Y010600D01*
X006450Y010600D01*
X006375Y010675D01*
X006375Y010975D01*
X006215Y010900D02*
X006065Y011050D01*
X006065Y010600D01*
X006215Y010600D02*
X005915Y010600D01*
X005294Y010600D02*
X005069Y010600D01*
X004994Y010675D01*
X004994Y010750D01*
X005069Y010825D01*
X005294Y010825D01*
X005294Y010600D02*
X005294Y011050D01*
X005069Y011050D01*
X004994Y010975D01*
X004994Y010900D01*
X005069Y010825D01*
X004834Y010750D02*
X004609Y010750D01*
X004533Y010825D01*
X004533Y010975D01*
X004609Y011050D01*
X004834Y011050D01*
X004834Y010600D01*
X004684Y010750D02*
X004533Y010600D01*
X004373Y010600D02*
X004073Y010600D01*
X003913Y010600D02*
X003913Y010900D01*
X003763Y011050D01*
X003613Y010900D01*
X003613Y010600D01*
X003453Y010600D02*
X003453Y011050D01*
X003377Y010825D02*
X003152Y010600D01*
X002992Y010675D02*
X002917Y010600D01*
X002767Y010600D01*
X002692Y010675D01*
X002692Y010975D01*
X002767Y011050D01*
X002917Y011050D01*
X002992Y010975D01*
X002992Y010675D01*
X002821Y010575D02*
X002821Y010950D01*
X003152Y011050D02*
X003453Y010750D01*
X003613Y010825D02*
X003913Y010825D01*
X004073Y011050D02*
X004373Y011050D01*
X004373Y010600D01*
X004373Y010825D02*
X004223Y010825D01*
X002821Y010575D02*
X002746Y010500D01*
X002596Y010500D01*
X002521Y010575D01*
X002521Y010950D01*
X002532Y011050D02*
X002532Y010675D01*
X002457Y010600D01*
X002307Y010600D01*
X002232Y010675D01*
X002232Y011050D01*
X002285Y010950D02*
X002135Y010950D01*
X002060Y010875D01*
X002060Y010800D01*
X002360Y010500D01*
X002060Y010500D01*
X001921Y010600D02*
X001921Y011050D01*
X002071Y011050D02*
X001771Y011050D01*
X002285Y010950D02*
X002360Y010875D01*
X006675Y010975D02*
X006675Y010675D01*
X007296Y011050D02*
X007596Y011050D01*
X007596Y010825D02*
X007446Y010825D01*
X007756Y010600D02*
X007906Y010750D01*
X008056Y010600D01*
X008056Y011050D01*
X008217Y010975D02*
X008292Y011050D01*
X008442Y011050D01*
X008517Y010975D01*
X008517Y010900D01*
X008442Y010825D01*
X008292Y010825D01*
X008217Y010750D01*
X008217Y010675D01*
X008292Y010600D01*
X008442Y010600D01*
X008517Y010675D01*
X008677Y010600D02*
X008677Y011050D01*
X008677Y010825D02*
X008977Y010825D01*
X009137Y010825D02*
X009438Y010825D01*
X009212Y011050D01*
X009212Y010600D01*
X008977Y010600D02*
X008977Y011050D01*
X009598Y011050D02*
X009748Y010975D01*
X009898Y010825D01*
X009673Y010825D01*
X009598Y010750D01*
X009598Y010675D01*
X009673Y010600D01*
X009823Y010600D01*
X009898Y010675D01*
X009898Y010825D01*
X010058Y010750D02*
X010058Y010675D01*
X010133Y010600D01*
X010283Y010600D01*
X010358Y010675D01*
X010358Y010750D01*
X010283Y010825D01*
X010133Y010825D01*
X010058Y010750D01*
X010133Y010825D02*
X010058Y010900D01*
X010058Y010975D01*
X010133Y011050D01*
X010283Y011050D01*
X010358Y010975D01*
X010358Y010900D01*
X010283Y010825D01*
X010519Y010900D02*
X010519Y010975D01*
X010594Y011050D01*
X010744Y011050D01*
X010819Y010975D01*
X010979Y010825D02*
X011279Y010825D01*
X011439Y010825D02*
X011439Y010675D01*
X011514Y010600D01*
X011665Y010600D01*
X011740Y010675D01*
X011740Y010975D01*
X011665Y011050D01*
X011514Y011050D01*
X011439Y010975D01*
X011439Y010825D02*
X011589Y010825D01*
X011900Y010675D02*
X011900Y011050D01*
X012200Y011050D02*
X012200Y010675D01*
X012125Y010600D01*
X011975Y010600D01*
X011900Y010675D01*
X010819Y010600D02*
X010519Y010900D01*
X010519Y010600D02*
X010819Y010600D01*
D12*
X009046Y009960D02*
X008949Y009960D01*
X008997Y009960D02*
X008997Y009670D01*
X008949Y009670D02*
X009046Y009670D01*
X008849Y009718D02*
X008849Y009912D01*
X008801Y009960D01*
X008704Y009960D01*
X008656Y009912D01*
X008555Y009863D02*
X008458Y009960D01*
X008458Y009670D01*
X008555Y009670D02*
X008361Y009670D01*
X008656Y009718D02*
X008704Y009670D01*
X008801Y009670D01*
X008849Y009718D01*
X008863Y007739D02*
X008912Y007739D01*
X008960Y007690D01*
X008960Y007594D01*
X008912Y007545D01*
X008912Y007444D02*
X008960Y007396D01*
X008960Y007299D01*
X008912Y007251D01*
X008718Y007251D01*
X008670Y007299D01*
X008670Y007396D01*
X008718Y007444D01*
X008670Y007545D02*
X008863Y007739D01*
X008670Y007739D02*
X008670Y007545D01*
X009320Y007594D02*
X009368Y007545D01*
X009320Y007594D02*
X009320Y007690D01*
X009368Y007739D01*
X009417Y007739D01*
X009465Y007690D01*
X009465Y007642D01*
X009465Y007690D02*
X009513Y007739D01*
X009562Y007739D01*
X009610Y007690D01*
X009610Y007594D01*
X009562Y007545D01*
X009562Y007444D02*
X009465Y007444D01*
X009417Y007396D01*
X009417Y007251D01*
X009417Y007347D02*
X009320Y007444D01*
X009562Y007444D02*
X009610Y007396D01*
X009610Y007251D01*
X009320Y007251D01*
X010020Y007299D02*
X010068Y007251D01*
X010262Y007251D01*
X010310Y007299D01*
X010310Y007396D01*
X010262Y007444D01*
X010310Y007545D02*
X010310Y007739D01*
X010262Y007739D01*
X010068Y007545D01*
X010020Y007545D01*
X010068Y007444D02*
X010020Y007396D01*
X010020Y007299D01*
X010620Y007299D02*
X010668Y007251D01*
X010862Y007251D01*
X010910Y007299D01*
X010910Y007396D01*
X010862Y007444D01*
X010862Y007545D02*
X010813Y007545D01*
X010765Y007594D01*
X010765Y007690D01*
X010717Y007739D01*
X010668Y007739D01*
X010620Y007690D01*
X010620Y007594D01*
X010668Y007545D01*
X010717Y007545D01*
X010765Y007594D01*
X010765Y007690D02*
X010813Y007739D01*
X010862Y007739D01*
X010910Y007690D01*
X010910Y007594D01*
X010862Y007545D01*
X010668Y007444D02*
X010620Y007396D01*
X010620Y007299D01*
X007760Y006572D02*
X007760Y006418D01*
X007722Y006380D01*
X007645Y006380D01*
X007607Y006418D01*
X007607Y006572D01*
X007645Y006610D01*
X007722Y006610D01*
X007760Y006572D01*
X007521Y006533D02*
X007521Y006495D01*
X007482Y006495D01*
X007482Y006533D01*
X007521Y006533D01*
X007521Y006418D02*
X007521Y006380D01*
X007482Y006380D01*
X007482Y006418D01*
X007521Y006418D01*
X007645Y006220D02*
X007607Y006182D01*
X007645Y006220D02*
X007722Y006220D01*
X007760Y006182D01*
X007760Y006028D01*
X007722Y005990D01*
X007645Y005990D01*
X007607Y006028D01*
X007521Y006028D02*
X007521Y005990D01*
X007482Y005990D01*
X007482Y006028D01*
X007521Y006028D01*
X007521Y006105D02*
X007521Y006143D01*
X007482Y006143D01*
X007482Y006105D01*
X007521Y006105D01*
X007161Y005990D02*
X007085Y005990D01*
X007123Y005990D02*
X007123Y006220D01*
X007161Y006220D02*
X007085Y006220D01*
X007002Y006182D02*
X006964Y006220D01*
X006887Y006220D01*
X006848Y006182D01*
X006848Y006143D01*
X007002Y005990D01*
X006848Y005990D01*
X006762Y006028D02*
X006724Y005990D01*
X006647Y005990D01*
X006609Y006028D01*
X006762Y006028D02*
X006762Y006182D01*
X006724Y006220D01*
X006647Y006220D01*
X006609Y006182D01*
X006606Y006380D02*
X006683Y006380D01*
X006644Y006380D02*
X006644Y006610D01*
X006606Y006610D02*
X006683Y006610D01*
X006769Y006572D02*
X006769Y006495D01*
X006807Y006457D01*
X006922Y006457D01*
X006922Y006380D02*
X006922Y006610D01*
X006807Y006610D01*
X006769Y006572D01*
X007008Y006572D02*
X007046Y006610D01*
X007123Y006610D01*
X007161Y006572D01*
X007161Y006533D01*
X007123Y006495D01*
X007046Y006495D01*
X007008Y006457D01*
X007008Y006418D01*
X007046Y006380D01*
X007123Y006380D01*
X007161Y006418D01*
X005950Y007251D02*
X005950Y007396D01*
X005902Y007444D01*
X005805Y007444D01*
X005757Y007396D01*
X005757Y007251D01*
X005757Y007347D02*
X005660Y007444D01*
X005660Y007545D02*
X005660Y007739D01*
X005660Y007642D02*
X005950Y007642D01*
X005853Y007545D01*
X005950Y007251D02*
X005660Y007251D01*
X005160Y007299D02*
X005112Y007251D01*
X004918Y007251D01*
X004870Y007299D01*
X004870Y007396D01*
X004918Y007444D01*
X004918Y007545D02*
X004870Y007594D01*
X004870Y007690D01*
X004918Y007739D01*
X004967Y007739D01*
X005015Y007690D01*
X005015Y007545D01*
X004918Y007545D01*
X005015Y007545D02*
X005112Y007642D01*
X005160Y007739D01*
X005112Y007444D02*
X005160Y007396D01*
X005160Y007299D01*
X004510Y007299D02*
X004462Y007251D01*
X004268Y007251D01*
X004220Y007299D01*
X004220Y007396D01*
X004268Y007444D01*
X004268Y007545D02*
X004220Y007594D01*
X004220Y007690D01*
X004268Y007739D01*
X004365Y007739D01*
X004413Y007690D01*
X004413Y007642D01*
X004365Y007545D01*
X004510Y007545D01*
X004510Y007739D01*
X004462Y007444D02*
X004510Y007396D01*
X004510Y007299D01*
X003660Y007299D02*
X003612Y007251D01*
X003418Y007251D01*
X003370Y007299D01*
X003370Y007396D01*
X003418Y007444D01*
X003515Y007545D02*
X003515Y007739D01*
X003370Y007690D02*
X003660Y007690D01*
X003515Y007545D01*
X003612Y007444D02*
X003660Y007396D01*
X003660Y007299D01*
X002810Y007299D02*
X002762Y007251D01*
X002568Y007251D01*
X002520Y007299D01*
X002520Y007396D01*
X002568Y007444D01*
X002568Y007545D02*
X002520Y007594D01*
X002520Y007690D01*
X002568Y007739D01*
X002617Y007739D01*
X002665Y007690D01*
X002665Y007642D01*
X002665Y007690D02*
X002713Y007739D01*
X002762Y007739D01*
X002810Y007690D01*
X002810Y007594D01*
X002762Y007545D01*
X002762Y007444D02*
X002810Y007396D01*
X002810Y007299D01*
X003938Y012640D02*
X003890Y012688D01*
X003890Y012785D01*
X003938Y012833D01*
X003890Y012935D02*
X003890Y013128D01*
X003890Y013031D02*
X004180Y013031D01*
X004083Y012935D01*
X004132Y012833D02*
X004180Y012785D01*
X004180Y012688D01*
X004132Y012640D01*
X003938Y012640D01*
D13*
X002725Y004325D03*
D14*
X005815Y006575D03*
X009475Y006575D03*
D15*
X010113Y006575D02*
X010137Y006575D01*
X010763Y006575D02*
X010787Y006575D01*
X008787Y006575D02*
X008763Y006575D01*
X005037Y006575D02*
X005013Y006575D01*
X004387Y006575D02*
X004363Y006575D01*
X003537Y006575D02*
X003513Y006575D01*
X002687Y006575D02*
X002663Y006575D01*
X004013Y011925D02*
X004037Y011925D01*
D16*
X000225Y002975D02*
X000475Y002725D01*
X000975Y002725D01*
X001225Y002975D01*
X001225Y003475D01*
X000975Y003725D01*
X001225Y003975D01*
X001225Y004475D01*
X000975Y004725D01*
X001225Y004975D01*
X001225Y005475D01*
X000975Y005725D01*
X001225Y005975D01*
X001225Y006475D01*
X000975Y006725D01*
X001225Y006975D01*
X001225Y007475D01*
X000975Y007725D01*
X001225Y007975D01*
X001225Y008475D01*
X000975Y008725D01*
X001225Y008975D01*
X001225Y009475D01*
X000975Y009725D01*
X001225Y009975D01*
X001225Y010475D01*
X000975Y010725D01*
X000475Y010725D01*
X000225Y010475D01*
X000225Y009975D01*
X000475Y009725D01*
X000225Y009475D01*
X000225Y008975D01*
X000475Y008725D01*
X000225Y008475D01*
X000225Y007975D01*
X000475Y007725D01*
X000225Y007475D01*
X000225Y006975D01*
X000475Y006725D01*
X000225Y006475D01*
X000225Y005975D01*
X000475Y005725D01*
X000225Y005475D01*
X000225Y004975D01*
X000475Y004725D01*
X000225Y004475D01*
X000225Y003975D01*
X000475Y003725D01*
X000225Y003475D01*
X000225Y002975D01*
X006111Y006710D02*
X006111Y007340D01*
X006899Y007340D02*
X006899Y006710D01*
X007531Y006710D02*
X007531Y007340D01*
X008319Y007340D02*
X008319Y006710D01*
X008475Y011225D02*
X007975Y011225D01*
X007725Y011475D01*
X007475Y011225D01*
X006975Y011225D01*
X006725Y011475D01*
X006475Y011225D01*
X005975Y011225D01*
X005725Y011475D01*
X005475Y011225D01*
X004975Y011225D01*
X004725Y011475D01*
X004725Y011975D01*
X004975Y012225D01*
X004725Y012475D01*
X004725Y012975D01*
X004975Y013225D01*
X005475Y013225D01*
X005725Y012975D01*
X005975Y013225D01*
X006475Y013225D01*
X006725Y012975D01*
X006975Y013225D01*
X007475Y013225D01*
X007725Y012975D01*
X007975Y013225D01*
X008475Y013225D01*
X008725Y012975D01*
X008725Y012475D01*
X008475Y012225D01*
X008725Y011975D01*
X008725Y011475D01*
X008475Y011225D01*
X007725Y011725D02*
X007725Y012725D01*
X006725Y012725D02*
X006725Y011725D01*
X005725Y011725D02*
X005725Y012725D01*
X003485Y012044D02*
X003485Y011706D01*
X003031Y011556D02*
X002819Y011556D01*
X002365Y011706D02*
X002365Y012044D01*
D17*
X005125Y007875D03*
D18*
X010509Y011750D03*
D19*
X009892Y011750D03*
D20*
X009892Y011750D03*
X010509Y011750D03*
D21*
X010509Y011751D03*
D22*
X009892Y011751D03*
D23*
X010509Y011751D03*
D24*
X009892Y011751D03*
X009892Y012001D03*
D25*
X009892Y011752D03*
X010509Y011752D03*
D26*
X010509Y011753D03*
D27*
X009892Y011753D03*
D28*
X009892Y011753D03*
X010509Y011753D03*
D29*
X010509Y011754D03*
X009892Y011754D03*
D30*
X009892Y011754D03*
X009892Y011999D03*
X010509Y011754D03*
D31*
X010509Y011754D03*
X009892Y011754D03*
D32*
X010509Y011755D03*
D33*
X009892Y011755D03*
D34*
X010509Y011755D03*
D35*
X009892Y011755D03*
D36*
X010509Y011756D03*
D37*
X009892Y011756D03*
D38*
X009892Y011756D03*
X009892Y011996D03*
X010509Y011756D03*
D39*
X010509Y011757D03*
X009892Y011757D03*
D40*
X009892Y011758D03*
X010509Y011758D03*
D41*
X010509Y011758D03*
D42*
X009892Y011758D03*
D43*
X010509Y011759D03*
D44*
X009892Y011759D03*
D45*
X009892Y011759D03*
X010509Y011759D03*
D46*
X010509Y011759D03*
D47*
X009892Y011759D03*
D48*
X010509Y011760D03*
D49*
X009892Y011760D03*
D50*
X010509Y011760D03*
D51*
X010509Y011989D03*
X009892Y011760D03*
D52*
X010509Y011761D03*
X010509Y011989D03*
D53*
X009892Y011761D03*
D54*
X010509Y011761D03*
D55*
X009892Y011761D03*
X009892Y011991D03*
D56*
X010509Y011988D03*
X010509Y011762D03*
D57*
X009892Y011762D03*
D58*
X009892Y011763D03*
X009892Y011990D03*
X010509Y011763D03*
D59*
X010509Y011763D03*
D60*
X010509Y011987D03*
X009892Y011763D03*
D61*
X009892Y011764D03*
X010509Y011764D03*
X010509Y011986D03*
D62*
X010509Y011764D03*
D63*
X009892Y011764D03*
X009892Y011989D03*
D64*
X009892Y011988D03*
X009892Y011764D03*
X010509Y011764D03*
D65*
X010509Y011765D03*
D66*
X010509Y011985D03*
X009892Y011989D03*
X009892Y011765D03*
D67*
X010509Y011765D03*
D68*
X009892Y011765D03*
X009892Y011987D03*
D69*
X010509Y011984D03*
X010509Y011766D03*
D70*
X009892Y011766D03*
X009892Y011988D03*
D71*
X010509Y011983D03*
X010509Y011768D03*
X010509Y011766D03*
D72*
X010509Y011984D03*
X009892Y011986D03*
X009892Y011766D03*
D73*
X010509Y011767D03*
X010509Y011983D03*
D74*
X009892Y011985D03*
X009892Y011767D03*
D75*
X009892Y011768D03*
X009892Y011986D03*
D76*
X010509Y011982D03*
X010509Y011768D03*
D77*
X009892Y011768D03*
D78*
X009892Y011769D03*
X009892Y011769D03*
X009892Y011984D03*
X009892Y011984D03*
X010509Y011981D03*
X010509Y011981D03*
X010509Y011769D03*
X010509Y011769D03*
D79*
X010509Y011769D03*
D80*
X010509Y011980D03*
X009892Y011984D03*
X009892Y011769D03*
D81*
X010509Y011770D03*
X010509Y011980D03*
D82*
X009892Y011770D03*
D83*
X009892Y011770D03*
X009892Y011772D03*
X009892Y011980D03*
X009892Y011982D03*
X010509Y011979D03*
X010509Y011978D03*
X010509Y011772D03*
X010509Y011770D03*
D84*
X010509Y011771D03*
X010509Y011771D03*
X010509Y011978D03*
X010509Y011979D03*
X010509Y011979D03*
X009892Y011981D03*
X009892Y011981D03*
X009892Y011983D03*
X009892Y011773D03*
X009892Y011771D03*
X009892Y011771D03*
D85*
X010509Y011773D03*
X010509Y011774D03*
X010509Y011774D03*
X010509Y011775D03*
X010509Y011776D03*
X010509Y011776D03*
X010509Y011778D03*
X010509Y011779D03*
X010509Y011779D03*
X010509Y011780D03*
X010509Y011781D03*
X010509Y011781D03*
X010509Y011783D03*
X010509Y011784D03*
X010509Y011784D03*
X010509Y011785D03*
X010509Y011786D03*
X010509Y011786D03*
X010509Y011788D03*
X010509Y011789D03*
X010509Y011789D03*
X010509Y011790D03*
X010509Y011791D03*
X010509Y011791D03*
X010509Y011793D03*
X010509Y011794D03*
X010509Y011794D03*
X010509Y011795D03*
X010509Y011796D03*
X010509Y011796D03*
X010509Y011798D03*
X010509Y011799D03*
X010509Y011799D03*
X010509Y011800D03*
X010509Y011801D03*
X010509Y011801D03*
X010509Y011803D03*
X010509Y011804D03*
X010509Y011804D03*
X010509Y011805D03*
X010509Y011806D03*
X010509Y011806D03*
X010509Y011808D03*
X010509Y011809D03*
X010509Y011809D03*
X010509Y011810D03*
X010509Y011811D03*
X010509Y011811D03*
X010509Y011813D03*
X010509Y011814D03*
X010509Y011814D03*
X010509Y011815D03*
X010509Y011816D03*
X010509Y011816D03*
X010509Y011818D03*
X010509Y011819D03*
X010509Y011819D03*
X010509Y011820D03*
X010509Y011821D03*
X010509Y011821D03*
X010509Y011823D03*
X010509Y011824D03*
X010509Y011824D03*
X010509Y011825D03*
X010509Y011826D03*
X010509Y011826D03*
X010509Y011828D03*
X010509Y011829D03*
X010509Y011829D03*
X010509Y011830D03*
X010509Y011831D03*
X010509Y011831D03*
X010509Y011833D03*
X010509Y011834D03*
X010509Y011834D03*
X010509Y011835D03*
X010509Y011836D03*
X010509Y011836D03*
X010509Y011838D03*
X010509Y011839D03*
X010509Y011839D03*
X010509Y011840D03*
X010509Y011841D03*
X010509Y011841D03*
X010509Y011843D03*
X010509Y011844D03*
X010509Y011844D03*
X010509Y011845D03*
X010509Y011846D03*
X010509Y011846D03*
X010509Y011848D03*
X010509Y011849D03*
X010509Y011849D03*
X010509Y011850D03*
X010509Y011851D03*
X010509Y011851D03*
X010509Y011853D03*
X010509Y011854D03*
X010509Y011854D03*
X010509Y011855D03*
X010509Y011856D03*
X010509Y011856D03*
X010509Y011858D03*
X010509Y011859D03*
X010509Y011859D03*
X010509Y011860D03*
X010509Y011861D03*
X010509Y011861D03*
X010509Y011863D03*
X010509Y011864D03*
X010509Y011864D03*
X010509Y011865D03*
X010509Y011866D03*
X010509Y011866D03*
X010509Y011868D03*
X010509Y011869D03*
X010509Y011869D03*
X010509Y011870D03*
X010509Y011871D03*
X010509Y011871D03*
X010509Y011873D03*
X010509Y011874D03*
X010509Y011874D03*
X010509Y011875D03*
X010509Y011876D03*
X010509Y011876D03*
X010509Y011878D03*
X010509Y011879D03*
X010509Y011879D03*
X010509Y011880D03*
X010509Y011881D03*
X010509Y011881D03*
X010509Y011883D03*
X010509Y011884D03*
X010509Y011884D03*
X010509Y011885D03*
X010509Y011886D03*
X010509Y011886D03*
X010509Y011888D03*
X010509Y011889D03*
X010509Y011889D03*
X010509Y011890D03*
X010509Y011891D03*
X010509Y011891D03*
X010509Y011893D03*
X010509Y011894D03*
X010509Y011894D03*
X010509Y011895D03*
X010509Y011896D03*
X010509Y011896D03*
X010509Y011898D03*
X010509Y011899D03*
X010509Y011899D03*
X010509Y011900D03*
X010509Y011901D03*
X010509Y011901D03*
X010509Y011903D03*
X010509Y011904D03*
X010509Y011904D03*
X010509Y011905D03*
X010509Y011906D03*
X010509Y011906D03*
X010509Y011908D03*
X010509Y011909D03*
X010509Y011909D03*
X010509Y011910D03*
X010509Y011911D03*
X010509Y011911D03*
X010509Y011913D03*
X010509Y011914D03*
X010509Y011914D03*
X010509Y011915D03*
X010509Y011916D03*
X010509Y011916D03*
X010509Y011918D03*
X010509Y011919D03*
X010509Y011919D03*
X010509Y011920D03*
X010509Y011921D03*
X010509Y011921D03*
X010509Y011923D03*
X010509Y011924D03*
X010509Y011924D03*
X010509Y011925D03*
X010509Y011926D03*
X010509Y011926D03*
X010509Y011928D03*
X010509Y011929D03*
X010509Y011929D03*
X010509Y011930D03*
X010509Y011931D03*
X010509Y011931D03*
X010509Y011933D03*
X010509Y011934D03*
X010509Y011934D03*
X010509Y011935D03*
X010509Y011936D03*
X010509Y011936D03*
X010509Y011938D03*
X010509Y011939D03*
X010509Y011939D03*
X010509Y011940D03*
X010509Y011941D03*
X010509Y011941D03*
X010509Y011943D03*
X010509Y011944D03*
X010509Y011944D03*
X010509Y011945D03*
X010509Y011946D03*
X010509Y011946D03*
X010509Y011948D03*
X010509Y011949D03*
X010509Y011949D03*
X010509Y011950D03*
X010509Y011951D03*
X010509Y011951D03*
X010509Y011953D03*
X010509Y011954D03*
X010509Y011954D03*
X010509Y011955D03*
X010509Y011956D03*
X010509Y011956D03*
X010509Y011958D03*
X010509Y011959D03*
X010509Y011959D03*
X010509Y011960D03*
X010509Y011961D03*
X010509Y011961D03*
X010509Y011963D03*
X010509Y011964D03*
X010509Y011964D03*
X010509Y011965D03*
X010509Y011966D03*
X010509Y011966D03*
X010509Y011968D03*
X010509Y011969D03*
X010509Y011969D03*
X010509Y011970D03*
X010509Y011971D03*
X010509Y011971D03*
X010509Y011973D03*
X010509Y011974D03*
X010509Y011974D03*
X010509Y011975D03*
X010509Y011976D03*
X010509Y011976D03*
D86*
X010509Y011975D03*
X010509Y011974D03*
X010509Y011973D03*
X010509Y011972D03*
X010509Y011970D03*
X010509Y011969D03*
X010509Y011968D03*
X010509Y011967D03*
X010509Y011965D03*
X010509Y011964D03*
X010509Y011963D03*
X010509Y011962D03*
X010509Y011960D03*
X010509Y011959D03*
X010509Y011958D03*
X010509Y011957D03*
X010509Y011955D03*
X010509Y011954D03*
X010509Y011953D03*
X010509Y011952D03*
X010509Y011950D03*
X010509Y011949D03*
X010509Y011948D03*
X010509Y011947D03*
X010509Y011945D03*
X010509Y011944D03*
X010509Y011943D03*
X010509Y011942D03*
X010509Y011940D03*
X010509Y011939D03*
X010509Y011938D03*
X010509Y011937D03*
X010509Y011935D03*
X010509Y011934D03*
X010509Y011933D03*
X010509Y011932D03*
X010509Y011930D03*
X010509Y011929D03*
X010509Y011928D03*
X010509Y011927D03*
X010509Y011925D03*
X010509Y011924D03*
X010509Y011923D03*
X010509Y011922D03*
X010509Y011920D03*
X010509Y011919D03*
X010509Y011918D03*
X010509Y011917D03*
X010509Y011915D03*
X010509Y011914D03*
X010509Y011913D03*
X010509Y011912D03*
X010509Y011910D03*
X010509Y011909D03*
X010509Y011908D03*
X010509Y011907D03*
X010509Y011905D03*
X010509Y011904D03*
X010509Y011903D03*
X010509Y011902D03*
X010509Y011900D03*
X010509Y011899D03*
X010509Y011898D03*
X010509Y011897D03*
X010509Y011895D03*
X010509Y011894D03*
X010509Y011893D03*
X010509Y011892D03*
X010509Y011890D03*
X010509Y011889D03*
X010509Y011888D03*
X010509Y011887D03*
X010509Y011885D03*
X010509Y011884D03*
X010509Y011883D03*
X010509Y011882D03*
X010509Y011880D03*
X010509Y011879D03*
X010509Y011878D03*
X010509Y011877D03*
X010509Y011875D03*
X010509Y011874D03*
X010509Y011873D03*
X010509Y011872D03*
X010509Y011870D03*
X010509Y011869D03*
X010509Y011868D03*
X010509Y011867D03*
X010509Y011865D03*
X010509Y011864D03*
X010509Y011863D03*
X010509Y011862D03*
X010509Y011860D03*
X010509Y011859D03*
X010509Y011858D03*
X010509Y011857D03*
X010509Y011855D03*
X010509Y011854D03*
X010509Y011853D03*
X010509Y011852D03*
X010509Y011850D03*
X010509Y011849D03*
X010509Y011848D03*
X010509Y011847D03*
X010509Y011845D03*
X010509Y011844D03*
X010509Y011843D03*
X010509Y011842D03*
X010509Y011840D03*
X010509Y011839D03*
X010509Y011838D03*
X010509Y011837D03*
X010509Y011835D03*
X010509Y011834D03*
X010509Y011833D03*
X010509Y011832D03*
X010509Y011830D03*
X010509Y011829D03*
X010509Y011828D03*
X010509Y011827D03*
X010509Y011825D03*
X010509Y011824D03*
X010509Y011823D03*
X010509Y011822D03*
X010509Y011820D03*
X010509Y011819D03*
X010509Y011818D03*
X010509Y011817D03*
X010509Y011815D03*
X010509Y011814D03*
X010509Y011813D03*
X010509Y011812D03*
X010509Y011810D03*
X010509Y011809D03*
X010509Y011808D03*
X010509Y011807D03*
X010509Y011805D03*
X010509Y011804D03*
X010509Y011803D03*
X010509Y011802D03*
X010509Y011800D03*
X010509Y011799D03*
X010509Y011798D03*
X010509Y011797D03*
X010509Y011795D03*
X010509Y011794D03*
X010509Y011793D03*
X010509Y011792D03*
X010509Y011790D03*
X010509Y011789D03*
X010509Y011788D03*
X010509Y011787D03*
X010509Y011785D03*
X010509Y011784D03*
X010509Y011783D03*
X010509Y011782D03*
X010509Y011780D03*
X010509Y011779D03*
X010509Y011778D03*
X010509Y011777D03*
X010509Y011775D03*
X010509Y011774D03*
X010509Y011773D03*
X010509Y011977D03*
D87*
X009892Y011978D03*
X009892Y011977D03*
X009892Y011975D03*
X009892Y011974D03*
X009892Y011973D03*
X009892Y011972D03*
X009892Y011970D03*
X009892Y011969D03*
X009892Y011968D03*
X009892Y011967D03*
X009892Y011965D03*
X009892Y011964D03*
X009892Y011963D03*
X009892Y011962D03*
X009892Y011960D03*
X009892Y011959D03*
X009892Y011958D03*
X009892Y011957D03*
X009892Y011955D03*
X009892Y011954D03*
X009892Y011953D03*
X009892Y011952D03*
X009892Y011950D03*
X009892Y011949D03*
X009892Y011948D03*
X009892Y011947D03*
X009892Y011945D03*
X009892Y011944D03*
X009892Y011943D03*
X009892Y011942D03*
X009892Y011940D03*
X009892Y011939D03*
X009892Y011938D03*
X009892Y011937D03*
X009892Y011935D03*
X009892Y011934D03*
X009892Y011933D03*
X009892Y011932D03*
X009892Y011930D03*
X009892Y011929D03*
X009892Y011928D03*
X009892Y011927D03*
X009892Y011925D03*
X009892Y011924D03*
X009892Y011923D03*
X009892Y011922D03*
X009892Y011920D03*
X009892Y011919D03*
X009892Y011918D03*
X009892Y011917D03*
X009892Y011915D03*
X009892Y011914D03*
X009892Y011913D03*
X009892Y011912D03*
X009892Y011910D03*
X009892Y011909D03*
X009892Y011908D03*
X009892Y011907D03*
X009892Y011905D03*
X009892Y011904D03*
X009892Y011903D03*
X009892Y011902D03*
X009892Y011900D03*
X009892Y011899D03*
X009892Y011898D03*
X009892Y011897D03*
X009892Y011895D03*
X009892Y011894D03*
X009892Y011893D03*
X009892Y011892D03*
X009892Y011890D03*
X009892Y011889D03*
X009892Y011888D03*
X009892Y011887D03*
X009892Y011885D03*
X009892Y011884D03*
X009892Y011883D03*
X009892Y011882D03*
X009892Y011880D03*
X009892Y011879D03*
X009892Y011878D03*
X009892Y011877D03*
X009892Y011875D03*
X009892Y011874D03*
X009892Y011873D03*
X009892Y011872D03*
X009892Y011870D03*
X009892Y011869D03*
X009892Y011868D03*
X009892Y011867D03*
X009892Y011865D03*
X009892Y011864D03*
X009892Y011863D03*
X009892Y011862D03*
X009892Y011860D03*
X009892Y011859D03*
X009892Y011858D03*
X009892Y011857D03*
X009892Y011855D03*
X009892Y011854D03*
X009892Y011853D03*
X009892Y011852D03*
X009892Y011850D03*
X009892Y011849D03*
X009892Y011848D03*
X009892Y011847D03*
X009892Y011845D03*
X009892Y011844D03*
X009892Y011843D03*
X009892Y011842D03*
X009892Y011840D03*
X009892Y011839D03*
X009892Y011838D03*
X009892Y011837D03*
X009892Y011835D03*
X009892Y011834D03*
X009892Y011833D03*
X009892Y011832D03*
X009892Y011830D03*
X009892Y011829D03*
X009892Y011828D03*
X009892Y011827D03*
X009892Y011825D03*
X009892Y011824D03*
X009892Y011823D03*
X009892Y011822D03*
X009892Y011820D03*
X009892Y011819D03*
X009892Y011818D03*
X009892Y011817D03*
X009892Y011815D03*
X009892Y011814D03*
X009892Y011813D03*
X009892Y011812D03*
X009892Y011810D03*
X009892Y011809D03*
X009892Y011808D03*
X009892Y011807D03*
X009892Y011805D03*
X009892Y011804D03*
X009892Y011803D03*
X009892Y011802D03*
X009892Y011800D03*
X009892Y011799D03*
X009892Y011798D03*
X009892Y011797D03*
X009892Y011795D03*
X009892Y011794D03*
X009892Y011793D03*
X009892Y011792D03*
X009892Y011790D03*
X009892Y011789D03*
X009892Y011788D03*
X009892Y011787D03*
X009892Y011785D03*
X009892Y011784D03*
X009892Y011783D03*
X009892Y011782D03*
X009892Y011780D03*
X009892Y011779D03*
X009892Y011778D03*
X009892Y011777D03*
X009892Y011775D03*
X009892Y011774D03*
X009892Y011773D03*
X009892Y011979D03*
D88*
X009892Y011979D03*
X009892Y011979D03*
X009892Y011980D03*
X009892Y011978D03*
X009892Y011976D03*
X009892Y011976D03*
X009892Y011975D03*
X009892Y011974D03*
X009892Y011974D03*
X009892Y011973D03*
X009892Y011971D03*
X009892Y011971D03*
X009892Y011970D03*
X009892Y011969D03*
X009892Y011969D03*
X009892Y011968D03*
X009892Y011966D03*
X009892Y011966D03*
X009892Y011965D03*
X009892Y011964D03*
X009892Y011964D03*
X009892Y011963D03*
X009892Y011961D03*
X009892Y011961D03*
X009892Y011960D03*
X009892Y011959D03*
X009892Y011959D03*
X009892Y011958D03*
X009892Y011956D03*
X009892Y011956D03*
X009892Y011955D03*
X009892Y011954D03*
X009892Y011954D03*
X009892Y011953D03*
X009892Y011951D03*
X009892Y011951D03*
X009892Y011950D03*
X009892Y011949D03*
X009892Y011949D03*
X009892Y011948D03*
X009892Y011946D03*
X009892Y011946D03*
X009892Y011945D03*
X009892Y011944D03*
X009892Y011944D03*
X009892Y011943D03*
X009892Y011941D03*
X009892Y011941D03*
X009892Y011940D03*
X009892Y011939D03*
X009892Y011939D03*
X009892Y011938D03*
X009892Y011936D03*
X009892Y011936D03*
X009892Y011935D03*
X009892Y011934D03*
X009892Y011934D03*
X009892Y011933D03*
X009892Y011931D03*
X009892Y011931D03*
X009892Y011930D03*
X009892Y011929D03*
X009892Y011929D03*
X009892Y011928D03*
X009892Y011926D03*
X009892Y011926D03*
X009892Y011925D03*
X009892Y011924D03*
X009892Y011924D03*
X009892Y011923D03*
X009892Y011921D03*
X009892Y011921D03*
X009892Y011920D03*
X009892Y011919D03*
X009892Y011919D03*
X009892Y011918D03*
X009892Y011916D03*
X009892Y011916D03*
X009892Y011915D03*
X009892Y011914D03*
X009892Y011914D03*
X009892Y011913D03*
X009892Y011911D03*
X009892Y011911D03*
X009892Y011910D03*
X009892Y011909D03*
X009892Y011909D03*
X009892Y011908D03*
X009892Y011906D03*
X009892Y011906D03*
X009892Y011905D03*
X009892Y011904D03*
X009892Y011904D03*
X009892Y011903D03*
X009892Y011901D03*
X009892Y011901D03*
X009892Y011900D03*
X009892Y011899D03*
X009892Y011899D03*
X009892Y011898D03*
X009892Y011896D03*
X009892Y011896D03*
X009892Y011895D03*
X009892Y011894D03*
X009892Y011894D03*
X009892Y011893D03*
X009892Y011891D03*
X009892Y011891D03*
X009892Y011890D03*
X009892Y011889D03*
X009892Y011889D03*
X009892Y011888D03*
X009892Y011886D03*
X009892Y011886D03*
X009892Y011885D03*
X009892Y011884D03*
X009892Y011884D03*
X009892Y011883D03*
X009892Y011881D03*
X009892Y011881D03*
X009892Y011880D03*
X009892Y011879D03*
X009892Y011879D03*
X009892Y011878D03*
X009892Y011876D03*
X009892Y011876D03*
X009892Y011875D03*
X009892Y011874D03*
X009892Y011874D03*
X009892Y011873D03*
X009892Y011871D03*
X009892Y011871D03*
X009892Y011870D03*
X009892Y011869D03*
X009892Y011869D03*
X009892Y011868D03*
X009892Y011866D03*
X009892Y011866D03*
X009892Y011865D03*
X009892Y011864D03*
X009892Y011864D03*
X009892Y011863D03*
X009892Y011861D03*
X009892Y011861D03*
X009892Y011860D03*
X009892Y011859D03*
X009892Y011859D03*
X009892Y011858D03*
X009892Y011856D03*
X009892Y011856D03*
X009892Y011855D03*
X009892Y011854D03*
X009892Y011854D03*
X009892Y011853D03*
X009892Y011851D03*
X009892Y011851D03*
X009892Y011850D03*
X009892Y011849D03*
X009892Y011849D03*
X009892Y011848D03*
X009892Y011846D03*
X009892Y011846D03*
X009892Y011845D03*
X009892Y011844D03*
X009892Y011844D03*
X009892Y011843D03*
X009892Y011841D03*
X009892Y011841D03*
X009892Y011840D03*
X009892Y011839D03*
X009892Y011839D03*
X009892Y011838D03*
X009892Y011836D03*
X009892Y011836D03*
X009892Y011835D03*
X009892Y011834D03*
X009892Y011834D03*
X009892Y011833D03*
X009892Y011831D03*
X009892Y011831D03*
X009892Y011830D03*
X009892Y011829D03*
X009892Y011829D03*
X009892Y011828D03*
X009892Y011826D03*
X009892Y011826D03*
X009892Y011825D03*
X009892Y011824D03*
X009892Y011824D03*
X009892Y011823D03*
X009892Y011821D03*
X009892Y011821D03*
X009892Y011820D03*
X009892Y011819D03*
X009892Y011819D03*
X009892Y011818D03*
X009892Y011816D03*
X009892Y011816D03*
X009892Y011815D03*
X009892Y011814D03*
X009892Y011814D03*
X009892Y011813D03*
X009892Y011811D03*
X009892Y011811D03*
X009892Y011810D03*
X009892Y011809D03*
X009892Y011809D03*
X009892Y011808D03*
X009892Y011806D03*
X009892Y011806D03*
X009892Y011805D03*
X009892Y011804D03*
X009892Y011804D03*
X009892Y011803D03*
X009892Y011801D03*
X009892Y011801D03*
X009892Y011800D03*
X009892Y011799D03*
X009892Y011799D03*
X009892Y011798D03*
X009892Y011796D03*
X009892Y011796D03*
X009892Y011795D03*
X009892Y011794D03*
X009892Y011794D03*
X009892Y011793D03*
X009892Y011791D03*
X009892Y011791D03*
X009892Y011790D03*
X009892Y011789D03*
X009892Y011789D03*
X009892Y011788D03*
X009892Y011786D03*
X009892Y011786D03*
X009892Y011785D03*
X009892Y011784D03*
X009892Y011784D03*
X009892Y011783D03*
X009892Y011781D03*
X009892Y011781D03*
X009892Y011780D03*
X009892Y011779D03*
X009892Y011779D03*
X009892Y011778D03*
X009892Y011776D03*
X009892Y011776D03*
X009892Y011775D03*
X009892Y011774D03*
X009892Y011774D03*
D89*
X009892Y011983D03*
D90*
X010509Y011984D03*
D91*
X009892Y011985D03*
D92*
X010509Y011985D03*
D93*
X010509Y011986D03*
D94*
X010509Y011988D03*
D95*
X010509Y011989D03*
D96*
X009892Y011989D03*
D97*
X010509Y011990D03*
D98*
X010509Y011990D03*
D99*
X009892Y011990D03*
D100*
X010509Y011991D03*
D101*
X009892Y011991D03*
D102*
X010509Y011991D03*
D103*
X010509Y011992D03*
D104*
X009892Y011992D03*
D105*
X010509Y011993D03*
D106*
X009892Y011993D03*
D107*
X010509Y011993D03*
D108*
X009892Y011993D03*
D109*
X010509Y011994D03*
D110*
X009892Y011994D03*
D111*
X010509Y011994D03*
D112*
X009892Y011994D03*
D113*
X010509Y011994D03*
D114*
X009892Y011994D03*
D115*
X010509Y011995D03*
D116*
X009892Y011995D03*
D117*
X010509Y011995D03*
D118*
X009892Y011995D03*
D119*
X010509Y011996D03*
D120*
X009892Y011996D03*
D121*
X010509Y011996D03*
D122*
X010509Y011997D03*
D123*
X009892Y011997D03*
D124*
X010509Y011998D03*
D125*
X009892Y011998D03*
D126*
X010509Y011998D03*
D127*
X009892Y011998D03*
D128*
X010509Y011999D03*
D129*
X009892Y011999D03*
D130*
X010509Y011999D03*
D131*
X010509Y011999D03*
D132*
X009892Y011999D03*
D133*
X010507Y012000D03*
D134*
X009892Y012000D03*
D135*
X010508Y012000D03*
X010508Y012002D03*
D136*
X009892Y012000D03*
D137*
X010508Y012001D03*
X010508Y012001D03*
D138*
X009892Y012001D03*
D139*
X009892Y012002D03*
D140*
X010508Y012003D03*
X010508Y012004D03*
D141*
X009892Y012003D03*
D142*
X010508Y012003D03*
D143*
X009892Y012003D03*
D144*
X009888Y012004D03*
X009888Y012004D03*
X009888Y012005D03*
D145*
X010508Y012005D03*
X010508Y012004D03*
D146*
X010508Y012004D03*
X010508Y012005D03*
D147*
X009888Y012004D03*
D148*
X009888Y012005D03*
X009888Y012007D03*
X010517Y012064D03*
D149*
X010508Y012006D03*
X010508Y012006D03*
D150*
X010517Y012064D03*
X010517Y012064D03*
X010517Y012065D03*
X009888Y012006D03*
X009888Y012006D03*
D151*
X010508Y012007D03*
D152*
X010509Y012008D03*
X010509Y012009D03*
D153*
X009888Y012009D03*
X009888Y012009D03*
X009888Y012008D03*
D154*
X010509Y012008D03*
D155*
X009888Y012008D03*
D156*
X010509Y012009D03*
X010509Y012010D03*
D157*
X010509Y012010D03*
X010509Y012009D03*
D158*
X010517Y012067D03*
X010517Y012068D03*
X009887Y012010D03*
X009887Y012009D03*
D159*
X009887Y012010D03*
X009887Y012011D03*
X010517Y012068D03*
D160*
X010509Y012011D03*
X010509Y012011D03*
D161*
X010518Y012069D03*
X010518Y012069D03*
X010518Y012070D03*
X009887Y012014D03*
X009887Y012013D03*
X009887Y012011D03*
D162*
X010509Y012012D03*
D163*
X010518Y012069D03*
X009887Y012013D03*
X009887Y012012D03*
D164*
X010509Y012013D03*
X010509Y012014D03*
X010509Y012014D03*
D165*
X010509Y012013D03*
D166*
X009887Y012014D03*
X009887Y012015D03*
D167*
X010510Y012015D03*
X010510Y012014D03*
D168*
X009887Y012014D03*
X009887Y012015D03*
D169*
X010510Y012015D03*
D170*
X010510Y012016D03*
X010510Y012016D03*
D171*
X010518Y012073D03*
X010518Y012074D03*
X009887Y012018D03*
X009887Y012016D03*
X009887Y012016D03*
D172*
X010510Y012017D03*
D173*
X010518Y012072D03*
X010518Y012073D03*
X009887Y012017D03*
D174*
X010510Y012018D03*
X010510Y012019D03*
X010510Y012019D03*
D175*
X010510Y012018D03*
D176*
X009886Y012018D03*
X009886Y012019D03*
D177*
X009886Y012019D03*
X009886Y012019D03*
D178*
X010510Y012019D03*
X010510Y012020D03*
D179*
X010510Y012020D03*
D180*
X010519Y012076D03*
X010519Y012076D03*
X009886Y012021D03*
X009886Y012021D03*
X009886Y012020D03*
D181*
X009886Y012020D03*
X010519Y012075D03*
D182*
X010511Y012023D03*
X010511Y012021D03*
X010511Y012021D03*
D183*
X010511Y012022D03*
D184*
X010519Y012077D03*
X010519Y012078D03*
X009886Y012023D03*
X009886Y012022D03*
D185*
X009886Y012023D03*
X009886Y012024D03*
X010519Y012078D03*
X010519Y012079D03*
D186*
X010511Y012023D03*
D187*
X010511Y012024D03*
X010511Y012024D03*
D188*
X009886Y012025D03*
X009886Y012026D03*
X009886Y012024D03*
D189*
X010511Y012024D03*
X010511Y012025D03*
D190*
X009886Y012025D03*
X009886Y012024D03*
D191*
X010511Y012025D03*
D192*
X010511Y012026D03*
X010511Y012026D03*
X010511Y012028D03*
D193*
X010519Y012081D03*
X010519Y012081D03*
X009885Y012028D03*
X009885Y012026D03*
D194*
X010511Y012027D03*
D195*
X010519Y012080D03*
X010519Y012082D03*
X009885Y012028D03*
X009885Y012027D03*
D196*
X010511Y012028D03*
D197*
X010511Y012029D03*
X010511Y012029D03*
D198*
X009885Y012030D03*
X009885Y012029D03*
X009885Y012029D03*
D199*
X010512Y012029D03*
X010512Y012030D03*
D200*
X009885Y012029D03*
D201*
X010512Y012030D03*
X010512Y012031D03*
D202*
X010520Y012084D03*
X009885Y012032D03*
X009885Y012030D03*
D203*
X009885Y012031D03*
X009885Y012031D03*
X010520Y012084D03*
X010520Y012085D03*
D204*
X010512Y012033D03*
X010512Y012031D03*
D205*
X010512Y012032D03*
D206*
X010520Y012086D03*
X010520Y012086D03*
X009885Y012034D03*
X009885Y012034D03*
X009885Y012033D03*
D207*
X010512Y012033D03*
D208*
X010520Y012085D03*
X010520Y012087D03*
X009885Y012033D03*
D209*
X010512Y012034D03*
X010512Y012034D03*
D210*
X010513Y012034D03*
X010513Y012035D03*
D211*
X009884Y012035D03*
X009884Y012034D03*
D212*
X010513Y012035D03*
X010513Y012036D03*
D213*
X009884Y012036D03*
X009884Y012035D03*
D214*
X010513Y012036D03*
X010513Y012038D03*
D215*
X010521Y012089D03*
X010521Y012090D03*
X009884Y012039D03*
X009884Y012038D03*
X009884Y012036D03*
D216*
X010513Y012037D03*
D217*
X010521Y012089D03*
X010521Y012090D03*
X009884Y012038D03*
X009884Y012037D03*
D218*
X010513Y012038D03*
X010513Y012039D03*
D219*
X010513Y012039D03*
X010513Y012039D03*
D220*
X009884Y012040D03*
X009884Y012039D03*
D221*
X009884Y012039D03*
X009884Y012040D03*
D222*
X010513Y012041D03*
X010513Y012040D03*
D223*
X010513Y012040D03*
D224*
X010521Y012093D03*
X010521Y012094D03*
X009884Y012043D03*
X009884Y012041D03*
X009884Y012041D03*
D225*
X010514Y012041D03*
X010514Y012043D03*
D226*
X010514Y012042D03*
D227*
X010521Y012093D03*
X009884Y012042D03*
D228*
X010514Y012043D03*
X010514Y012044D03*
D229*
X010521Y012094D03*
X010521Y012095D03*
X009883Y012044D03*
X009883Y012043D03*
D230*
X010514Y012044D03*
X010514Y012044D03*
D231*
X010521Y012094D03*
X010521Y012095D03*
X009883Y012044D03*
X009883Y012044D03*
D232*
X010514Y012045D03*
X010514Y012046D03*
D233*
X009883Y012046D03*
X009883Y012046D03*
X009883Y012045D03*
D234*
X010514Y012045D03*
D235*
X009883Y012045D03*
D236*
X010514Y012046D03*
X010514Y012048D03*
D237*
X010514Y012048D03*
X010514Y012047D03*
D238*
X010522Y012098D03*
X009883Y012048D03*
X009883Y012047D03*
D239*
X009883Y012048D03*
X009883Y012049D03*
X010522Y012098D03*
X010522Y012099D03*
X010522Y012099D03*
D240*
X010515Y012049D03*
X010515Y012049D03*
D241*
X009883Y012050D03*
X009883Y012051D03*
X009883Y012049D03*
D242*
X010515Y012049D03*
D243*
X009883Y012049D03*
X009883Y012050D03*
D244*
X010515Y012051D03*
X010515Y012050D03*
D245*
X010515Y012050D03*
D246*
X010515Y012051D03*
X010515Y012053D03*
D247*
X010522Y012101D03*
X010522Y012101D03*
X009882Y012053D03*
X009882Y012051D03*
D248*
X010515Y012052D03*
X010515Y012053D03*
D249*
X010522Y012102D03*
X009882Y012053D03*
X009882Y012052D03*
D250*
X010515Y012054D03*
X010515Y012054D03*
D251*
X010523Y012103D03*
X010523Y012104D03*
X010523Y012104D03*
X009882Y012055D03*
X009882Y012054D03*
X009882Y012054D03*
D252*
X010515Y012054D03*
D253*
X010523Y012103D03*
X009882Y012054D03*
D254*
X010516Y012055D03*
X010516Y012056D03*
X010516Y012056D03*
D255*
X010516Y012055D03*
D256*
X009882Y012055D03*
X009882Y012057D03*
D257*
X009882Y012056D03*
X009882Y012056D03*
D258*
X010516Y012057D03*
X010516Y012058D03*
D259*
X010516Y012058D03*
D260*
X010523Y012106D03*
X010523Y012106D03*
X010523Y012108D03*
X009882Y012059D03*
X009882Y012059D03*
X009882Y012058D03*
D261*
X009882Y012058D03*
X010523Y012107D03*
D262*
X010516Y012059D03*
X010516Y012059D03*
D263*
X010516Y012059D03*
D264*
X009881Y012059D03*
X009881Y012060D03*
D265*
X010516Y012061D03*
X010516Y012061D03*
X010516Y012060D03*
D266*
X009881Y012061D03*
X009881Y012060D03*
D267*
X010516Y012060D03*
D268*
X010524Y012110D03*
X010524Y012111D03*
X009881Y012064D03*
X009881Y012063D03*
X009881Y012061D03*
D269*
X010516Y012062D03*
X010516Y012063D03*
D270*
X010524Y012109D03*
X010524Y012110D03*
X009881Y012063D03*
X009881Y012062D03*
D271*
X010516Y012063D03*
D272*
X010524Y012111D03*
X010524Y012113D03*
X009881Y012065D03*
X009881Y012064D03*
D273*
X009881Y012064D03*
X009881Y012065D03*
X010524Y012112D03*
D274*
X010517Y012065D03*
D275*
X010517Y012066D03*
X010517Y012066D03*
D276*
X009881Y012066D03*
X009881Y012066D03*
X009881Y012068D03*
D277*
X009881Y012067D03*
D278*
X009880Y012068D03*
X009880Y012069D03*
X010524Y012114D03*
X010524Y012115D03*
D279*
X010524Y012115D03*
X010524Y012116D03*
X009880Y012069D03*
X009880Y012069D03*
D280*
X009880Y012070D03*
X009880Y012071D03*
X009880Y012071D03*
D281*
X010518Y012070D03*
D282*
X009880Y012070D03*
D283*
X010518Y012071D03*
X010518Y012071D03*
D284*
X010525Y012118D03*
X010525Y012119D03*
X009880Y012073D03*
X009880Y012072D03*
D285*
X009880Y012073D03*
X009880Y012074D03*
X010525Y012119D03*
X010525Y012119D03*
D286*
X010518Y012075D03*
X010518Y012074D03*
D287*
X010525Y012120D03*
X010525Y012121D03*
X009880Y012076D03*
X009880Y012075D03*
X009880Y012074D03*
D288*
X010518Y012074D03*
D289*
X010525Y012120D03*
X009880Y012075D03*
X009880Y012074D03*
D290*
X009879Y012076D03*
X009879Y012078D03*
D291*
X009879Y012078D03*
X009879Y012077D03*
D292*
X009879Y012079D03*
X009879Y012079D03*
X009879Y012080D03*
X010526Y012124D03*
X010526Y012124D03*
D293*
X010519Y012080D03*
X010519Y012079D03*
D294*
X010519Y012079D03*
D295*
X010526Y012123D03*
X010526Y012124D03*
X009879Y012079D03*
D296*
X009879Y012080D03*
X009879Y012082D03*
D297*
X009879Y012081D03*
X009879Y012081D03*
D298*
X010520Y012083D03*
X010520Y012084D03*
D299*
X010526Y012126D03*
X010526Y012128D03*
X009879Y012084D03*
X009879Y012084D03*
X009879Y012083D03*
D300*
X010520Y012083D03*
D301*
X010526Y012127D03*
X010526Y012128D03*
X009879Y012083D03*
D302*
X009878Y012084D03*
X009878Y012085D03*
X010526Y012129D03*
D303*
X010526Y012129D03*
X010526Y012129D03*
X009878Y012086D03*
X009878Y012085D03*
D304*
X009878Y012086D03*
X009878Y012088D03*
X009878Y012089D03*
D305*
X009878Y012088D03*
X009878Y012087D03*
D306*
X010520Y012088D03*
X010520Y012089D03*
D307*
X010520Y012088D03*
D308*
X010527Y012131D03*
X010527Y012133D03*
X009878Y012090D03*
X009878Y012089D03*
D309*
X009878Y012089D03*
X009878Y012090D03*
X010527Y012132D03*
X010527Y012133D03*
D310*
X010521Y012091D03*
X010521Y012091D03*
D311*
X009878Y012091D03*
X009878Y012091D03*
X009878Y012093D03*
D312*
X010521Y012092D03*
D313*
X009878Y012092D03*
D314*
X009877Y012093D03*
X009877Y012094D03*
X010527Y012135D03*
D315*
X010527Y012135D03*
X010527Y012136D03*
X010527Y012136D03*
X009877Y012094D03*
X009877Y012094D03*
D316*
X009877Y012095D03*
X009877Y012096D03*
X009877Y012096D03*
X010528Y012138D03*
D317*
X010528Y012138D03*
X010528Y012137D03*
X009877Y012095D03*
D318*
X010521Y012096D03*
X010521Y012096D03*
D319*
X010521Y012097D03*
D320*
X009877Y012098D03*
X009877Y012097D03*
D321*
X009877Y012098D03*
X009877Y012099D03*
D322*
X009877Y012099D03*
X009877Y012100D03*
X009877Y012101D03*
X010528Y012140D03*
X010528Y012141D03*
X010528Y012141D03*
D323*
X010522Y012100D03*
X010522Y012099D03*
D324*
X010528Y012140D03*
X009877Y012100D03*
X009877Y012099D03*
D325*
X010522Y012100D03*
D326*
X009876Y012101D03*
X009876Y012103D03*
D327*
X009876Y012103D03*
X009876Y012102D03*
D328*
X009876Y012104D03*
X009876Y012104D03*
X009876Y012105D03*
X010529Y012144D03*
X010529Y012144D03*
X010529Y012145D03*
D329*
X010523Y012105D03*
X010523Y012104D03*
D330*
X010529Y012144D03*
X009876Y012104D03*
D331*
X010523Y012105D03*
D332*
X010529Y012145D03*
X009876Y012107D03*
X009876Y012105D03*
D333*
X009876Y012106D03*
X009876Y012106D03*
X010529Y012146D03*
X010529Y012146D03*
D334*
X009876Y012109D03*
X009876Y012109D03*
X009876Y012108D03*
D335*
X010523Y012108D03*
D336*
X009876Y012108D03*
D337*
X010523Y012109D03*
X010523Y012109D03*
D338*
X010529Y012149D03*
X009875Y012110D03*
X009875Y012109D03*
D339*
X009875Y012110D03*
X009875Y012111D03*
X010529Y012149D03*
X010529Y012149D03*
X010529Y012150D03*
D340*
X009875Y012114D03*
X009875Y012113D03*
X009875Y012111D03*
D341*
X009875Y012112D03*
X009875Y012113D03*
D342*
X010524Y012113D03*
D343*
X010524Y012114D03*
X010524Y012114D03*
D344*
X010530Y012153D03*
X010530Y012154D03*
X009875Y012115D03*
X009875Y012114D03*
D345*
X009875Y012114D03*
X009875Y012115D03*
X010530Y012152D03*
X010530Y012153D03*
D346*
X010530Y012154D03*
X010530Y012155D03*
X009875Y012118D03*
X009875Y012116D03*
X009875Y012116D03*
D347*
X010525Y012116D03*
X010525Y012118D03*
D348*
X010525Y012117D03*
D349*
X010530Y012154D03*
X009875Y012117D03*
D350*
X009874Y012118D03*
X009874Y012119D03*
D351*
X009874Y012119D03*
X009874Y012119D03*
D352*
X009874Y012120D03*
X009874Y012121D03*
X009874Y012121D03*
X010531Y012158D03*
X010531Y012159D03*
D353*
X010531Y012158D03*
X010531Y012157D03*
X009874Y012120D03*
D354*
X010525Y012121D03*
X010525Y012123D03*
D355*
X010525Y012122D03*
D356*
X009874Y012123D03*
X009874Y012122D03*
D357*
X009874Y012123D03*
X009874Y012124D03*
D358*
X009874Y012124D03*
X009874Y012125D03*
X009874Y012126D03*
X010531Y012161D03*
X010531Y012161D03*
D359*
X010531Y012160D03*
X010531Y012162D03*
X009874Y012125D03*
X009874Y012124D03*
D360*
X010526Y012125D03*
X010526Y012126D03*
D361*
X010526Y012125D03*
D362*
X010531Y012163D03*
X010531Y012164D03*
X009873Y012128D03*
X009873Y012126D03*
D363*
X009873Y012127D03*
X009873Y012128D03*
X010531Y012163D03*
D364*
X009873Y012130D03*
X009873Y012129D03*
X009873Y012129D03*
D365*
X009873Y012129D03*
D366*
X010526Y012130D03*
X010526Y012131D03*
D367*
X010526Y012130D03*
D368*
X010532Y012165D03*
X010532Y012167D03*
X009873Y012132D03*
X009873Y012130D03*
D369*
X009873Y012131D03*
X009873Y012131D03*
X010532Y012166D03*
X010532Y012166D03*
D370*
X009873Y012134D03*
X009873Y012134D03*
X009873Y012133D03*
D371*
X009873Y012133D03*
D372*
X010527Y012134D03*
X010527Y012134D03*
D373*
X010527Y012134D03*
D374*
X010532Y012169D03*
X010532Y012170D03*
X009872Y012135D03*
X009872Y012134D03*
D375*
X009872Y012135D03*
X009872Y012136D03*
X010532Y012169D03*
X010532Y012170D03*
D376*
X010533Y012171D03*
X010533Y012171D03*
X009872Y012139D03*
X009872Y012138D03*
X009872Y012136D03*
D377*
X009872Y012137D03*
X009872Y012138D03*
X010533Y012172D03*
D378*
X010528Y012139D03*
X010528Y012139D03*
D379*
X009872Y012140D03*
X009872Y012139D03*
D380*
X010528Y012139D03*
D381*
X009872Y012139D03*
X009872Y012140D03*
D382*
X009872Y012141D03*
X009872Y012141D03*
X009872Y012143D03*
X010533Y012174D03*
X010533Y012175D03*
D383*
X010528Y012143D03*
X010528Y012142D03*
D384*
X010533Y012174D03*
X010533Y012175D03*
X009872Y012142D03*
D385*
X010528Y012143D03*
D386*
X009871Y012143D03*
X009871Y012144D03*
D387*
X009871Y012144D03*
X009871Y012144D03*
D388*
X009871Y012145D03*
X009871Y012146D03*
X009871Y012146D03*
X010534Y012178D03*
X010534Y012179D03*
X010534Y012179D03*
D389*
X010534Y012178D03*
X009871Y012145D03*
D390*
X010529Y012147D03*
X010529Y012148D03*
D391*
X010534Y012179D03*
X010534Y012180D03*
X009871Y012148D03*
X009871Y012147D03*
D392*
X010529Y012148D03*
D393*
X010534Y012180D03*
X009871Y012149D03*
X009871Y012148D03*
D394*
X009871Y012149D03*
X009871Y012150D03*
X009871Y012151D03*
D395*
X009871Y012150D03*
X009871Y012149D03*
D396*
X010530Y012150D03*
D397*
X010530Y012151D03*
X010530Y012151D03*
D398*
X010534Y012183D03*
X010534Y012184D03*
X010534Y012184D03*
X009870Y012153D03*
X009870Y012151D03*
D399*
X009870Y012152D03*
X009870Y012153D03*
X010534Y012183D03*
D400*
X009870Y012155D03*
X009870Y012154D03*
X009870Y012154D03*
D401*
X009870Y012154D03*
D402*
X010530Y012155D03*
D403*
X010535Y012187D03*
X009870Y012157D03*
X009870Y012155D03*
D404*
X010530Y012156D03*
X010530Y012156D03*
D405*
X010535Y012186D03*
X010535Y012186D03*
X010535Y012188D03*
X009870Y012156D03*
X009870Y012156D03*
D406*
X009870Y012158D03*
X009870Y012159D03*
X009870Y012159D03*
X010535Y012189D03*
X010535Y012189D03*
D407*
X010535Y012188D03*
X009870Y012158D03*
D408*
X010531Y012159D03*
X010531Y012160D03*
D409*
X010531Y012159D03*
D410*
X009869Y012159D03*
X009869Y012160D03*
D411*
X009869Y012160D03*
X009869Y012161D03*
D412*
X009869Y012161D03*
X009869Y012163D03*
X009869Y012164D03*
X010536Y012191D03*
X010536Y012191D03*
X010536Y012193D03*
D413*
X010536Y012192D03*
X009869Y012163D03*
X009869Y012162D03*
D414*
X010531Y012164D03*
X010531Y012165D03*
D415*
X009869Y012165D03*
X009869Y012164D03*
D416*
X010531Y012164D03*
D417*
X009869Y012164D03*
X009869Y012165D03*
D418*
X009869Y012166D03*
X009869Y012166D03*
X009869Y012168D03*
X010536Y012195D03*
X010536Y012196D03*
D419*
X010536Y012195D03*
X010536Y012194D03*
X009869Y012167D03*
D420*
X010532Y012168D03*
X010532Y012169D03*
D421*
X010532Y012168D03*
D422*
X010536Y012197D03*
X009868Y012169D03*
X009868Y012168D03*
D423*
X009868Y012169D03*
X009868Y012169D03*
X010536Y012196D03*
X010536Y012198D03*
D424*
X009868Y012171D03*
X009868Y012171D03*
X009868Y012170D03*
D425*
X009868Y012170D03*
D426*
X009868Y012172D03*
X009868Y012173D03*
X010537Y012199D03*
X010537Y012200D03*
D427*
X010533Y012174D03*
X010533Y012173D03*
D428*
X010537Y012200D03*
X010537Y012201D03*
X009868Y012174D03*
X009868Y012173D03*
D429*
X010533Y012173D03*
D430*
X009868Y012174D03*
X009868Y012175D03*
X009868Y012176D03*
D431*
X009868Y012175D03*
X009868Y012174D03*
D432*
X010533Y012176D03*
X010533Y012176D03*
D433*
X010537Y012204D03*
X010537Y012204D03*
X009867Y012178D03*
X009867Y012176D03*
D434*
X010533Y012177D03*
D435*
X010537Y012203D03*
X010537Y012204D03*
X009867Y012178D03*
X009867Y012177D03*
D436*
X009867Y012179D03*
X009867Y012179D03*
X009867Y012180D03*
X010538Y012205D03*
X010538Y012206D03*
D437*
X010538Y012205D03*
X009867Y012179D03*
D438*
X009867Y012180D03*
X009867Y012182D03*
D439*
X010534Y012181D03*
X010534Y012181D03*
D440*
X009867Y012181D03*
X009867Y012181D03*
D441*
X010534Y012182D03*
D442*
X010538Y012209D03*
X010538Y012209D03*
X009867Y012184D03*
X009867Y012184D03*
X009867Y012183D03*
D443*
X009867Y012183D03*
X010538Y012208D03*
X010538Y012209D03*
D444*
X010535Y012185D03*
X010535Y012184D03*
D445*
X009866Y012184D03*
X009866Y012185D03*
D446*
X010535Y012185D03*
D447*
X009866Y012186D03*
X009866Y012185D03*
D448*
X009866Y012186D03*
X009866Y012188D03*
X009866Y012189D03*
X010539Y012211D03*
X010539Y012213D03*
D449*
X010539Y012213D03*
X010539Y012212D03*
X009866Y012188D03*
X009866Y012187D03*
D450*
X009866Y012189D03*
X009866Y012190D03*
X010539Y012214D03*
X010539Y012214D03*
D451*
X010535Y012190D03*
X010535Y012189D03*
D452*
X010539Y012214D03*
X009866Y012190D03*
X009866Y012189D03*
D453*
X010535Y012190D03*
D454*
X009866Y012191D03*
X009866Y012191D03*
X009866Y012193D03*
D455*
X009866Y012192D03*
D456*
X010536Y012193D03*
D457*
X010539Y012217D03*
X010539Y012218D03*
X009865Y012194D03*
X009865Y012193D03*
D458*
X010536Y012194D03*
X010536Y012194D03*
D459*
X010539Y012216D03*
X010539Y012218D03*
X009865Y012194D03*
X009865Y012194D03*
D460*
X009865Y012195D03*
X009865Y012196D03*
X009865Y012196D03*
D461*
X009865Y012195D03*
D462*
X009865Y012197D03*
X009865Y012198D03*
X010540Y012220D03*
D463*
X010540Y012220D03*
X010540Y012221D03*
X010540Y012221D03*
X009865Y012199D03*
X009865Y012198D03*
D464*
X010536Y012198D03*
D465*
X010536Y012199D03*
X010536Y012199D03*
D466*
X010540Y012223D03*
X009865Y012201D03*
X009865Y012200D03*
X009865Y012199D03*
D467*
X009865Y012199D03*
X009865Y012200D03*
X010540Y012222D03*
X010540Y012223D03*
D468*
X010537Y012203D03*
X010537Y012201D03*
D469*
X009864Y012201D03*
X009864Y012203D03*
D470*
X010537Y012202D03*
D471*
X009864Y012203D03*
X009864Y012202D03*
D472*
X009864Y012204D03*
X009864Y012204D03*
X009864Y012205D03*
X010541Y012225D03*
X010541Y012226D03*
X010541Y012226D03*
D473*
X010541Y012225D03*
X009864Y012204D03*
D474*
X009864Y012205D03*
X009864Y012207D03*
D475*
X009864Y012206D03*
X009864Y012206D03*
D476*
X010538Y012206D03*
X010538Y012208D03*
D477*
X010538Y012207D03*
D478*
X010541Y012229D03*
X010541Y012229D03*
X010541Y012230D03*
X009864Y012209D03*
X009864Y012209D03*
X009864Y012208D03*
D479*
X009864Y012208D03*
X010541Y012229D03*
D480*
X010541Y012230D03*
X009863Y012210D03*
X009863Y012209D03*
D481*
X010538Y012210D03*
X010538Y012211D03*
D482*
X010541Y012231D03*
X010541Y012231D03*
X009863Y012211D03*
X009863Y012210D03*
D483*
X010538Y012210D03*
D484*
X009863Y012211D03*
X009863Y012213D03*
X009863Y012214D03*
D485*
X009863Y012213D03*
X009863Y012212D03*
D486*
X009863Y012214D03*
X009863Y012215D03*
X010542Y012234D03*
X010542Y012234D03*
X010542Y012235D03*
D487*
X010542Y012234D03*
X009863Y012215D03*
X009863Y012214D03*
D488*
X010539Y012215D03*
X010539Y012216D03*
D489*
X010539Y012215D03*
D490*
X009863Y012216D03*
X009863Y012216D03*
X009863Y012218D03*
D491*
X009863Y012217D03*
D492*
X009862Y012218D03*
X009862Y012219D03*
X010542Y012237D03*
X010542Y012238D03*
D493*
X010540Y012219D03*
X010540Y012219D03*
D494*
X010542Y012238D03*
X010542Y012239D03*
X009862Y012219D03*
X009862Y012219D03*
D495*
X010540Y012219D03*
D496*
X010543Y012239D03*
X010543Y012240D03*
X009862Y012221D03*
X009862Y012221D03*
X009862Y012220D03*
D497*
X009862Y012220D03*
X010543Y012239D03*
D498*
X009862Y012223D03*
X009862Y012222D03*
D499*
X009862Y012223D03*
X009862Y012224D03*
D500*
X010540Y012224D03*
X010540Y012224D03*
D501*
X010543Y012243D03*
X010543Y012244D03*
X009862Y012226D03*
X009862Y012225D03*
X009862Y012224D03*
D502*
X010540Y012224D03*
D503*
X010543Y012242D03*
X010543Y012243D03*
X009862Y012225D03*
X009862Y012224D03*
D504*
X009861Y012226D03*
X009861Y012228D03*
D505*
X010541Y012228D03*
X010541Y012227D03*
D506*
X009861Y012228D03*
X009861Y012227D03*
D507*
X010541Y012228D03*
D508*
X010544Y012246D03*
X010544Y012246D03*
X009861Y012230D03*
X009861Y012229D03*
X009861Y012229D03*
D509*
X009861Y012229D03*
X010544Y012245D03*
X010544Y012247D03*
D510*
X010544Y012248D03*
X009861Y012232D03*
X009861Y012230D03*
D511*
X009861Y012231D03*
X009861Y012231D03*
X010544Y012248D03*
X010544Y012249D03*
D512*
X010541Y012233D03*
X010541Y012232D03*
D513*
X010541Y012233D03*
D514*
X009861Y012234D03*
X009861Y012234D03*
X009861Y012233D03*
D515*
X009861Y012233D03*
D516*
X009860Y012234D03*
X009860Y012235D03*
X010544Y012250D03*
X010544Y012252D03*
D517*
X010544Y012251D03*
X010544Y012251D03*
X009860Y012236D03*
X009860Y012235D03*
D518*
X010542Y012235D03*
D519*
X010542Y012236D03*
X010542Y012236D03*
D520*
X009860Y012236D03*
X009860Y012238D03*
X009860Y012239D03*
D521*
X009860Y012238D03*
X009860Y012237D03*
D522*
X009860Y012239D03*
X009860Y012240D03*
X010545Y012254D03*
X010545Y012255D03*
D523*
X010545Y012255D03*
X010545Y012254D03*
X009860Y012240D03*
X009860Y012239D03*
D524*
X010543Y012240D03*
D525*
X010543Y012241D03*
X010543Y012241D03*
D526*
X010545Y012256D03*
X010545Y012256D03*
X009860Y012243D03*
X009860Y012241D03*
X009860Y012241D03*
D527*
X009860Y012242D03*
X010545Y012257D03*
D528*
X009859Y012244D03*
X009859Y012243D03*
D529*
X009859Y012244D03*
X009859Y012244D03*
D530*
X010543Y012245D03*
X010543Y012244D03*
D531*
X010543Y012244D03*
D532*
X010546Y012259D03*
X010546Y012260D03*
X009859Y012246D03*
X009859Y012246D03*
X009859Y012245D03*
D533*
X009859Y012245D03*
X010546Y012259D03*
X010546Y012260D03*
D534*
X009859Y012248D03*
X009859Y012247D03*
D535*
X009859Y012248D03*
X009859Y012249D03*
D536*
X010544Y012250D03*
X010544Y012249D03*
D537*
X010546Y012263D03*
X010546Y012264D03*
X010546Y012264D03*
X009859Y012251D03*
X009859Y012250D03*
X009859Y012249D03*
D538*
X010544Y012249D03*
D539*
X010546Y012263D03*
X009859Y012250D03*
X009859Y012249D03*
D540*
X009858Y012251D03*
X009858Y012253D03*
X010546Y012265D03*
D541*
X010546Y012265D03*
X010546Y012264D03*
X009858Y012253D03*
X009858Y012252D03*
D542*
X010545Y012253D03*
X010545Y012254D03*
D543*
X010545Y012253D03*
D544*
X009858Y012254D03*
X009858Y012254D03*
X009858Y012255D03*
D545*
X009858Y012254D03*
D546*
X009858Y012255D03*
X009858Y012257D03*
X010547Y012268D03*
D547*
X010547Y012268D03*
X010547Y012269D03*
X010547Y012269D03*
X009858Y012256D03*
X009858Y012256D03*
D548*
X010545Y012258D03*
X010545Y012259D03*
D549*
X009858Y012259D03*
X009858Y012259D03*
X009858Y012258D03*
D550*
X010545Y012258D03*
D551*
X009858Y012258D03*
D552*
X009857Y012259D03*
X009857Y012260D03*
X010547Y012272D03*
D553*
X010547Y012273D03*
X010547Y012271D03*
X010547Y012271D03*
X009857Y012261D03*
X009857Y012260D03*
D554*
X010546Y012261D03*
X010546Y012261D03*
D555*
X010548Y012274D03*
X010548Y012274D03*
X009857Y012264D03*
X009857Y012263D03*
X009857Y012261D03*
D556*
X010546Y012262D03*
D557*
X010548Y012273D03*
X009857Y012263D03*
X009857Y012262D03*
D558*
X009857Y012264D03*
X009857Y012265D03*
D559*
X009857Y012265D03*
X009857Y012264D03*
D560*
X010546Y012266D03*
X010546Y012266D03*
D561*
X010548Y012276D03*
X010548Y012276D03*
X010548Y012278D03*
X009857Y012268D03*
X009857Y012266D03*
X009857Y012266D03*
D562*
X010546Y012267D03*
D563*
X010548Y012277D03*
X009857Y012267D03*
D564*
X009856Y012268D03*
X009856Y012269D03*
D565*
X009856Y012269D03*
X009856Y012269D03*
D566*
X010547Y012269D03*
X010547Y012270D03*
D567*
X010547Y012270D03*
D568*
X010549Y012280D03*
X010549Y012281D03*
X009856Y012271D03*
X009856Y012271D03*
X009856Y012270D03*
D569*
X009856Y012270D03*
X010549Y012279D03*
X010549Y012280D03*
D570*
X010549Y012282D03*
X009856Y012273D03*
X009856Y012272D03*
D571*
X009856Y012273D03*
X009856Y012274D03*
X010549Y012281D03*
X010549Y012283D03*
D572*
X009856Y012276D03*
X009856Y012275D03*
X009856Y012274D03*
D573*
X010548Y012274D03*
X010548Y012275D03*
D574*
X009856Y012275D03*
X009856Y012274D03*
D575*
X010548Y012275D03*
D576*
X010549Y012285D03*
X010549Y012286D03*
X009855Y012278D03*
X009855Y012276D03*
D577*
X009855Y012277D03*
X009855Y012278D03*
X010549Y012284D03*
X010549Y012285D03*
D578*
X010548Y012278D03*
D579*
X010548Y012279D03*
X010548Y012279D03*
D580*
X009855Y012280D03*
X009855Y012279D03*
X009855Y012279D03*
D581*
X009855Y012279D03*
D582*
X009855Y012280D03*
X009855Y012282D03*
X010550Y012288D03*
X010550Y012289D03*
D583*
X010550Y012289D03*
X010550Y012289D03*
X009855Y012281D03*
X009855Y012281D03*
D584*
X009855Y012283D03*
X009855Y012284D03*
X009855Y012284D03*
X010550Y012290D03*
X010550Y012291D03*
D585*
X010549Y012283D03*
D586*
X010550Y012290D03*
X009855Y012283D03*
D587*
X010549Y012284D03*
X010549Y012284D03*
D588*
X009854Y012284D03*
X009854Y012285D03*
D589*
X009854Y012285D03*
X009854Y012286D03*
D590*
X010550Y012286D03*
X010550Y012288D03*
D591*
X010551Y012294D03*
X010551Y012294D03*
X009854Y012289D03*
X009854Y012288D03*
X009854Y012286D03*
D592*
X010550Y012287D03*
D593*
X010551Y012293D03*
X010551Y012294D03*
X009854Y012288D03*
X009854Y012287D03*
D594*
X009854Y012289D03*
X009854Y012290D03*
D595*
X009854Y012290D03*
X009854Y012289D03*
D596*
X009854Y012291D03*
X009854Y012291D03*
X009854Y012293D03*
X010551Y012296D03*
X010551Y012298D03*
D597*
X010550Y012293D03*
X010550Y012291D03*
D598*
X010550Y012292D03*
D599*
X010551Y012297D03*
X010551Y012298D03*
X009854Y012292D03*
D600*
X009853Y012293D03*
X009853Y012294D03*
X010551Y012299D03*
D601*
X010551Y012299D03*
X010551Y012299D03*
X009853Y012294D03*
X009853Y012294D03*
D602*
X010551Y012295D03*
X010551Y012296D03*
D603*
X009853Y012296D03*
X009853Y012296D03*
X009853Y012295D03*
D604*
X010551Y012295D03*
D605*
X009853Y012295D03*
D606*
X009853Y012297D03*
X009853Y012298D03*
X010552Y012302D03*
X010552Y012303D03*
D607*
X010552Y012303D03*
X010552Y012301D03*
X009853Y012299D03*
X009853Y012298D03*
D608*
X009853Y012299D03*
X009853Y012300D03*
X009853Y012301D03*
D609*
X009853Y012300D03*
X009853Y012299D03*
D610*
X010551Y012300D03*
X010551Y012301D03*
D611*
X010551Y012300D03*
D612*
X010552Y012305D03*
X010552Y012306D03*
X010552Y012306D03*
X009852Y012303D03*
X009852Y012301D03*
D613*
X009852Y012302D03*
X009852Y012303D03*
X010552Y012305D03*
D614*
X010552Y012304D03*
X010552Y012304D03*
D615*
X010553Y012308D03*
X009852Y012305D03*
X009852Y012304D03*
X009852Y012304D03*
D616*
X010552Y012304D03*
D617*
X010553Y012307D03*
X010553Y012308D03*
X009852Y012304D03*
D618*
X009852Y012305D03*
X009852Y012307D03*
D619*
X009852Y012306D03*
X009852Y012306D03*
D620*
X009852Y012308D03*
X009852Y012309D03*
X009852Y012309D03*
X010553Y012310D03*
X010553Y012311D03*
X010553Y012311D03*
D621*
X010553Y012310D03*
X009852Y012308D03*
D622*
X010553Y012309D03*
X010553Y012309D03*
D623*
X010553Y012309D03*
D624*
X009851Y012309D03*
X009851Y012310D03*
D625*
X009851Y012310D03*
X009851Y012311D03*
D626*
X009851Y012311D03*
X009851Y012313D03*
X009851Y012314D03*
X010554Y012315D03*
X010554Y012314D03*
X010554Y012314D03*
D627*
X010553Y012313D03*
X010553Y012312D03*
D628*
X010554Y012314D03*
X009851Y012313D03*
X009851Y012312D03*
D629*
X010553Y012313D03*
D630*
X010554Y012316D03*
X010554Y012316D03*
X009851Y012315D03*
X009851Y012314D03*
D631*
X009851Y012314D03*
X009851Y012315D03*
X010554Y012315D03*
D632*
X009851Y012316D03*
X009851Y012316D03*
X009851Y012318D03*
D633*
X010554Y012318D03*
X010554Y012317D03*
D634*
X009851Y012317D03*
D635*
X010554Y012318D03*
D636*
X010554Y012319D03*
X009850Y012319D03*
X009850Y012318D03*
D637*
X009850Y012319D03*
X009850Y012319D03*
X010554Y012320D03*
X010554Y012319D03*
X010554Y012319D03*
D638*
X009850Y012320D03*
X009850Y012321D03*
X009850Y012321D03*
D639*
X010555Y012320D03*
D640*
X009850Y012320D03*
D641*
X010555Y012321D03*
X010555Y012321D03*
D642*
X010555Y012322D03*
X010555Y012323D03*
X009850Y012323D03*
X009850Y012322D03*
D643*
X009850Y012323D03*
X009850Y012324D03*
X010555Y012324D03*
X010555Y012323D03*
D644*
X010555Y012324D03*
X010555Y012325D03*
X009850Y012326D03*
X009850Y012325D03*
X009850Y012324D03*
D645*
X009850Y012324D03*
X009850Y012325D03*
X010555Y012324D03*
D646*
X010555Y012325D03*
D647*
X010555Y012326D03*
X010555Y012326D03*
D648*
X009849Y012326D03*
X009849Y012328D03*
D649*
X009849Y012329D03*
X010556Y012328D03*
X010556Y012327D03*
D650*
X009849Y012328D03*
X009849Y012327D03*
D651*
X009849Y012329D03*
X009849Y012329D03*
X009849Y012330D03*
X010556Y012329D03*
X010556Y012328D03*
D652*
X010556Y012329D03*
X010556Y012330D03*
D653*
X010556Y012329D03*
D654*
X010556Y012330D03*
X010556Y012332D03*
X009849Y012333D03*
D655*
X009849Y012332D03*
X009849Y012330D03*
D656*
X009849Y012333D03*
X009849Y012334D03*
X009849Y012334D03*
X010556Y012331D03*
X010556Y012331D03*
D657*
X009849Y012331D03*
X009849Y012331D03*
D658*
X009848Y012335D03*
X009848Y012336D03*
X010556Y012334D03*
X010556Y012333D03*
D659*
X010556Y012333D03*
X009848Y012334D03*
X009848Y012335D03*
D660*
X010556Y012335D03*
X010556Y012334D03*
D661*
X010556Y012334D03*
D662*
X010557Y012335D03*
X010557Y012337D03*
X009848Y012339D03*
X009848Y012340D03*
D663*
X009848Y012340D03*
X009848Y012339D03*
X010557Y012336D03*
X010557Y012336D03*
D664*
X009848Y012336D03*
X009848Y012338D03*
X009848Y012339D03*
D665*
X009848Y012338D03*
X009848Y012337D03*
D666*
X010557Y012338D03*
X010557Y012339D03*
D667*
X010557Y012338D03*
D668*
X010557Y012339D03*
X010557Y012340D03*
X009847Y012344D03*
X009847Y012344D03*
D669*
X009847Y012344D03*
X009847Y012343D03*
X010557Y012340D03*
X010557Y012339D03*
D670*
X010558Y012341D03*
X010558Y012341D03*
X009847Y012345D03*
X009847Y012346D03*
X009847Y012346D03*
D671*
X009848Y012343D03*
X009848Y012341D03*
X009848Y012341D03*
D672*
X009847Y012345D03*
X010558Y012342D03*
D673*
X009848Y012342D03*
D674*
X010558Y012343D03*
X010558Y012344D03*
D675*
X010558Y012343D03*
D676*
X010558Y012344D03*
X010558Y012345D03*
X009847Y012349D03*
X009847Y012350D03*
X009847Y012351D03*
D677*
X009847Y012350D03*
X009847Y012349D03*
X010558Y012345D03*
X010558Y012344D03*
D678*
X010558Y012346D03*
X010558Y012346D03*
D679*
X010558Y012347D03*
D680*
X009847Y012348D03*
X009847Y012347D03*
D681*
X009846Y012354D03*
X009846Y012354D03*
X009846Y012355D03*
X010559Y012349D03*
X010559Y012349D03*
X010559Y012348D03*
D682*
X009847Y012349D03*
X009847Y012348D03*
D683*
X009846Y012354D03*
X010559Y012348D03*
D684*
X010559Y012349D03*
X010559Y012350D03*
X009846Y012355D03*
X009846Y012357D03*
D685*
X009846Y012356D03*
X009846Y012356D03*
X010559Y012350D03*
D686*
X010559Y012351D03*
X010559Y012351D03*
D687*
X009846Y012351D03*
X009846Y012353D03*
D688*
X010559Y012352D03*
D689*
X009846Y012353D03*
X009846Y012352D03*
D690*
X009845Y012360D03*
X009845Y012361D03*
X010559Y012354D03*
X010559Y012354D03*
X010559Y012353D03*
D691*
X010559Y012353D03*
X009845Y012359D03*
X009845Y012360D03*
D692*
X010560Y012355D03*
X010560Y012354D03*
D693*
X010560Y012355D03*
D694*
X010560Y012356D03*
X010560Y012356D03*
X010560Y012358D03*
X009845Y012364D03*
X009845Y012365D03*
D695*
X009845Y012365D03*
X009845Y012364D03*
X010560Y012357D03*
D696*
X009846Y012358D03*
X009846Y012359D03*
X009846Y012359D03*
D697*
X009845Y012367D03*
X010560Y012358D03*
D698*
X009846Y012358D03*
D699*
X009845Y012366D03*
X009845Y012366D03*
X009845Y012368D03*
X010560Y012359D03*
X010560Y012359D03*
D700*
X010560Y012359D03*
X010560Y012360D03*
D701*
X010560Y012360D03*
D702*
X010561Y012361D03*
X010561Y012361D03*
X010561Y012363D03*
X009844Y012370D03*
X009844Y012371D03*
X009844Y012371D03*
D703*
X009845Y012364D03*
X009845Y012363D03*
X009845Y012361D03*
D704*
X009844Y012370D03*
X010561Y012362D03*
D705*
X009845Y012363D03*
X009845Y012362D03*
D706*
X010561Y012363D03*
D707*
X010561Y012364D03*
X010561Y012364D03*
D708*
X010561Y012364D03*
X010561Y012365D03*
X009844Y012374D03*
D709*
X009844Y012374D03*
X010561Y012366D03*
X010561Y012365D03*
D710*
X010561Y012366D03*
X010561Y012368D03*
D711*
X010561Y012367D03*
D712*
X010561Y012368D03*
X010561Y012369D03*
D713*
X009844Y012369D03*
X009844Y012368D03*
D714*
X010561Y012369D03*
X010561Y012369D03*
D715*
X009844Y012369D03*
X009844Y012369D03*
D716*
X010562Y012370D03*
X010562Y012371D03*
D717*
X010562Y012370D03*
D718*
X010562Y012371D03*
X010562Y012373D03*
D719*
X010562Y012372D03*
D720*
X009844Y012373D03*
X009844Y012372D03*
D721*
X009844Y012373D03*
X009844Y012374D03*
D722*
X010562Y012374D03*
X010562Y012373D03*
D723*
X010562Y012374D03*
X010562Y012374D03*
D724*
X010506Y012375D03*
X010506Y012376D03*
X010506Y012376D03*
X010506Y012378D03*
X010506Y012379D03*
X010506Y012379D03*
X010506Y012380D03*
X010506Y012381D03*
X010506Y012381D03*
X010506Y012383D03*
X010506Y012384D03*
X010506Y012384D03*
X010506Y012385D03*
X010506Y012386D03*
X010506Y012386D03*
X010506Y012388D03*
X010506Y012389D03*
X010506Y012389D03*
X010506Y012390D03*
X010506Y012391D03*
X010506Y012391D03*
X010506Y012393D03*
X010506Y012394D03*
X010506Y012394D03*
X010506Y012395D03*
X010506Y012396D03*
X010506Y012396D03*
X010506Y012398D03*
X010506Y012399D03*
X010506Y012399D03*
X010506Y012400D03*
D725*
X009898Y012400D03*
X009898Y012399D03*
X009898Y012399D03*
X009898Y012398D03*
X009898Y012396D03*
X009898Y012396D03*
X009898Y012395D03*
X009898Y012394D03*
X009898Y012394D03*
X009898Y012393D03*
X009898Y012391D03*
X009898Y012391D03*
X009898Y012390D03*
X009898Y012389D03*
X009898Y012389D03*
X009898Y012388D03*
X009898Y012386D03*
X009898Y012386D03*
X009898Y012385D03*
X009898Y012384D03*
X009898Y012384D03*
X009898Y012383D03*
X009898Y012381D03*
X009898Y012381D03*
X009898Y012380D03*
X009898Y012379D03*
X009898Y012379D03*
X009898Y012378D03*
X009898Y012376D03*
X009898Y012376D03*
X009898Y012375D03*
D726*
X010506Y012375D03*
X010506Y012377D03*
X010506Y012378D03*
X010506Y012379D03*
X010506Y012380D03*
X010506Y012382D03*
X010506Y012383D03*
X010506Y012384D03*
X010506Y012385D03*
X010506Y012387D03*
X010506Y012388D03*
X010506Y012389D03*
X010506Y012390D03*
X010506Y012392D03*
X010506Y012393D03*
X010506Y012394D03*
X010506Y012395D03*
X010506Y012397D03*
X010506Y012398D03*
X010506Y012399D03*
X010506Y012400D03*
D727*
X009898Y012400D03*
X009898Y012399D03*
X009898Y012398D03*
X009898Y012397D03*
X009898Y012395D03*
X009898Y012394D03*
X009898Y012393D03*
X009898Y012392D03*
X009898Y012390D03*
X009898Y012389D03*
X009898Y012388D03*
X009898Y012387D03*
X009898Y012385D03*
X009898Y012384D03*
X009898Y012383D03*
X009898Y012382D03*
X009898Y012380D03*
X009898Y012379D03*
X009898Y012378D03*
X009898Y012377D03*
X009898Y012375D03*
D728*
X010202Y012401D03*
X010202Y012401D03*
X010202Y012403D03*
X010202Y012404D03*
X010202Y012404D03*
X010202Y012405D03*
X010202Y012406D03*
X010202Y012406D03*
X010202Y012408D03*
X010202Y012409D03*
X010202Y012409D03*
X010202Y012410D03*
X010202Y012411D03*
X010202Y012411D03*
X010202Y012413D03*
X010202Y012414D03*
X010202Y012414D03*
X010202Y012415D03*
X010202Y012416D03*
X010202Y012416D03*
X010202Y012418D03*
X010202Y012419D03*
X010202Y012419D03*
X010202Y012420D03*
X010202Y012421D03*
X010202Y012550D03*
X010202Y012551D03*
X010202Y012551D03*
X010202Y012553D03*
X010202Y012554D03*
X010202Y012554D03*
X010202Y012555D03*
X010202Y012556D03*
X010202Y012556D03*
X010202Y012558D03*
X010202Y012559D03*
X010202Y012559D03*
X010202Y012560D03*
X010202Y012561D03*
X010202Y012561D03*
X010202Y012563D03*
X010202Y012564D03*
X010202Y012564D03*
X010202Y012565D03*
X010202Y012566D03*
X010202Y012566D03*
X010202Y012568D03*
X010202Y012569D03*
X010202Y012569D03*
X010202Y012570D03*
X010202Y012571D03*
X010202Y012571D03*
X010202Y012573D03*
X010202Y012574D03*
X010202Y012574D03*
X010202Y012575D03*
X010202Y012576D03*
X010202Y012576D03*
X010202Y012578D03*
X010202Y012579D03*
X010202Y012579D03*
X010202Y012580D03*
X010202Y012581D03*
X010202Y012581D03*
X010202Y012583D03*
X010202Y012584D03*
X010202Y012584D03*
X010202Y012585D03*
X010202Y012586D03*
D729*
X010202Y012585D03*
X010202Y012584D03*
X010202Y012583D03*
X010202Y012582D03*
X010202Y012580D03*
X010202Y012579D03*
X010202Y012578D03*
X010202Y012577D03*
X010202Y012575D03*
X010202Y012574D03*
X010202Y012573D03*
X010202Y012572D03*
X010202Y012570D03*
X010202Y012569D03*
X010202Y012568D03*
X010202Y012567D03*
X010202Y012565D03*
X010202Y012564D03*
X010202Y012563D03*
X010202Y012562D03*
X010202Y012560D03*
X010202Y012559D03*
X010202Y012558D03*
X010202Y012557D03*
X010202Y012555D03*
X010202Y012554D03*
X010202Y012553D03*
X010202Y012552D03*
X010202Y012550D03*
X010202Y012420D03*
X010202Y012419D03*
X010202Y012418D03*
X010202Y012417D03*
X010202Y012415D03*
X010202Y012414D03*
X010202Y012413D03*
X010202Y012412D03*
X010202Y012410D03*
X010202Y012409D03*
X010202Y012408D03*
X010202Y012407D03*
X010202Y012405D03*
X010202Y012404D03*
X010202Y012403D03*
X010202Y012402D03*
D730*
X010476Y012421D03*
X010476Y012423D03*
X010476Y012424D03*
X010476Y012424D03*
X010476Y012425D03*
X010476Y012426D03*
X010476Y012426D03*
X010476Y012428D03*
X010476Y012429D03*
X010476Y012429D03*
X010476Y012430D03*
X010476Y012431D03*
X010476Y012431D03*
X010476Y012433D03*
X010476Y012434D03*
X010476Y012434D03*
X010476Y012435D03*
X010476Y012436D03*
X010476Y012436D03*
X010476Y012438D03*
X010476Y012439D03*
X010476Y012439D03*
X010476Y012440D03*
X010476Y012441D03*
X010476Y012441D03*
X010476Y012443D03*
X010476Y012444D03*
X010476Y012444D03*
X010476Y012445D03*
X010476Y012446D03*
X010476Y012446D03*
X010476Y012448D03*
X010476Y012449D03*
X010476Y012449D03*
X010476Y012450D03*
X010476Y012451D03*
X010476Y012451D03*
X010476Y012453D03*
X010476Y012454D03*
X010476Y012454D03*
X010476Y012455D03*
X010476Y012456D03*
X010476Y012456D03*
X010476Y012458D03*
X010476Y012459D03*
X010476Y012459D03*
X010476Y012460D03*
X010476Y012461D03*
X010476Y012461D03*
X010476Y012463D03*
X010476Y012464D03*
X010476Y012464D03*
X010476Y012465D03*
X010476Y012466D03*
X010476Y012466D03*
X010476Y012468D03*
X010476Y012469D03*
X010476Y012469D03*
X010476Y012470D03*
X010476Y012471D03*
X010476Y012471D03*
X010476Y012473D03*
X010476Y012474D03*
X010476Y012474D03*
X010476Y012475D03*
X010476Y012476D03*
X010476Y012476D03*
X010476Y012478D03*
X010476Y012479D03*
X010476Y012479D03*
X010476Y012480D03*
X010476Y012481D03*
X010476Y012481D03*
X010476Y012483D03*
X010476Y012484D03*
X010476Y012484D03*
X010476Y012485D03*
X010476Y012486D03*
X010476Y012486D03*
X010476Y012488D03*
X010476Y012489D03*
X010476Y012489D03*
X010476Y012490D03*
X010476Y012491D03*
X010476Y012491D03*
X010476Y012493D03*
X010476Y012494D03*
X010476Y012494D03*
X010476Y012495D03*
X010476Y012496D03*
X010476Y012496D03*
X010476Y012498D03*
X010476Y012499D03*
X010476Y012499D03*
X010476Y012500D03*
X010476Y012501D03*
X010476Y012501D03*
X010476Y012503D03*
X010476Y012504D03*
X010476Y012504D03*
X010476Y012505D03*
X010476Y012506D03*
X010476Y012506D03*
X010476Y012508D03*
X010476Y012509D03*
X010476Y012509D03*
X010476Y012510D03*
X010476Y012511D03*
X010476Y012511D03*
X010476Y012513D03*
X010476Y012514D03*
X010476Y012514D03*
X010476Y012515D03*
X010476Y012516D03*
X010476Y012516D03*
X010476Y012518D03*
X010476Y012519D03*
X010476Y012519D03*
X010476Y012520D03*
X010476Y012521D03*
X010476Y012521D03*
X010476Y012523D03*
X010476Y012524D03*
X010476Y012524D03*
X010476Y012525D03*
X010476Y012526D03*
X010476Y012526D03*
X010476Y012528D03*
X010476Y012529D03*
X010476Y012529D03*
X010476Y012530D03*
X010476Y012531D03*
X010476Y012531D03*
X010476Y012533D03*
X010476Y012534D03*
X010476Y012534D03*
X010476Y012535D03*
X010476Y012536D03*
X010476Y012536D03*
X010476Y012538D03*
X010476Y012539D03*
X010476Y012539D03*
X010476Y012540D03*
X010476Y012541D03*
X010476Y012541D03*
X010476Y012543D03*
X010476Y012544D03*
X010476Y012544D03*
X010476Y012545D03*
X010476Y012546D03*
X010476Y012546D03*
X010476Y012548D03*
X010476Y012549D03*
X010476Y012549D03*
D731*
X009921Y012549D03*
X009921Y012549D03*
X009921Y012548D03*
X009921Y012546D03*
X009921Y012546D03*
X009921Y012545D03*
X009921Y012544D03*
X009921Y012544D03*
X009921Y012543D03*
X009921Y012541D03*
X009921Y012541D03*
X009921Y012540D03*
X009921Y012539D03*
X009921Y012539D03*
X009921Y012538D03*
X009921Y012536D03*
X009921Y012536D03*
X009921Y012535D03*
X009921Y012534D03*
X009921Y012534D03*
X009921Y012533D03*
X009921Y012531D03*
X009921Y012531D03*
X009921Y012530D03*
X009921Y012529D03*
X009921Y012529D03*
X009921Y012528D03*
X009921Y012526D03*
X009921Y012526D03*
X009921Y012525D03*
X009921Y012524D03*
X009921Y012524D03*
X009921Y012523D03*
X009921Y012521D03*
X009921Y012521D03*
X009921Y012520D03*
X009921Y012519D03*
X009921Y012519D03*
X009921Y012518D03*
X009921Y012516D03*
X009921Y012516D03*
X009921Y012515D03*
X009921Y012514D03*
X009921Y012514D03*
X009921Y012513D03*
X009921Y012511D03*
X009921Y012511D03*
X009921Y012510D03*
X009921Y012509D03*
X009921Y012509D03*
X009921Y012508D03*
X009921Y012506D03*
X009921Y012506D03*
X009921Y012505D03*
X009921Y012504D03*
X009921Y012504D03*
X009921Y012503D03*
X009921Y012501D03*
X009921Y012501D03*
X009921Y012500D03*
X009921Y012499D03*
X009921Y012499D03*
X009921Y012498D03*
X009921Y012496D03*
X009921Y012496D03*
X009921Y012495D03*
X009921Y012494D03*
X009921Y012494D03*
X009921Y012493D03*
X009921Y012491D03*
X009921Y012491D03*
X009921Y012490D03*
X009921Y012489D03*
X009921Y012489D03*
X009921Y012488D03*
X009921Y012486D03*
X009921Y012486D03*
X009921Y012485D03*
X009921Y012484D03*
X009921Y012484D03*
X009921Y012483D03*
X009921Y012481D03*
X009921Y012481D03*
X009921Y012480D03*
X009921Y012479D03*
X009921Y012479D03*
X009921Y012478D03*
X009921Y012476D03*
X009921Y012476D03*
X009921Y012475D03*
X009921Y012474D03*
X009921Y012474D03*
X009921Y012473D03*
X009921Y012471D03*
X009921Y012471D03*
X009921Y012470D03*
X009921Y012469D03*
X009921Y012469D03*
X009921Y012468D03*
X009921Y012466D03*
X009921Y012466D03*
X009921Y012465D03*
X009921Y012464D03*
X009921Y012464D03*
X009921Y012463D03*
X009921Y012461D03*
X009921Y012461D03*
X009921Y012460D03*
X009921Y012459D03*
X009921Y012459D03*
X009921Y012458D03*
X009921Y012456D03*
X009921Y012456D03*
X009921Y012455D03*
X009921Y012454D03*
X009921Y012454D03*
X009921Y012453D03*
X009921Y012451D03*
X009921Y012451D03*
X009921Y012450D03*
X009921Y012449D03*
X009921Y012449D03*
X009921Y012448D03*
X009921Y012446D03*
X009921Y012446D03*
X009921Y012445D03*
X009921Y012444D03*
X009921Y012444D03*
X009921Y012443D03*
X009921Y012441D03*
X009921Y012441D03*
X009921Y012440D03*
X009921Y012439D03*
X009921Y012439D03*
X009921Y012438D03*
X009921Y012436D03*
X009921Y012436D03*
X009921Y012435D03*
X009921Y012434D03*
X009921Y012434D03*
X009921Y012433D03*
X009921Y012431D03*
X009921Y012431D03*
X009921Y012430D03*
X009921Y012429D03*
X009921Y012429D03*
X009921Y012428D03*
X009921Y012426D03*
X009921Y012426D03*
X009921Y012425D03*
X009921Y012424D03*
X009921Y012424D03*
X009921Y012423D03*
X009921Y012421D03*
D732*
X010476Y012422D03*
X010476Y012423D03*
X010476Y012424D03*
X010476Y012425D03*
X010476Y012427D03*
X010476Y012428D03*
X010476Y012429D03*
X010476Y012430D03*
X010476Y012432D03*
X010476Y012433D03*
X010476Y012434D03*
X010476Y012435D03*
X010476Y012437D03*
X010476Y012438D03*
X010476Y012439D03*
X010476Y012440D03*
X010476Y012442D03*
X010476Y012443D03*
X010476Y012444D03*
X010476Y012445D03*
X010476Y012447D03*
X010476Y012448D03*
X010476Y012449D03*
X010476Y012450D03*
X010476Y012452D03*
X010476Y012453D03*
X010476Y012454D03*
X010476Y012455D03*
X010476Y012457D03*
X010476Y012458D03*
X010476Y012459D03*
X010476Y012460D03*
X010476Y012462D03*
X010476Y012463D03*
X010476Y012464D03*
X010476Y012465D03*
X010476Y012467D03*
X010476Y012468D03*
X010476Y012469D03*
X010476Y012470D03*
X010476Y012472D03*
X010476Y012473D03*
X010476Y012474D03*
X010476Y012475D03*
X010476Y012477D03*
X010476Y012478D03*
X010476Y012479D03*
X010476Y012480D03*
X010476Y012482D03*
X010476Y012483D03*
X010476Y012484D03*
X010476Y012485D03*
X010476Y012487D03*
X010476Y012488D03*
X010476Y012489D03*
X010476Y012490D03*
X010476Y012492D03*
X010476Y012493D03*
X010476Y012494D03*
X010476Y012495D03*
X010476Y012497D03*
X010476Y012498D03*
X010476Y012499D03*
X010476Y012500D03*
X010476Y012502D03*
X010476Y012503D03*
X010476Y012504D03*
X010476Y012505D03*
X010476Y012507D03*
X010476Y012508D03*
X010476Y012509D03*
X010476Y012510D03*
X010476Y012512D03*
X010476Y012513D03*
X010476Y012514D03*
X010476Y012515D03*
X010476Y012517D03*
X010476Y012518D03*
X010476Y012519D03*
X010476Y012520D03*
X010476Y012522D03*
X010476Y012523D03*
X010476Y012524D03*
X010476Y012525D03*
X010476Y012527D03*
X010476Y012528D03*
X010476Y012529D03*
X010476Y012530D03*
X010476Y012532D03*
X010476Y012533D03*
X010476Y012534D03*
X010476Y012535D03*
X010476Y012537D03*
X010476Y012538D03*
X010476Y012539D03*
X010476Y012540D03*
X010476Y012542D03*
X010476Y012543D03*
X010476Y012544D03*
X010476Y012545D03*
X010476Y012547D03*
X010476Y012548D03*
X010476Y012549D03*
D733*
X009921Y012549D03*
X009921Y012548D03*
X009921Y012547D03*
X009921Y012545D03*
X009921Y012544D03*
X009921Y012543D03*
X009921Y012542D03*
X009921Y012540D03*
X009921Y012539D03*
X009921Y012538D03*
X009921Y012537D03*
X009921Y012535D03*
X009921Y012534D03*
X009921Y012533D03*
X009921Y012532D03*
X009921Y012530D03*
X009921Y012529D03*
X009921Y012528D03*
X009921Y012527D03*
X009921Y012525D03*
X009921Y012524D03*
X009921Y012523D03*
X009921Y012522D03*
X009921Y012520D03*
X009921Y012519D03*
X009921Y012518D03*
X009921Y012517D03*
X009921Y012515D03*
X009921Y012514D03*
X009921Y012513D03*
X009921Y012512D03*
X009921Y012510D03*
X009921Y012509D03*
X009921Y012508D03*
X009921Y012507D03*
X009921Y012505D03*
X009921Y012504D03*
X009921Y012503D03*
X009921Y012502D03*
X009921Y012500D03*
X009921Y012499D03*
X009921Y012498D03*
X009921Y012497D03*
X009921Y012495D03*
X009921Y012494D03*
X009921Y012493D03*
X009921Y012492D03*
X009921Y012490D03*
X009921Y012489D03*
X009921Y012488D03*
X009921Y012487D03*
X009921Y012485D03*
X009921Y012484D03*
X009921Y012483D03*
X009921Y012482D03*
X009921Y012480D03*
X009921Y012479D03*
X009921Y012478D03*
X009921Y012477D03*
X009921Y012475D03*
X009921Y012474D03*
X009921Y012473D03*
X009921Y012472D03*
X009921Y012470D03*
X009921Y012469D03*
X009921Y012468D03*
X009921Y012467D03*
X009921Y012465D03*
X009921Y012464D03*
X009921Y012463D03*
X009921Y012462D03*
X009921Y012460D03*
X009921Y012459D03*
X009921Y012458D03*
X009921Y012457D03*
X009921Y012455D03*
X009921Y012454D03*
X009921Y012453D03*
X009921Y012452D03*
X009921Y012450D03*
X009921Y012449D03*
X009921Y012448D03*
X009921Y012447D03*
X009921Y012445D03*
X009921Y012444D03*
X009921Y012443D03*
X009921Y012442D03*
X009921Y012440D03*
X009921Y012439D03*
X009921Y012438D03*
X009921Y012437D03*
X009921Y012435D03*
X009921Y012434D03*
X009921Y012433D03*
X009921Y012432D03*
X009921Y012430D03*
X009921Y012429D03*
X009921Y012428D03*
X009921Y012427D03*
X009921Y012425D03*
X009921Y012424D03*
X009921Y012423D03*
X009921Y012422D03*
D734*
X010203Y012586D03*
D735*
X010203Y012587D03*
D736*
X010202Y012588D03*
X010202Y012589D03*
X010202Y012589D03*
X010202Y012590D03*
D737*
X010202Y012590D03*
X010202Y012589D03*
X010202Y012588D03*
D738*
X010202Y012591D03*
D739*
X010202Y012591D03*
X010202Y012593D03*
X010202Y012594D03*
D740*
X010202Y012593D03*
X010202Y012592D03*
D741*
X010202Y012594D03*
D742*
X010202Y012594D03*
D743*
X010202Y012595D03*
X010202Y012596D03*
X010202Y012596D03*
D744*
X010202Y012595D03*
D745*
X010202Y012597D03*
D746*
X010202Y012598D03*
D747*
X010202Y012598D03*
D748*
X010202Y012599D03*
X010202Y012599D03*
D749*
X010202Y012599D03*
D750*
X010202Y012600D03*
D751*
X010202Y012600D03*
D752*
X010202Y012601D03*
X010202Y012601D03*
D753*
X010202Y012602D03*
D754*
X010202Y012603D03*
D755*
X010202Y012603D03*
D756*
X010202Y012604D03*
X010202Y012604D03*
D757*
X010202Y012604D03*
D758*
X010202Y012605D03*
X010202Y012606D03*
X010202Y012606D03*
D759*
X010202Y012605D03*
D760*
X010202Y012607D03*
X010202Y012608D03*
D761*
X010202Y012608D03*
X010202Y012609D03*
D762*
X010202Y012609D03*
X010202Y012610D03*
D763*
X010202Y012610D03*
X010202Y012609D03*
D764*
X010202Y012611D03*
X010202Y012611D03*
X010202Y012613D03*
D765*
X010202Y012612D03*
D766*
X010202Y012613D03*
X010202Y012614D03*
D767*
X010202Y012614D03*
X010202Y012614D03*
D768*
X010202Y012615D03*
X010202Y012616D03*
D769*
X010202Y012615D03*
D770*
X010203Y012616D03*
D771*
X010202Y012617D03*
D772*
X010202Y012618D03*
D773*
X010203Y012618D03*
D774*
X010202Y012619D03*
X010202Y012619D03*
D775*
X010202Y012619D03*
D776*
X010203Y012620D03*
D777*
X010202Y012620D03*
D778*
X010202Y012621D03*
D779*
X010203Y012621D03*
D780*
X010202Y012622D03*
D781*
X010202Y012623D03*
D782*
X010203Y012623D03*
D783*
X010202Y012624D03*
X010202Y012624D03*
D784*
X010203Y012624D03*
D785*
X010202Y012625D03*
D786*
X010203Y012625D03*
D787*
X010202Y012626D03*
X010202Y012626D03*
D788*
X010203Y012627D03*
D789*
X010202Y012628D03*
D790*
X010202Y012628D03*
D791*
X010203Y012629D03*
D792*
X010202Y012629D03*
D793*
X010203Y012629D03*
D794*
X010202Y012630D03*
D795*
X010202Y012630D03*
D796*
X010203Y012631D03*
D797*
X010202Y012631D03*
D798*
X010203Y012632D03*
D799*
X010203Y012633D03*
D800*
X010203Y012633D03*
D801*
X010202Y012634D03*
D802*
X010202Y012634D03*
D803*
X010202Y012634D03*
D804*
X010202Y012635D03*
D805*
X010202Y012635D03*
D806*
X010202Y012636D03*
D807*
X010202Y012636D03*
D808*
X010202Y012637D03*
D809*
X010202Y012638D03*
D810*
X010202Y012638D03*
D811*
X010202Y012639D03*
D812*
X010202Y012639D03*
D813*
X010202Y012639D03*
D814*
X010202Y012640D03*
D815*
X010202Y012640D03*
D816*
X010202Y012641D03*
D817*
X010202Y012641D03*
D818*
X010202Y012642D03*
D819*
X010202Y012643D03*
D820*
X010202Y012643D03*
D821*
X010202Y012644D03*
D822*
X010202Y012644D03*
D823*
X010202Y012644D03*
D824*
X010202Y012645D03*
D825*
X010202Y012645D03*
D826*
X010202Y012646D03*
D827*
X010202Y012646D03*
D828*
X010202Y012647D03*
D829*
X010202Y012648D03*
D830*
X010202Y012648D03*
D831*
X010202Y012649D03*
D832*
X010202Y012649D03*
D833*
X010203Y012649D03*
D834*
X010203Y012650D03*
D835*
X010203Y012650D03*
D836*
X010203Y012651D03*
D837*
X010203Y012651D03*
D838*
X010203Y012652D03*
D839*
X010203Y012653D03*
D840*
X010203Y012653D03*
D841*
X010203Y012654D03*
D842*
X010203Y012654D03*
D843*
X010203Y012654D03*
D844*
X010203Y012655D03*
D845*
X010203Y012655D03*
D846*
X010203Y012656D03*
D847*
X010203Y012656D03*
D848*
X010203Y012657D03*
D849*
X010203Y012658D03*
D850*
X010202Y012658D03*
D851*
X010202Y012659D03*
D852*
X010202Y012659D03*
D853*
X010202Y012659D03*
D854*
X010202Y012660D03*
D855*
X010202Y012660D03*
D856*
X010202Y012661D03*
D857*
X010202Y012661D03*
D858*
X010202Y012662D03*
D859*
X010202Y012663D03*
D860*
X010202Y012663D03*
D861*
X010202Y012664D03*
D862*
X010202Y012664D03*
D863*
X010202Y012664D03*
D864*
X010202Y012665D03*
D865*
X010202Y012665D03*
D866*
X010202Y012666D03*
D867*
X010202Y012666D03*
D868*
X010202Y012667D03*
D869*
X010202Y012668D03*
D870*
X010202Y012668D03*
D871*
X010202Y012669D03*
D872*
X010202Y012669D03*
D873*
X010202Y012669D03*
D874*
X010202Y012670D03*
D875*
X010202Y012670D03*
D876*
X010202Y012671D03*
D877*
X010202Y012671D03*
D878*
X010202Y012672D03*
D879*
X010202Y012673D03*
D880*
X010202Y012673D03*
D881*
X010202Y012674D03*
D882*
X010203Y012674D03*
D883*
X010203Y012674D03*
D884*
X010203Y012675D03*
D885*
X010203Y012675D03*
D886*
X010203Y012676D03*
D887*
X010203Y012676D03*
D888*
X010203Y012677D03*
D889*
X010203Y012678D03*
D890*
X010203Y012678D03*
D891*
X010203Y012679D03*
D892*
X010203Y012679D03*
D893*
X010203Y012679D03*
D894*
X010203Y012680D03*
D895*
X010203Y012680D03*
D896*
X010203Y012681D03*
D897*
X010203Y012681D03*
D898*
X010203Y012682D03*
D899*
X010202Y012683D03*
D900*
X010202Y012683D03*
D901*
X010202Y012684D03*
D902*
X010202Y012684D03*
D903*
X010202Y012684D03*
D904*
X010202Y012685D03*
D905*
X010202Y012685D03*
D906*
X010202Y012686D03*
D907*
X010202Y012686D03*
D908*
X010202Y012687D03*
D909*
X010202Y012688D03*
D910*
X010202Y012688D03*
D911*
X010202Y012689D03*
D912*
X010202Y012689D03*
D913*
X010202Y012689D03*
D914*
X010202Y012690D03*
D915*
X010202Y012690D03*
D916*
X010202Y012691D03*
D917*
X010202Y012691D03*
D918*
X010202Y012692D03*
D919*
X010202Y012693D03*
D920*
X010202Y012693D03*
D921*
X010202Y012694D03*
D922*
X010202Y012694D03*
D923*
X010202Y012694D03*
D924*
X010202Y012695D03*
D925*
X010202Y012695D03*
D926*
X010202Y012696D03*
D927*
X010202Y012696D03*
D928*
X010202Y012697D03*
D929*
X010202Y012698D03*
D930*
X010202Y012698D03*
D931*
X010202Y012699D03*
D932*
X010203Y012699D03*
D933*
X010203Y012699D03*
D934*
X010203Y012700D03*
D935*
X010203Y012700D03*
D936*
X010203Y012701D03*
D937*
X010203Y012701D03*
D938*
X010203Y012702D03*
D939*
X010203Y012703D03*
D940*
X010203Y012703D03*
D941*
X010203Y012704D03*
D942*
X010203Y012704D03*
D943*
X010203Y012704D03*
D944*
X010203Y012705D03*
D945*
X010203Y012705D03*
D946*
X010203Y012706D03*
D947*
X010202Y012706D03*
D948*
X010202Y012707D03*
D949*
X010202Y012708D03*
D950*
X010202Y012708D03*
D951*
X010202Y012709D03*
D952*
X010202Y012709D03*
D953*
X010202Y012709D03*
D954*
X010202Y012710D03*
D955*
X010202Y012710D03*
D956*
X010202Y012711D03*
D957*
X010202Y012711D03*
D958*
X010202Y012712D03*
D959*
X010202Y012713D03*
D960*
X010202Y012713D03*
D961*
X010202Y012714D03*
D962*
X010202Y012714D03*
D963*
X010202Y012714D03*
D964*
X010202Y012715D03*
D965*
X010202Y012715D03*
D966*
X010202Y012716D03*
D967*
X010202Y012716D03*
D968*
X010202Y012717D03*
D969*
X010202Y012718D03*
D970*
X010202Y012718D03*
D971*
X010202Y012719D03*
D972*
X010202Y012719D03*
D973*
X010202Y012719D03*
D974*
X010202Y012720D03*
D975*
X010202Y012720D03*
D976*
X010202Y012721D03*
D977*
X010202Y012721D03*
D978*
X010202Y012722D03*
D979*
X010202Y012723D03*
D980*
X010202Y012723D03*
D981*
X010203Y012724D03*
D982*
X010203Y012724D03*
D983*
X010203Y012724D03*
D984*
X010203Y012725D03*
D985*
X010203Y012725D03*
D986*
X010203Y012726D03*
D987*
X010203Y012726D03*
D988*
X010203Y012727D03*
D989*
X010203Y012728D03*
D990*
X010203Y012728D03*
D991*
X010203Y012729D03*
D992*
X010203Y012729D03*
D993*
X010203Y012729D03*
D994*
X010203Y012730D03*
D995*
X010203Y012730D03*
D996*
X010202Y012731D03*
D997*
X010202Y012731D03*
D998*
X010202Y012732D03*
D999*
X010202Y012733D03*
D1000*
X010202Y012733D03*
D1001*
X010202Y012734D03*
D1002*
X010202Y012734D03*
D1003*
X010202Y012734D03*
D1004*
X010202Y012735D03*
D1005*
X010202Y012735D03*
D1006*
X010202Y012736D03*
D1007*
X010202Y012736D03*
D1008*
X010202Y012737D03*
D1009*
X010202Y012738D03*
D1010*
X010202Y012738D03*
D1011*
X010202Y012739D03*
D1012*
X010202Y012739D03*
D1013*
X010202Y012739D03*
D1014*
X010202Y012740D03*
D1015*
X010202Y012740D03*
D1016*
X010202Y012741D03*
D1017*
X010202Y012741D03*
D1018*
X010202Y012742D03*
D1019*
X010202Y012743D03*
D1020*
X010202Y012743D03*
D1021*
X010202Y012744D03*
D1022*
X010202Y012744D03*
D1023*
X010202Y012744D03*
D1024*
X010202Y012745D03*
D1025*
X010202Y012745D03*
D1026*
X010202Y012746D03*
D1027*
X010202Y012746D03*
D1028*
X010202Y012747D03*
D1029*
X010202Y012748D03*
D1030*
X010203Y012748D03*
D1031*
X010203Y012749D03*
D1032*
X010203Y012749D03*
D1033*
X010203Y012749D03*
D1034*
X010203Y012750D03*
D1035*
X010203Y012750D03*
D1036*
X010203Y012751D03*
D1037*
X010203Y012751D03*
D1038*
X010203Y012752D03*
D1039*
X010203Y012753D03*
D1040*
X010203Y012753D03*
D1041*
X010203Y012754D03*
D1042*
X010203Y012754D03*
D1043*
X010203Y012754D03*
D1044*
X010203Y012755D03*
D1045*
X010202Y012755D03*
D1046*
X010202Y012756D03*
D1047*
X010202Y012756D03*
D1048*
X010202Y012757D03*
D1049*
X010202Y012758D03*
D1050*
X010202Y012758D03*
D1051*
X010202Y012759D03*
D1052*
X010202Y012759D03*
D1053*
X010202Y012759D03*
D1054*
X010202Y012760D03*
D1055*
X010202Y012760D03*
D1056*
X010202Y012761D03*
D1057*
X010202Y012761D03*
D1058*
X010202Y012762D03*
D1059*
X010202Y012763D03*
D1060*
X010202Y012763D03*
D1061*
X010202Y012764D03*
D1062*
X010202Y012764D03*
D1063*
X010202Y012764D03*
D1064*
X010202Y012765D03*
D1065*
X010202Y012765D03*
D1066*
X010202Y012766D03*
D1067*
X010203Y012766D03*
D1068*
X010202Y012767D03*
D1069*
X010202Y012768D03*
D1070*
X010202Y012768D03*
D1071*
X010202Y012769D03*
D1072*
X010202Y012769D03*
D1073*
X010203Y012769D03*
D1074*
X010203Y012770D03*
D1075*
X010203Y012770D03*
D1076*
X010203Y012771D03*
D1077*
X010203Y012771D03*
D1078*
X010203Y012772D03*
D1079*
X010203Y012773D03*
D1080*
X010203Y012773D03*
D1081*
X010203Y012774D03*
D1082*
X010203Y012774D03*
D1083*
X010203Y012774D03*
D1084*
X010203Y012775D03*
D1085*
X010203Y012775D03*
D1086*
X010203Y012776D03*
D1087*
X010203Y012776D03*
D1088*
X010706Y011723D02*
X010705Y011723D01*
X010705Y011723D01*
X010706Y011723D01*
X010706Y011723D01*
X010706Y011722D01*
X010706Y011723D02*
X010706Y011723D01*
X010706Y011723D01*
X010707Y011723D01*
X010707Y011723D01*
X010707Y011723D01*
X010707Y011723D01*
X010707Y011723D01*
X010707Y011723D01*
X010707Y011723D01*
X010707Y011723D01*
X010707Y011723D01*
X010708Y011723D01*
X010708Y011723D01*
X010708Y011723D01*
X010707Y011723D01*
X010708Y011724D02*
X010708Y011723D01*
X010708Y011723D01*
X010708Y011723D01*
X010709Y011723D02*
X010709Y011723D01*
X010709Y011723D01*
X010709Y011723D01*
X010709Y011723D01*
X010709Y011723D01*
X010709Y011723D01*
X010709Y011723D01*
X010709Y011723D01*
X010710Y011723D02*
X010710Y011723D01*
X010710Y011723D01*
X010710Y011723D01*
X010710Y011722D01*
X010710Y011722D01*
X010710Y011722D01*
X010710Y011723D02*
X010710Y011723D01*
X010710Y011723D01*
X010711Y011723D02*
X010711Y011723D01*
X010711Y011723D01*
X010711Y011723D01*
X010711Y011723D01*
X010711Y011723D01*
X010711Y011723D01*
X010711Y011723D01*
X010711Y011723D01*
X010712Y011723D01*
X010712Y011724D02*
X010712Y011724D01*
X010712Y011723D01*
X010713Y011722D02*
X010712Y011722D01*
X010713Y011723D02*
X010713Y011723D01*
X010713Y011723D01*
X010713Y011723D01*
X010713Y011724D02*
X010713Y011724D01*
X010714Y011723D02*
X010714Y011723D01*
X010714Y011723D01*
X010714Y011723D01*
X010714Y011723D01*
X010714Y011723D01*
X010714Y011723D01*
X010714Y011723D01*
X010715Y011723D02*
X010715Y011724D01*
X010716Y011723D02*
X010716Y011723D01*
X010716Y011723D01*
X010716Y011723D01*
X010716Y011723D01*
X010717Y011723D01*
X010717Y011723D01*
X010717Y011723D01*
X010718Y011723D01*
X010718Y011723D01*
X010718Y011723D01*
X010717Y011723D01*
X010717Y011723D01*
X010717Y011723D01*
X010717Y011723D01*
X010716Y011723D01*
X010715Y011723D01*
X010715Y011723D01*
X010716Y011723D01*
X010716Y011723D01*
X010717Y011723D02*
X010718Y011723D01*
X010718Y011723D01*
X010719Y011723D01*
X010719Y011723D01*
X010719Y011723D01*
X010718Y011723D01*
X010718Y011724D02*
X010718Y011724D01*
X010720Y011723D02*
X010720Y011724D01*
X010721Y011723D02*
X010721Y011723D01*
X010721Y011723D01*
X010721Y011723D01*
X010721Y011723D01*
X010721Y011723D01*
X010721Y011723D01*
X010721Y011723D01*
X010721Y011723D01*
X010722Y011723D02*
X010722Y011723D01*
X010722Y011723D01*
X010722Y011723D01*
X010722Y011723D01*
X010722Y011723D01*
X010722Y011723D01*
X010722Y011723D01*
X010723Y011723D01*
X010723Y011723D01*
X010723Y011723D01*
X010723Y011723D01*
X010723Y011723D01*
X010723Y011723D01*
X010724Y011723D01*
X010724Y011723D01*
X010724Y011723D01*
X010724Y011724D01*
X010725Y011723D01*
X010723Y011723D02*
X010723Y011723D01*
X010722Y011723D02*
X010722Y011723D01*
X010723Y011723D01*
M02*
