G75*
%MOIN*%
%OFA0B0*%
%FSLAX24Y24*%
%IPPOS*%
%LPD*%
%AMOC8*
5,1,8,0,0,1.08239X$1,22.5*
%
%ADD10R,0.0218X0.0946*%
%ADD11C,0.0237*%
%ADD12R,0.0474X0.0513*%
%ADD13C,0.1380*%
%ADD14R,0.0820X0.0820*%
%ADD15C,0.0820*%
%ADD16R,0.0580X0.0330*%
%ADD17R,0.0297X0.0552*%
%ADD18R,0.0789X0.0237*%
D10*
X002729Y004953D03*
X003005Y004953D03*
X003280Y004953D03*
X003556Y004953D03*
X003831Y004953D03*
X004107Y004953D03*
X004382Y004953D03*
X004658Y004953D03*
X004934Y004953D03*
X005209Y004953D03*
X005485Y004953D03*
X005760Y004953D03*
X006036Y004953D03*
X006312Y004953D03*
X006587Y004953D03*
X006863Y004953D03*
X007138Y004953D03*
X007414Y004953D03*
X007690Y004953D03*
X007965Y004953D03*
X008241Y004953D03*
X008516Y004953D03*
X008792Y004953D03*
X009068Y004953D03*
X009343Y004953D03*
X009619Y004953D03*
X009894Y004953D03*
X010170Y004953D03*
X010445Y004953D03*
X010721Y004953D03*
D11*
X009875Y003279D03*
X003575Y003279D03*
D12*
X003525Y006221D03*
X003525Y006929D03*
X002675Y006929D03*
X002675Y006221D03*
X004375Y006221D03*
X005025Y006221D03*
X005025Y006929D03*
X004375Y006929D03*
X005815Y006929D03*
X005815Y006221D03*
X008775Y006221D03*
X009475Y006221D03*
X010125Y006221D03*
X010775Y006221D03*
X010775Y006929D03*
X010125Y006929D03*
X009475Y006929D03*
X008775Y006929D03*
X003875Y011571D03*
X003875Y012279D03*
D13*
X001225Y001225D03*
X001225Y012225D03*
X012225Y012225D03*
X012225Y001225D03*
D14*
X008225Y011725D03*
X000725Y003225D03*
D15*
X000725Y004225D03*
X000725Y005225D03*
X000725Y006225D03*
X000725Y007225D03*
X000725Y008225D03*
X000725Y009225D03*
X000725Y010225D03*
X005225Y011725D03*
X005225Y012725D03*
X006225Y012725D03*
X006225Y011725D03*
X007225Y011725D03*
X007225Y012725D03*
X008225Y012725D03*
D16*
X007925Y007202D03*
X007925Y006848D03*
X006505Y006848D03*
X006505Y007202D03*
D17*
X003299Y011363D03*
X002551Y011363D03*
X002551Y012387D03*
X002925Y012387D03*
X003299Y012387D03*
D18*
X005594Y010177D03*
X005594Y009921D03*
X005594Y009665D03*
X005594Y009409D03*
X005594Y009153D03*
X005594Y008897D03*
X005594Y008641D03*
X005594Y008385D03*
X005594Y008129D03*
X005594Y007873D03*
X007956Y007873D03*
X007956Y008129D03*
X007956Y008385D03*
X007956Y008641D03*
X007956Y008897D03*
X007956Y009153D03*
X007956Y009409D03*
X007956Y009665D03*
X007956Y009921D03*
X007956Y010177D03*
M02*
